<svg xmlns="http://www.w3.org/2000/svg" viewBox="0 0 1268.2 128.4" fill="white">
	<path d="M0,126.2V2.3h27.9v123.9H0z"/>
	<path d="M57.2,126.2V2.3h28.7l32.3,61.6l12.2,27.4h0.8c-0.6-6.6-1.4-13.9-2.2-22c-0.8-8.1-1.2-15.8-1.2-23.2V2.3h26.6v123.9h-28.7
		L93.3,64.4l-12.2-27h-0.8c0.6,6.8,1.4,14.2,2.2,22c0.8,7.9,1.2,15.5,1.2,22.8v43.9H57.2z"/>
	<path d="M183.5,126.2V2.3h35c9.5,0,18.1,1.2,25.7,3.6c7.6,2.4,14.1,6.1,19.6,11.1c5.4,5,9.6,11.4,12.5,19.1
		c2.9,7.7,4.4,16.9,4.4,27.6c0,10.6-1.5,19.9-4.4,27.7c-2.9,7.9-7,14.3-12.3,19.5s-11.7,9-19.1,11.5c-7.4,2.5-15.7,3.8-24.8,3.8
		H183.5z M211.5,103.5h5.3c5.3,0,10.1-0.7,14.4-2.1c4.3-1.4,8-3.6,11-6.7c3-3.1,5.4-7.2,7.1-12.3c1.7-5.1,2.6-11.3,2.6-18.8
		c0-7.3-0.9-13.5-2.6-18.5c-1.7-5-4.1-9-7.1-12c-3-3-6.7-5.1-11-6.4c-4.3-1.3-9.1-1.9-14.4-1.9h-5.3V103.5z"/>
	<path d="M304.2,126.2V2.3h27.9v123.9H304.2z"/>
	<path d="M361.4,126.2V2.3h77.5v23.6h-49.6v24.9h42.2v23.4h-42.2v28.5h51.5v23.6H361.4z"/>
	<path d="M503.5,126.2V2.3h27.9V50h42.8V2.3h28.1v123.9h-28.1V74.5h-42.8v51.7H503.5z"/>
	<path d="M615.8,126.2L654.5,2.3h33.6l38.8,123.9h-29.6l-7.6-29.5h-37.8l-7.6,29.5H615.8z M660.6,63.5l-3,11.4H684l-2.9-11.4
		c-1.8-6.2-3.5-12.8-5.1-19.8c-1.6-7-3.3-13.7-4.9-20.1h-0.8c-1.5,6.6-3.1,13.3-4.7,20.2C664.1,50.7,662.4,57.3,660.6,63.5z"/>
	<path d="M790.2,128.4c-7.9,0-15.3-1.4-22.2-4.1c-7-2.7-13.1-6.7-18.3-12.1c-5.3-5.3-9.4-11.9-12.4-19.9c-3-7.9-4.6-17.1-4.6-27.5
		c0-10.3,1.6-19.4,4.8-27.5c3.2-8,7.4-14.9,12.7-20.4c5.3-5.6,11.5-9.8,18.6-12.7c7.1-2.9,14.6-4.4,22.4-4.4c8,0,15.1,1.6,21.5,4.8
		c6.3,3.2,11.6,7,15.8,11.3L813.6,34c-3.2-2.9-6.5-5.3-10-7.1c-3.5-1.8-7.4-2.8-11.9-2.8c-4.2,0-8.1,0.9-11.9,2.8
		c-3.7,1.8-7,4.5-9.7,7.9c-2.7,3.4-4.9,7.6-6.5,12.5c-1.6,4.9-2.4,10.5-2.4,16.7c0,12.8,2.7,22.7,8.2,29.7
		c5.4,7,12.7,10.5,21.9,10.5c5.1,0,9.6-1.1,13.6-3.3c4-2.2,7.5-5,10.5-8.3l14.8,17.5C819.9,122.4,806.5,128.4,790.2,128.4z"/>
	<path d="M849.1,126.2V2.3H877V53h0.8l36.9-50.7h30.8L908,51.7l44.3,74.5h-30.6l-30.2-52.2l-14.4,19v33.2H849.1z"/>
	<path d="M965.8,126.2V2.3h77.5v23.6h-49.6v24.9h42.2v23.4h-42.2v28.5h51.5v23.6H965.8z"/>
	<path d="M1069.9,126.2V2.3h44.7c6.6,0,12.8,0.6,18.5,1.9c5.8,1.3,10.8,3.4,15.1,6.4c4.3,3,7.7,6.9,10.3,11.9
		c2.5,4.9,3.8,11.1,3.8,18.4c0,9.1-2,16.6-6,22.5c-4,5.9-9.3,10.3-16.1,13.2l28.1,49.6h-31.3l-23.8-44.6h-15.4v44.6H1069.9z
		 M1097.8,59.3h14.4c7.3,0,12.9-1.5,16.8-4.7c3.9-3.1,5.8-7.7,5.8-13.8s-1.9-10.3-5.8-12.7c-3.9-2.4-9.5-3.6-16.8-3.6h-14.4V59.3z"
		/>
	<path d="M1221.5,128.4c-8.1,0-16.2-1.5-24.2-4.5c-8-3-15.2-7.4-21.6-13.4l16-19.2c4.4,3.8,9.3,6.9,14.7,9.3
		c5.4,2.4,10.7,3.6,15.9,3.6c5.8,0,10.2-1.1,13-3.2c2.9-2.2,4.3-5.1,4.3-8.7c0-1.9-0.4-3.5-1.2-4.9c-0.8-1.4-2-2.6-3.6-3.7
		c-1.6-1.1-3.5-2.1-5.7-3c-2.2-1-4.7-2-7.3-3.1l-16.1-6.8c-3.2-1.3-6.2-2.9-9.2-4.9c-3-2-5.6-4.4-8-7.1c-2.3-2.7-4.2-5.9-5.6-9.5
		c-1.4-3.6-2.1-7.7-2.1-12.3c0-5.1,1.1-9.8,3.2-14.3c2.2-4.5,5.2-8.4,9.1-11.8c3.9-3.4,8.6-6,14-7.9c5.4-1.9,11.3-2.9,17.8-2.9
		c7.2,0,14.3,1.4,21.4,4.2c7,2.8,13.2,6.8,18.5,12.2L1250.4,34c-4.1-3.2-8.1-5.6-12.2-7.3c-4.1-1.7-8.5-2.6-13.5-2.6
		c-4.8,0-8.6,1-11.5,2.9c-2.8,2-4.3,4.7-4.3,8.3c0,1.9,0.5,3.5,1.4,4.8s2.3,2.5,4,3.6c1.7,1.1,3.7,2.1,6,3c2.3,1,4.8,2,7.4,3.1
		l16,6.5c7.6,3,13.6,7.2,18,12.5s6.6,12.4,6.6,21.1c0,5.2-1,10.1-3.1,14.7c-2.1,4.6-5.1,8.7-9.1,12.2c-4,3.5-8.9,6.3-14.7,8.4
		C1235.4,127.4,1228.8,128.4,1221.5,128.4z"/>
</svg>
