<?xml version="1.0" encoding="utf-8"?>
<!-- Generator: Adobe Illustrator 25.0.1, SVG Export Plug-In . SVG Version: 6.00 Build 0)  -->
<svg version="1.1" id="Layer_1" xmlns="http://www.w3.org/2000/svg" xmlns:xlink="http://www.w3.org/1999/xlink" x="0px" y="0px"
	 viewBox="0 0 720 381.2" style="enable-background:new 0 0 720 381.2;" xml:space="preserve">
<style type="text/css">
	.st0{fill:#4A4A4A;}
</style>
<g id="icomoon-ignore">
</g>
<path class="st0" d="M288.3,158c3.2-19.6,10.4-45.6,26.6-68c21.8-29.8,58.2-55.6,129.4-55.4l7.2-33.4C367.7-1.4,315.7,31,287.9,70.4
	c-21.8,30.6-30,64-33.2,87.4L288.3,158L288.3,158z M348.9,158c2.8-9.8,7.2-20.4,14-29.8c12.4-16.8,31.6-31.6,69-34.6l7.2-34
	c-51.4,1.4-85,22.8-103.2,49c-12,16.8-18,34.4-21.2,49.2L348.9,158z M314.3,158h34.6H314.3z"/>
<path class="st0" d="M417.7,157.8l7.4-34c-20.8,1.6-33,11-41.2,23c-3,4.2-4.8,7-6.6,11H417.7L417.7,157.8z M642.1,157.8h-36l7.6-34
	C613.7,124,641.5,130.2,642.1,157.8z M81.3,124L42.9,305c-6.8,31.8,2.8,46,27.2,46c24,0,40-14.2,46.8-46l38.6-181h40.2l-37.8,177.8
	c-12.4,58.4-46,79.4-94,79.4c-48.4,0-73-21.2-60.6-79.4L41.1,124H81.3z M211.5,186.4h36.2l-4.6,22.2h1c13.2-17,33.4-27.2,54.6-27.2
	c29,0,44.6,13.2,36.4,51.6l-30.4,143.6h-38.2l27.6-130.4c5.2-24.8,0-34.4-19.2-34.4c-15.6,0-33,12.4-38.2,37.2l-27.2,127.6h-38
	L211.5,186.4L211.5,186.4z M373.7,186.4h38.2l-40.4,190.2h-38.2L373.7,186.4L373.7,186.4z M455.3,124h128.8l-7.4,34h-88.4l-14.8,70
	h88.6l-7,34h-88.6l-24.4,114.6h-40.4L455.3,124L455.3,124z M600.3,186.4h38.2l-40.4,190.2h-38.2L600.3,186.4L600.3,186.4z"/>
<path class="st0" d="M694.1,177c-15.2,0-26-11.4-26-26.4c0-16,12-26.4,26-26.4c13.8,0,25.8,10.6,25.8,26.4
	C720.1,166.4,708.1,177,694.1,177z M694.1,128.6c-11.4,0-20.4,9-20.4,21.8c0,12,7.8,21.8,20.4,21.8c11.4,0,20.2-9,20.2-21.8
	C714.5,137.6,705.5,128.6,694.1,128.6z M688.9,165.6h-4.8v-29.2h11c7,0,10.6,2.4,10.6,8.4c0,5.4-3.2,7.4-7.6,8l8.2,12.8h-5.4
	l-7.6-12.6h-4.6L688.9,165.6L688.9,165.6z M694.3,149c3.6,0,6.8-0.4,6.8-4.6c0-3.6-3.4-4-6.4-4h-5.8v8.6H694.3z"/>
</svg>
