<svg width="273" height="30" viewBox="0 0 273 30" fill="none" xmlns="http://www.w3.org/2000/svg">
<path d="M3.41549 11.4085C4.40141 10.2582 5.86855 9.6831 7.8169 9.6831C9.64789 9.6831 11.162 10.4108 12.3592 11.8662C13.5798 13.3216 14.1901 15.0352 14.1901 17.007C14.1901 19.1432 13.5916 20.9272 12.3944 22.3592C11.1972 23.7911 9.64789 24.507 7.74648 24.507C5.70423 24.507 4.28404 23.9202 3.48592 22.7465L3.41549 29.9296H0V10.1408H3.41549V11.4085ZM10.7042 17.0775C10.7042 15.8803 10.3639 14.8474 9.6831 13.9789C9.00235 13.0869 8.06338 12.6408 6.8662 12.6408C5.76291 12.6408 4.84742 13.0869 4.11972 13.9789C3.39202 14.8709 3.02817 15.9038 3.02817 17.0775C3.02817 18.2277 3.41549 19.2606 4.19014 20.1761C4.96479 21.0915 5.85681 21.5493 6.8662 21.5493C8.06338 21.5493 9.00235 21.1268 9.6831 20.2817C10.3639 19.4366 10.7042 18.3685 10.7042 17.0775Z" fill="#9F7AEA"/>
<path d="M29.6859 17.0775C29.6859 19.2606 29.0168 21.0446 27.6788 22.4296C26.3408 23.8146 24.5802 24.507 22.3971 24.507C20.2375 24.507 18.4769 23.8146 17.1154 22.4296C15.7539 21.0446 15.0732 19.2723 15.0732 17.1127C15.0732 14.9296 15.7422 13.1455 17.0802 11.7606C18.4182 10.3756 20.1788 9.6831 22.3619 9.6831C24.545 9.6831 26.3056 10.3756 27.6436 11.7606C29.0051 13.1221 29.6859 14.8944 29.6859 17.0775ZM18.5239 17.1479C18.5239 18.439 18.8877 19.4953 19.6154 20.3169C20.3431 21.1385 21.2821 21.5493 22.4323 21.5493C23.5826 21.5493 24.4981 21.115 25.1788 20.2465C25.883 19.3545 26.2351 18.3099 26.2351 17.1127C26.2351 15.892 25.883 14.8474 25.1788 13.9789C24.4746 13.0869 23.5474 12.6408 22.3971 12.6408C21.2704 12.6408 20.3431 13.0634 19.6154 13.9085C18.8877 14.7535 18.5239 15.8333 18.5239 17.1479Z" fill="#9F7AEA"/>
<path d="M41.3551 22.7465C40.4396 23.9202 38.9959 24.507 37.0241 24.507C35.0523 24.507 33.4795 23.7559 32.3058 22.2535C31.1556 20.7512 30.5804 18.9906 30.5804 16.9718C30.5804 14.9531 31.1673 13.2394 32.341 11.831C33.5382 10.3991 35.064 9.6831 36.9185 9.6831C38.8903 9.6831 40.3457 10.2582 41.2847 11.4085L41.3551 0H44.7706V24.0493H41.3551V22.7465ZM41.7424 17.0775C41.7424 15.8568 41.3668 14.8122 40.6157 13.9437C39.8645 13.0751 38.9607 12.6408 37.9044 12.6408C36.848 12.6408 35.9326 13.0751 35.1579 13.9437C34.4067 14.7887 34.0311 15.8451 34.0311 17.1127C34.0311 18.3568 34.395 19.4131 35.1227 20.2817C35.8739 21.1268 36.8128 21.5493 37.9396 21.5493C39.0664 21.5493 39.9818 21.1385 40.6861 20.3169C41.3903 19.4718 41.7424 18.392 41.7424 17.0775Z" fill="#9F7AEA"/>
<path d="M57.0621 13.7676C56.1935 12.8991 55.2193 12.4648 54.1395 12.4648C52.8719 12.4648 51.8743 12.9225 51.1466 13.838C50.4189 14.7535 50.055 15.8803 50.055 17.2183C50.055 18.5329 50.4658 19.6127 51.2874 20.4577C52.109 21.3028 53.1067 21.7254 54.2804 21.7254C55.2898 21.7254 56.217 21.2793 57.0621 20.3873V23.662C56.0761 24.2254 54.9377 24.507 53.6466 24.507C51.6278 24.507 49.9494 23.7911 48.6114 22.3592C47.2733 20.9272 46.6043 19.1784 46.6043 17.1127C46.6043 15.0469 47.2851 13.2981 48.6466 11.8662C50.0315 10.4108 51.7569 9.6831 53.8226 9.6831C55.0433 9.6831 56.1231 9.97653 57.0621 10.5634V13.7676Z" fill="#9F7AEA"/>
<path d="M72.6912 24.0493H69.3461V22.7817C68.3602 23.9319 66.8931 24.507 64.9447 24.507C62.9964 24.507 61.4353 23.7559 60.2616 22.2535C59.1114 20.7512 58.5363 18.9906 58.5363 16.9718C58.5363 14.9531 59.1231 13.2394 60.2968 11.831C61.494 10.3991 63.0198 9.6831 64.8743 9.6831C66.8461 9.6831 68.3367 10.27 69.3461 11.4437V10.1408H72.6912V24.0493ZM69.7334 17.0775C69.7334 15.7864 69.3696 14.73 68.6419 13.9085C67.9142 13.0634 66.9752 12.6408 65.825 12.6408C64.6982 12.6408 63.771 13.0516 63.0433 13.8732C62.3391 14.6714 61.987 15.7394 61.987 17.0775C61.987 18.4155 62.3508 19.4953 63.0785 20.3169C63.8062 21.1385 64.7452 21.5493 65.8954 21.5493C67.0456 21.5493 67.9729 21.1502 68.6771 20.3521C69.3813 19.554 69.7334 18.4624 69.7334 17.0775Z" fill="#9F7AEA"/>
<path d="M82.9756 13.0282C82.2245 12.3239 81.4381 11.9718 80.6165 11.9718C79.3723 11.9718 78.7503 12.5352 78.7503 13.662C78.7503 14.2958 79.3137 14.8122 80.4404 15.2113C82.5061 15.9624 83.7855 16.6549 84.2785 17.2887C84.7714 17.8991 85.0179 18.662 85.0179 19.5775C85.0179 21.0798 84.4897 22.277 83.4334 23.169C82.4005 24.061 81.1212 24.507 79.5953 24.507C77.6235 24.507 75.9921 23.7324 74.701 22.1831L76.2151 20.2465C77.3888 21.4202 78.4686 22.007 79.4545 22.007C80.8864 22.007 81.6024 21.3146 81.6024 19.9296C81.6024 19.2254 81.2268 18.7089 80.4756 18.3803C79.7245 18.0282 79.1493 17.77 78.7503 17.6056C76.5907 16.6667 75.5108 15.5282 75.5108 14.1901C75.5108 12.8521 75.9099 11.7723 76.708 10.9507C77.5296 10.1056 78.5977 9.6831 79.9122 9.6831C81.7902 9.6831 83.2808 10.1643 84.3841 11.1268L82.9756 13.0282Z" fill="#9F7AEA"/>
<path d="M91.3587 24.0493H87.9432V13.2042H86.2882V10.4225H87.9432V5.42253H91.3587V10.4225H94.0699V13.2042H91.3587V24.0493Z" fill="#9F7AEA"/>
<path d="M98.3553 0V11.3028C99.2473 10.223 100.667 9.6831 102.616 9.6831C104.071 9.6831 105.233 10.2465 106.102 11.3732C106.97 12.5 107.405 13.8967 107.405 15.5634V24.0493H104.024V16.6901C104.024 13.7559 103.121 12.2887 101.313 12.2887C99.3412 12.2887 98.3553 13.9085 98.3553 17.1479V24.0493H94.9398V0H98.3553Z" fill="#9F7AEA"/>
<path d="M123.904 17.0775C123.904 19.2606 123.234 21.0446 121.896 22.4296C120.558 23.8146 118.798 24.507 116.615 24.507C114.455 24.507 112.695 23.8146 111.333 22.4296C109.972 21.0446 109.291 19.2723 109.291 17.1127C109.291 14.9296 109.96 13.1455 111.298 11.7606C112.636 10.3756 114.396 9.6831 116.58 9.6831C118.763 9.6831 120.523 10.3756 121.861 11.7606C123.223 13.1221 123.904 14.8944 123.904 17.0775ZM112.742 17.1479C112.742 18.439 113.105 19.4953 113.833 20.3169C114.561 21.1385 115.5 21.5493 116.65 21.5493C117.8 21.5493 118.716 21.115 119.396 20.2465C120.101 19.3545 120.453 18.3099 120.453 17.1127C120.453 15.892 120.101 14.8474 119.396 13.9789C118.692 13.0869 117.765 12.6408 116.615 12.6408C115.488 12.6408 114.561 13.0634 113.833 13.9085C113.105 14.7535 112.742 15.8333 112.742 17.1479Z" fill="#9F7AEA"/>
<path d="M133.214 13.0282C132.462 12.3239 131.676 11.9718 130.854 11.9718C129.61 11.9718 128.988 12.5352 128.988 13.662C128.988 14.2958 129.552 14.8122 130.678 15.2113C132.744 15.9624 134.023 16.6549 134.516 17.2887C135.009 17.8991 135.256 18.662 135.256 19.5775C135.256 21.0798 134.728 22.277 133.671 23.169C132.638 24.061 131.359 24.507 129.833 24.507C127.861 24.507 126.23 23.7324 124.939 22.1831L126.453 20.2465C127.627 21.4202 128.707 22.007 129.692 22.007C131.124 22.007 131.84 21.3146 131.84 19.9296C131.84 19.2254 131.465 18.7089 130.714 18.3803C129.962 18.0282 129.387 17.77 128.988 17.6056C126.829 16.6667 125.749 15.5282 125.749 14.1901C125.749 12.8521 126.148 11.7723 126.946 10.9507C127.768 10.1056 128.836 9.6831 130.15 9.6831C132.028 9.6831 133.519 10.1643 134.622 11.1268L133.214 13.0282Z" fill="#9F7AEA"/>
<path d="M141.597 24.0493H138.181V13.2042H136.526V10.4225H138.181V5.42253H141.597V10.4225H144.308V13.2042H141.597V24.0493Z" fill="#9F7AEA"/>
<path d="M149.368 4.29577C149.368 4.83568 149.168 5.30516 148.769 5.70423C148.37 6.10329 147.901 6.30282 147.361 6.30282C146.821 6.30282 146.351 6.10329 145.952 5.70423C145.553 5.30516 145.354 4.83568 145.354 4.29577C145.354 3.75587 145.553 3.28638 145.952 2.88732C146.351 2.48826 146.821 2.28873 147.361 2.28873C147.901 2.28873 148.37 2.48826 148.769 2.88732C149.168 3.28638 149.368 3.75587 149.368 4.29577ZM149.086 24.0493H145.671V10.1408H149.086V24.0493Z" fill="#9F7AEA"/>
<path d="M155.78 11.4085C156.742 10.2582 158.163 9.6831 160.04 9.6831C163.233 9.6831 164.829 11.6432 164.829 15.5634V24.0493H161.449V16.6901C161.449 13.7559 160.545 12.2887 158.738 12.2887C156.766 12.2887 155.78 13.8615 155.78 17.007V24.0493H152.364V10.1408H155.78V11.4085Z" fill="#9F7AEA"/>
<path d="M180.906 22.8521C180.906 27.6174 178.687 30 174.251 30C172.279 30 170.612 29.4601 169.251 28.3803C167.889 27.3239 167.208 25.939 167.208 24.2254H170.835C170.835 24.9061 171.176 25.5751 171.856 26.2324C172.537 26.8897 173.3 27.2183 174.145 27.2183C176.375 27.2183 177.49 25.8803 177.49 23.2042V22.3239C176.528 23.5446 175.061 24.1549 173.089 24.1549C171.14 24.1549 169.603 23.4742 168.476 22.1127C167.373 20.7512 166.821 19.0845 166.821 17.1127C166.821 14.9765 167.42 13.1925 168.617 11.7606C169.814 10.3286 171.363 9.61268 173.265 9.61268C175.19 9.61268 176.598 10.2113 177.49 11.4085V10.0704H180.906V22.8521ZM177.983 16.7958C177.983 15.5282 177.631 14.507 176.927 13.7324C176.223 12.9577 175.295 12.5704 174.145 12.5704C172.995 12.5704 172.056 12.993 171.328 13.838C170.624 14.6831 170.272 15.7512 170.272 17.0423C170.272 19.8122 171.563 21.1972 174.145 21.1972C175.319 21.1972 176.246 20.7864 176.927 19.9648C177.631 19.1197 177.983 18.0634 177.983 16.7958Z" fill="#9F7AEA"/>
<path d="M188.798 22.0423C188.798 22.7465 188.552 23.3568 188.059 23.8732C187.589 24.3662 187.002 24.6127 186.298 24.6127C185.594 24.6127 184.995 24.3662 184.502 23.8732C184.009 23.3803 183.763 22.7934 183.763 22.1127C183.763 21.4085 184.009 20.8099 184.502 20.3169C184.995 19.8239 185.582 19.5775 186.263 19.5775C186.967 19.5775 187.566 19.8122 188.059 20.2817C188.552 20.7512 188.798 21.338 188.798 22.0423Z" fill="#9F7AEA"/>
<path d="M195.221 11.5845C196.089 10.3169 197.451 9.6831 199.305 9.6831C199.892 9.6831 200.432 9.80047 200.925 10.0352L200.502 13.1338C199.986 12.8052 199.423 12.6408 198.812 12.6408C196.418 12.6408 195.221 14.3545 195.221 17.7817V24.0493H191.805V10.1408H195.221V11.5845Z" fill="#9F7AEA"/>
<path d="M204.831 17.4296C204.831 18.7676 205.124 19.8709 205.711 20.7394C206.298 21.608 207.108 22.0423 208.14 22.0423C209.76 22.0423 210.793 21.2441 211.239 19.6479L214.478 20.1761C213.422 23.0634 211.309 24.507 208.14 24.507C206.028 24.507 204.338 23.838 203.07 22.5C201.826 21.1385 201.204 19.3779 201.204 17.2183C201.204 14.9413 201.802 13.1221 203 11.7606C204.22 10.3756 205.863 9.6831 207.929 9.6831C210.018 9.6831 211.638 10.3404 212.788 11.6549C213.962 12.946 214.549 14.7183 214.549 16.9718V17.4296H204.831ZM211.38 15.5282C211.38 14.5657 211.075 13.7207 210.464 12.993C209.877 12.2653 209.103 11.9014 208.14 11.9014C207.201 11.9014 206.427 12.2887 205.816 13.0634C205.23 13.8146 204.936 14.6362 204.936 15.5282H211.38Z" fill="#9F7AEA"/>
<path d="M222.095 18.9437L225.511 10.1408H229.314L222.905 24.331H220.863L214.49 10.1408H218.257L222.095 18.9437Z" fill="#9F7AEA"/>
<path d="M234.404 4.29577C234.404 4.83568 234.205 5.30516 233.806 5.70423C233.407 6.10329 232.937 6.30282 232.397 6.30282C231.857 6.30282 231.388 6.10329 230.989 5.70423C230.59 5.30516 230.39 4.83568 230.39 4.29577C230.39 3.75587 230.59 3.28638 230.989 2.88732C231.388 2.48826 231.857 2.28873 232.397 2.28873C232.937 2.28873 233.407 2.48826 233.806 2.88732C234.205 3.28638 234.404 3.75587 234.404 4.29577ZM234.123 24.0493H230.707V10.1408H234.123V24.0493Z" fill="#9F7AEA"/>
<path d="M240.042 17.4296C240.042 18.7676 240.335 19.8709 240.922 20.7394C241.509 21.608 242.319 22.0423 243.352 22.0423C244.971 22.0423 246.004 21.2441 246.45 19.6479L249.69 20.1761C248.633 23.0634 246.521 24.507 243.352 24.507C241.239 24.507 239.549 23.838 238.281 22.5C237.037 21.1385 236.415 19.3779 236.415 17.2183C236.415 14.9413 237.014 13.1221 238.211 11.7606C239.432 10.3756 241.075 9.6831 243.14 9.6831C245.23 9.6831 246.849 10.3404 248 11.6549C249.173 12.946 249.76 14.7183 249.76 16.9718V17.4296H240.042ZM246.591 15.5282C246.591 14.5657 246.286 13.7207 245.676 12.993C245.089 12.2653 244.314 11.9014 243.352 11.9014C242.413 11.9014 241.638 12.2887 241.028 13.0634C240.441 13.8146 240.147 14.6362 240.147 15.5282H246.591Z" fill="#9F7AEA"/>
<path d="M256.884 19.2254L260.581 9.6831H261.814L265.687 19.1901L269.138 10.1408H272.905L266.426 24.331H264.701L261.497 15.4225L257.835 24.331H256.074L249.701 10.1408H253.469L256.884 19.2254Z" fill="#9F7AEA"/>
<path d="M3.41549 11.4085C4.40141 10.2582 5.86855 9.6831 7.8169 9.6831C9.64789 9.6831 11.162 10.4108 12.3592 11.8662C13.5798 13.3216 14.1901 15.0352 14.1901 17.007C14.1901 19.1432 13.5916 20.9272 12.3944 22.3592C11.1972 23.7911 9.64789 24.507 7.74648 24.507C5.70423 24.507 4.28404 23.9202 3.48592 22.7465L3.41549 29.9296H0V10.1408H3.41549V11.4085ZM10.7042 17.0775C10.7042 15.8803 10.3639 14.8474 9.6831 13.9789C9.00235 13.0869 8.06338 12.6408 6.8662 12.6408C5.76291 12.6408 4.84742 13.0869 4.11972 13.9789C3.39202 14.8709 3.02817 15.9038 3.02817 17.0775C3.02817 18.2277 3.41549 19.2606 4.19014 20.1761C4.96479 21.0915 5.85681 21.5493 6.8662 21.5493C8.06338 21.5493 9.00235 21.1268 9.6831 20.2817C10.3639 19.4366 10.7042 18.3685 10.7042 17.0775Z" fill="black"/>
<path d="M29.6858 17.0775C29.6858 19.2606 29.0168 21.0446 27.6788 22.4296C26.3408 23.8146 24.5802 24.507 22.3971 24.507C20.2375 24.507 18.4769 23.8146 17.1154 22.4296C15.7539 21.0446 15.0732 19.2723 15.0732 17.1127C15.0732 14.9296 15.7422 13.1455 17.0802 11.7606C18.4182 10.3756 20.1788 9.6831 22.3619 9.6831C24.545 9.6831 26.3056 10.3756 27.6436 11.7606C29.0051 13.1221 29.6858 14.8944 29.6858 17.0775ZM18.5239 17.1479C18.5239 18.439 18.8877 19.4953 19.6154 20.3169C20.3431 21.1385 21.2821 21.5493 22.4323 21.5493C23.5826 21.5493 24.4981 21.115 25.1788 20.2465C25.883 19.3545 26.2351 18.3099 26.2351 17.1127C26.2351 15.892 25.883 14.8474 25.1788 13.9789C24.4746 13.0869 23.5474 12.6408 22.3971 12.6408C21.2704 12.6408 20.3431 13.0634 19.6154 13.9085C18.8877 14.7535 18.5239 15.8333 18.5239 17.1479Z" fill="black"/>
<path d="M41.3551 22.7465C40.4396 23.9202 38.9959 24.507 37.0241 24.507C35.0523 24.507 33.4795 23.7559 32.3058 22.2535C31.1556 20.7512 30.5804 18.9906 30.5804 16.9718C30.5804 14.9531 31.1673 13.2394 32.341 11.831C33.5382 10.3991 35.064 9.6831 36.9185 9.6831C38.8903 9.6831 40.3457 10.2582 41.2847 11.4085L41.3551 0H44.7706V24.0493H41.3551V22.7465ZM41.7424 17.0775C41.7424 15.8568 41.3668 14.8122 40.6156 13.9437C39.8645 13.0751 38.9607 12.6408 37.9044 12.6408C36.848 12.6408 35.9325 13.0751 35.1579 13.9437C34.4067 14.7887 34.0311 15.8451 34.0311 17.1127C34.0311 18.3568 34.395 19.4131 35.1227 20.2817C35.8739 21.1268 36.8128 21.5493 37.9396 21.5493C39.0664 21.5493 39.9818 21.1385 40.6861 20.3169C41.3903 19.4718 41.7424 18.392 41.7424 17.0775Z" fill="black"/>
<path d="M57.0621 13.7676C56.1935 12.8991 55.2193 12.4648 54.1395 12.4648C52.8719 12.4648 51.8743 12.9225 51.1466 13.838C50.4189 14.7535 50.055 15.8803 50.055 17.2183C50.055 18.5329 50.4658 19.6127 51.2874 20.4577C52.109 21.3028 53.1067 21.7254 54.2804 21.7254C55.2898 21.7254 56.217 21.2793 57.0621 20.3873V23.662C56.0761 24.2254 54.9376 24.507 53.6466 24.507C51.6278 24.507 49.9494 23.7911 48.6114 22.3592C47.2733 20.9272 46.6043 19.1784 46.6043 17.1127C46.6043 15.0469 47.2851 13.2981 48.6466 11.8662C50.0315 10.4108 51.7569 9.6831 53.8226 9.6831C55.0433 9.6831 56.1231 9.97653 57.0621 10.5634V13.7676Z" fill="black"/>
<path d="M72.6912 24.0493H69.3461V22.7817C68.3602 23.9319 66.8931 24.507 64.9447 24.507C62.9963 24.507 61.4353 23.7559 60.2616 22.2535C59.1114 20.7512 58.5363 18.9906 58.5363 16.9718C58.5363 14.9531 59.1231 13.2394 60.2968 11.831C61.494 10.3991 63.0198 9.6831 64.8743 9.6831C66.8461 9.6831 68.3367 10.27 69.3461 11.4437V10.1408H72.6912V24.0493ZM69.7334 17.0775C69.7334 15.7864 69.3696 14.73 68.6419 13.9085C67.9142 13.0634 66.9752 12.6408 65.825 12.6408C64.6982 12.6408 63.771 13.0516 63.0433 13.8732C62.3391 14.6714 61.987 15.7394 61.987 17.0775C61.987 18.4155 62.3508 19.4953 63.0785 20.3169C63.8062 21.1385 64.7452 21.5493 65.8954 21.5493C67.0456 21.5493 67.9729 21.1502 68.6771 20.3521C69.3813 19.554 69.7334 18.4624 69.7334 17.0775Z" fill="black"/>
<path d="M82.9756 13.0282C82.2245 12.3239 81.4381 11.9718 80.6165 11.9718C79.3723 11.9718 78.7503 12.5352 78.7503 13.662C78.7503 14.2958 79.3137 14.8122 80.4404 15.2113C82.5061 15.9624 83.7855 16.6549 84.2784 17.2887C84.7714 17.8991 85.0179 18.662 85.0179 19.5775C85.0179 21.0798 84.4897 22.277 83.4334 23.169C82.4005 24.061 81.1212 24.507 79.5953 24.507C77.6235 24.507 75.9921 23.7324 74.701 22.1831L76.2151 20.2465C77.3888 21.4202 78.4686 22.007 79.4545 22.007C80.8864 22.007 81.6024 21.3146 81.6024 19.9296C81.6024 19.2254 81.2268 18.7089 80.4756 18.3803C79.7245 18.0282 79.1493 17.77 78.7503 17.6056C76.5907 16.6667 75.5108 15.5282 75.5108 14.1901C75.5108 12.8521 75.9099 11.7723 76.708 10.9507C77.5296 10.1056 78.5977 9.6831 79.9122 9.6831C81.7902 9.6831 83.2808 10.1643 84.3841 11.1268L82.9756 13.0282Z" fill="black"/>
<path d="M91.3587 24.0493H87.9432V13.2042H86.2882V10.4225H87.9432V5.42253H91.3587V10.4225H94.0699V13.2042H91.3587V24.0493Z" fill="black"/>
<path d="M98.3552 0V11.3028C99.2473 10.223 100.667 9.6831 102.616 9.6831C104.071 9.6831 105.233 10.2465 106.102 11.3732C106.97 12.5 107.405 13.8967 107.405 15.5634V24.0493H104.024V16.6901C104.024 13.7559 103.121 12.2887 101.313 12.2887C99.3412 12.2887 98.3552 13.9085 98.3552 17.1479V24.0493H94.9398V0H98.3552Z" fill="black"/>
<path d="M123.904 17.0775C123.904 19.2606 123.234 21.0446 121.896 22.4296C120.558 23.8146 118.798 24.507 116.615 24.507C114.455 24.507 112.695 23.8146 111.333 22.4296C109.972 21.0446 109.291 19.2723 109.291 17.1127C109.291 14.9296 109.96 13.1455 111.298 11.7606C112.636 10.3756 114.396 9.6831 116.58 9.6831C118.763 9.6831 120.523 10.3756 121.861 11.7606C123.223 13.1221 123.904 14.8944 123.904 17.0775ZM112.742 17.1479C112.742 18.439 113.105 19.4953 113.833 20.3169C114.561 21.1385 115.5 21.5493 116.65 21.5493C117.8 21.5493 118.716 21.115 119.396 20.2465C120.101 19.3545 120.453 18.3099 120.453 17.1127C120.453 15.892 120.101 14.8474 119.396 13.9789C118.692 13.0869 117.765 12.6408 116.615 12.6408C115.488 12.6408 114.561 13.0634 113.833 13.9085C113.105 14.7535 112.742 15.8333 112.742 17.1479Z" fill="black"/>
<path d="M133.214 13.0282C132.462 12.3239 131.676 11.9718 130.854 11.9718C129.61 11.9718 128.988 12.5352 128.988 13.662C128.988 14.2958 129.552 14.8122 130.678 15.2113C132.744 15.9624 134.023 16.6549 134.516 17.2887C135.009 17.8991 135.256 18.662 135.256 19.5775C135.256 21.0798 134.728 22.277 133.671 23.169C132.638 24.061 131.359 24.507 129.833 24.507C127.861 24.507 126.23 23.7324 124.939 22.1831L126.453 20.2465C127.627 21.4202 128.707 22.007 129.692 22.007C131.124 22.007 131.84 21.3146 131.84 19.9296C131.84 19.2254 131.465 18.7089 130.714 18.3803C129.962 18.0282 129.387 17.77 128.988 17.6056C126.829 16.6667 125.749 15.5282 125.749 14.1901C125.749 12.8521 126.148 11.7723 126.946 10.9507C127.768 10.1056 128.836 9.6831 130.15 9.6831C132.028 9.6831 133.519 10.1643 134.622 11.1268L133.214 13.0282Z" fill="black"/>
<path d="M141.597 24.0493H138.181V13.2042H136.526V10.4225H138.181V5.42253H141.597V10.4225H144.308V13.2042H141.597V24.0493Z" fill="black"/>
<path d="M149.368 4.29577C149.368 4.83568 149.168 5.30516 148.769 5.70423C148.37 6.10329 147.901 6.30282 147.361 6.30282C146.821 6.30282 146.351 6.10329 145.952 5.70423C145.553 5.30516 145.354 4.83568 145.354 4.29577C145.354 3.75587 145.553 3.28638 145.952 2.88732C146.351 2.48826 146.821 2.28873 147.361 2.28873C147.901 2.28873 148.37 2.48826 148.769 2.88732C149.168 3.28638 149.368 3.75587 149.368 4.29577ZM149.086 24.0493H145.671V10.1408H149.086V24.0493Z" fill="black"/>
<path d="M155.78 11.4085C156.742 10.2582 158.162 9.6831 160.04 9.6831C163.233 9.6831 164.829 11.6432 164.829 15.5634V24.0493H161.449V16.6901C161.449 13.7559 160.545 12.2887 158.738 12.2887C156.766 12.2887 155.78 13.8615 155.78 17.007V24.0493H152.364V10.1408H155.78V11.4085Z" fill="black"/>
<path d="M180.906 22.8521C180.906 27.6174 178.687 30 174.251 30C172.279 30 170.612 29.4601 169.251 28.3803C167.889 27.3239 167.208 25.939 167.208 24.2254H170.835C170.835 24.9061 171.176 25.5751 171.856 26.2324C172.537 26.8897 173.3 27.2183 174.145 27.2183C176.375 27.2183 177.49 25.8803 177.49 23.2042V22.3239C176.528 23.5446 175.061 24.1549 173.089 24.1549C171.14 24.1549 169.603 23.4742 168.476 22.1127C167.373 20.7512 166.821 19.0845 166.821 17.1127C166.821 14.9765 167.42 13.1925 168.617 11.7606C169.814 10.3286 171.363 9.61268 173.265 9.61268C175.19 9.61268 176.598 10.2113 177.49 11.4085V10.0704H180.906V22.8521ZM177.983 16.7958C177.983 15.5282 177.631 14.507 176.927 13.7324C176.222 12.9577 175.295 12.5704 174.145 12.5704C172.995 12.5704 172.056 12.993 171.328 13.838C170.624 14.6831 170.272 15.7512 170.272 17.0423C170.272 19.8122 171.563 21.1972 174.145 21.1972C175.319 21.1972 176.246 20.7864 176.927 19.9648C177.631 19.1197 177.983 18.0634 177.983 16.7958Z" fill="black"/>
</svg>
