<svg width="190" height="214" xmlns="http://www.w3.org/2000/svg" xmlns:xlink="http://www.w3.org/1999/xlink">
  <defs>
    <linearGradient x1="21.197%" y1="74.652%" x2="50%" y2="100%" id="a">
      <stop stop-color="#223C6F" offset="0%"/>
      <stop stop-color="#0F1C3C" offset="100%"/>
    </linearGradient>
    <linearGradient x1="57.358%" y1="24.765%" x2="50%" y2="100%" id="b">
      <stop stop-color="#FA4584" offset="0%"/>
      <stop stop-color="#F3214D" offset="100%"/>
    </linearGradient>
    <pattern id="e" width="512" height="512" x="-512" y="-512" patternUnits="userSpaceOnUse">
      <use xlink:href="#a"/>
    </pattern>
    <filter x="-182.8%" y="-182.8%" width="465.5%" height="465.5%" filterUnits="objectBoundingBox" id="c">
      <feGaussianBlur stdDeviation="30.508" in="SourceGraphic"/>
    </filter>
    <path d="M30.215 16.225l-16.2 14.204c-.939.825-2.36.78-3.23-.114L.703 20.235a2.348 2.348 0 01-.114-3.231L14.795.806c.893-1.031 2.497-1.077 3.46-.115l12.052 12.051a2.384 2.384 0 01-.092 3.483z" id="d"/>
  </defs>
  <g fill="none" fill-rule="evenodd">
    <g transform="matrix(1 0 0 -1 2 200)" fill="#16B0F9">
      <circle opacity=".07" cx="87.561" cy="87.561" r="87.561"/>
      <circle opacity=".16" cx="87.722" cy="87.722" r="67.69"/>
      <circle opacity=".2" cx="87.399" cy="87.399" r="53.15"/>
      <circle opacity=".4" cx="87.237" cy="87.237" r="40.388"/>
    </g>
    <g transform="matrix(1 0 0 -1 40.772 142.811)" fill-rule="nonzero">
      <path d="M34.895 69.467v73.3c-.453 0-.905.044-1.358.044-.846 0-1.693-.045-2.52-.134v-73.21h3.878z" fill="#FFF"/>
      <path d="M26.38 53.312l-9.256 9.255L28.24 73.683a6.531 6.531 0 009.256 0 6.531 6.531 0 000-9.255L26.38 53.312z" fill="#CED5E0"/>
      <path d="M50.08 42.258L37.224 29.402 1.52 69.515c-2.117 2.366-2.003 5.961.227 8.214a5.971 5.971 0 008.215.227l40.12-35.698z" fill="url(#a)"/>
      <circle fill="url(#b)" style="mix-blend-mode:overlay" opacity=".742" filter="url(#c)" cx="54.766" cy="25.04" r="25.04"/>
      <circle fill="url(#b)" cx="49.596" cy="30.21" r="18.255"/>
      <path d="M35.899 18.142a18.211 18.211 0 0113.697-6.187c10.082 0 18.255 8.173 18.255 18.255 0 8.821-6.256 16.18-14.573 17.884a18.186 18.186 0 004.557-12.068c0-10.082-8.173-18.255-18.255-18.255-1.261 0-2.492.127-3.681.371z" fill="#F94167" style="mix-blend-mode:soft-light" opacity=".665"/>
      <g transform="translate(7.108 42.326)">
        <use fill="#E6E9EE" xlink:href="#d"/>
        <use fill-opacity=".009" fill="url(#e)" xlink:href="#d"/>
        <ellipse fill="#E6E9EE" cx="26.171" cy="27.625" rx="3.231" ry="3.393"/>
      </g>
    </g>
  </g>
</svg>
