<?xml version="1.0" encoding="utf-8"?>
<!-- Generator: Adobe Illustrator 25.0.1, SVG Export Plug-In . SVG Version: 6.00 Build 0)  -->
<svg version="1.1" id="Layer_1" xmlns="http://www.w3.org/2000/svg" xmlns:xlink="http://www.w3.org/1999/xlink" x="0px" y="0px"
	 viewBox="0 0 60 60" style="enable-background:new 0 0 60 60;" xml:space="preserve">
<style type="text/css">
	.st0{fill:#6e6d7a;}
</style>
<path class="st0" d="M26,6C15,6,6,15,6,26s9,20,20,20c4.8,0,9.2-1.7,12.6-4.5l11.9,11.9c0.8,0.8,2,0.8,2.8,0.1s0.8-2,0.1-2.8
	c0,0,0,0-0.1-0.1L41.5,38.6C44.3,35.2,46,30.8,46,26C46,15,37,6,26,6z M26,10c8.9,0,16,7.1,16,16s-7.1,16-16,16s-16-7.1-16-16
	S17.1,10,26,10z"/>
</svg>
