<svg xmlns="http://www.w3.org/2000/svg" width="76" height="80" viewBox="0 0 76 19" fill="none" class="site-nav-desktop-logo fill-current">
  <path fill-rule="evenodd" clip-rule="evenodd" d="M75.8822 14.657c-3.1759 5.3845-8.2056 3.8221-9.7162 2.5988-.6429.4362-1.7702 1.3923-3.2734 1.2819-3.2013-.235-4.3477-4.8098-4.3477-4.8098.023.0183-.9536.337-1.4814.3313-.0068 1.3416-1.1665 4.5464-4.2963 4.5054-3.5121-.0458-4.2261-5.2782-4.2261-5.2782s-.3495.4853-1.6784.9687c.0669-1.0307.018 4.1526-4.1914 4.2288-3.3278.0603-4.2261-5.2782-4.2261-5.2782s-.5773.5997-1.6961.8077c.0711-1.0475-.0445 4.4881-4.2544 4.4705-2.845-.0118-3.8172-3.2885-3.7416-3.7433.0965-.5796-.9615 3.8248-3.725 3.7562-1.1404-.0335-1.9906-.8592-2.5241-1.96-.7142.8172-1.7511 1.96-2.9143 1.96-2.088 0-3.0085-1.7464-2.8526-6.7344.0133-.5916-.0294-.8243-.6175-.9128-.353-.0589-.7145-.1704-1.097-.2292-.1226.4091-1.1624 7.7433-4.7379 7.8825-1.1995.0467-1.8554-.9924-2.394-1.7636-.8257 1.0923-1.9157 1.7984-3.4684 1.7984C1.792 18.5377 0 16.4114 0 13.7885c0-2.623 1.792-4.749 4.4223-4.749.465 0 .5956.0666 1.0204.1905C4.569 1.275 6.6324.0318 8.4374.0318c1.7329 0 4.6934 4.022.5277 14.2241.9249 3.043 2.9187 2.8709 3.8768-3.3933.195-1.2733-.3264-2.9916.4846-3.2314 1.4825-.4383 1.6398.8767 2.3349 1.0958.735.2315 1.164.209 1.8696.3563 1.2057.2354 1.6762.8831 1.5293 2.3257-.1764 1.8253-.485 4.482.4559 4.8058.6785.2352 1.9173-1.1719 2.1347-1.9418.2173-.7699.2627-1.0334.282-1.5981.0294-1.2069.0663-2.0916.2721-3.0043.0881-.3532.1885-.5871.5881-.6031.3288-.0084.9301-.1074 1.1948.0986.3528.265.3087.534.2682 1.242-.4103 10.0934 2.7477 5.0547 3.6893 1.0202-.3353-4.562-.1051-11.313 2.7537-11.4262 1.4868-.0589 2.1441 1.1322 2.2164 2.0213.2045 2.511-.941 6.6703-2.4475 9.4675-.861 5.7075 3.7645 6.836 4.5042 2.2803-1.2102-.5754-2.5181-2.9044-1.4538-4.0394.5972-.637 3.0831.2781 3.1238 2.2739 1.2194-.3261 1.3822-1.0146 1.3991-.9005C37.7061 6.5432 38.017.1154 40.876.0022c1.4866-.059 2.1438 1.1322 2.2161 2.0212.2045 2.511-.941 6.6704-2.4473 9.4676-.8611 5.7074 3.7645 6.836 4.504 2.2803-.896-.1729-2.7874-2.6501-1.6961-4.0394.5832-.7425 3.06.8015 3.3373 2.3399 1.1714-.3315 1.3305-.9981 1.3473-.8859C47.802 6.6239 48.1129.1962 50.9719.083c1.4866-.0589 2.1438 1.1322 2.2161 2.0213.2045 2.511-.941 6.6704-2.4475 9.4676-.8609 5.7075 3.7646 6.8358 4.5043 2.2801-1.2313-.205-2.9812-2.8206-1.5728-4.1587.5627-.5346 2.7128.8532 3.2161 2.4365.6993-.0269 1.1346-.2681 1.2279-.2924C56.9996 6.4818 57.8307.0559 60.9062.0022c1.6623-.029 3.2874.8987 2.5741 5.9938-.6809 4.8614-3.1284 6.9015-3.1227 6.9327.1424.5824 1.3983 5.4564 4.5609 2.8847-.1637-.3707-.3276-.7494-.4192-1.2082-.5242-2.6725.5054-5.6911 3.3039-6.179 1.6034-.2795 3.1138.5011 3.3526 2.261.3929 2.8797-2.2074 4.9652-3.1962 5.4176-.4429-.2516 4.0146 2.6072 6.66-3.1219.1534-.3271.3383-.2994.5779-.1308.1692.1191 1.133 1.0321.6847 1.8049zM6.3355 13.0809c-.1346-.4024-.4108-1.2891-.5085-1.6733-.538-.4678-.922-.5438-1.6124-.5438-1.5346 0-2.4378 1.4188-2.4378 2.9487 0 1.5298.984 2.9488 2.5185 2.9488 1.3299 0 2.342-.9042 2.6509-2.1842-.2162-.499-.4306-.9576-.6107-1.4962zM8.3998 2.1375c-1.0783 0-1.444 2.5722-1.373 4.7666.0627 1.94.6048 3.648.886 4.4133.0715.0959.0582.0335.122.1352 1.8721-4.102 1.0956-9.315.365-9.315zm22.4533.0808c-1.3936-.1598-1.3846 5.6456-1.2116 6.9478.7238-1.1579 1.9811-6.636 1.2116-6.9478zm10.1766 0c-1.3936-.1598-1.3846 5.6456-1.2115 6.9478.7237-1.1579 1.9811-6.636 1.2115-6.9478zm10.096.0808c-1.3937-.1598-1.3847 5.6456-1.2116 6.9479.7237-1.158 1.9811-6.6362 1.2116-6.9479zm9.9343-.4206c-2.1713.436-1.6657 7.6755-1.3359 8.9452 2.5576-3.5129 2.6103-9.0772 1.3359-8.9452zm8.1375 9.0469c-.1104-.4616-.6624-.7083-1.0434-.6475-1.0902.1489-2.1476 1.5067-1.7383 3.5739.0911.4604.3191.8842.3154.8701 2.4399-1.6369 2.6473-2.9268 2.4663-3.7965zm-45.977-3.4558a1.5753 1.5753 0 11-.0006-3.1506 1.5753 1.5753 0 01.0006 3.1506z" fill="#0D0C22"/>
</svg>
