<svg id="Instagram-icon" xmlns="http://www.w3.org/2000/svg" width="32" height="32" viewBox="0 0 32 32">
  <metadata><?xpacket begin="﻿" id="W5M0MpCehiHzreSzNTczkc9d"?>
<x:xmpmeta xmlns:x="adobe:ns:meta/" x:xmptk="Adobe XMP Core 5.6-c138 79.159824, 2016/09/14-01:09:01        ">
   <rdf:RDF xmlns:rdf="http://www.w3.org/1999/02/22-rdf-syntax-ns#">
      <rdf:Description rdf:about=""/>
   </rdf:RDF>
</x:xmpmeta>
                                                                                                    
                                                                                                    
                                                                                                    
                                                                                                    
                                                                                                    
                                                                                                    
                                                                                                    
                                                                                                    
                                                                                                    
                                                                                                    
                                                                                                    
                                                                                                    
                                                                                                    
                                                                                                    
                                                                                                    
                                                                                                    
                                                                                                    
                                                                                                    
                                                                                                    
                                                                                                    
                           
<?xpacket end="w"?></metadata>
<defs>
    <style>
      .cls-1 {
        fill: #d93175;
      }

      .cls-1, .cls-2 {
        fill-rule: evenodd;
      }

      .cls-2 {
        fill: #fff;
      }
    </style>
  </defs>
  <path class="cls-1" d="M804,1587h32v-32H804v32Z" transform="translate(-804 -1555)"/>
  <path id="Shape_623_copy" data-name="Shape 623 copy" class="cls-2" d="M820,1563.62c2.4,0,2.688.01,3.637,0.05a5.065,5.065,0,0,1,1.671.31,2.827,2.827,0,0,1,1.035.68,2.728,2.728,0,0,1,.673,1.03,5.038,5.038,0,0,1,.31,1.67c0.043,0.95.052,1.24,0.052,3.64s-0.009,2.69-.052,3.64a5.038,5.038,0,0,1-.31,1.67,2.728,2.728,0,0,1-.673,1.03,2.827,2.827,0,0,1-1.035.68,5.065,5.065,0,0,1-1.671.31c-0.949.04-1.234,0.05-3.637,0.05s-2.688-.01-3.637-0.05a5.065,5.065,0,0,1-1.671-.31,2.827,2.827,0,0,1-1.035-.68,2.728,2.728,0,0,1-.673-1.03,5.038,5.038,0,0,1-.31-1.67c-0.043-.95-0.052-1.24-0.052-3.64s0.009-2.69.052-3.64a5.038,5.038,0,0,1,.31-1.67,2.728,2.728,0,0,1,.673-1.03,2.827,2.827,0,0,1,1.035-.68,5.065,5.065,0,0,1,1.671-.31c0.949-.04,1.234-0.05,3.637-0.05m0-1.62c-2.444,0-2.751.01-3.711,0.05a6.827,6.827,0,0,0-2.184.42,4.627,4.627,0,0,0-2.633,2.63,6.692,6.692,0,0,0-.418,2.19c-0.044.96-.054,1.27-0.054,3.71s0.01,2.75.054,3.71a6.692,6.692,0,0,0,.418,2.19,4.627,4.627,0,0,0,2.633,2.63,6.827,6.827,0,0,0,2.184.42c0.96,0.04,1.267.05,3.711,0.05s2.751-.01,3.711-0.05a6.827,6.827,0,0,0,2.184-.42,4.621,4.621,0,0,0,2.632-2.63,6.664,6.664,0,0,0,.419-2.19c0.044-.96.054-1.27,0.054-3.71s-0.01-2.75-.054-3.71a6.664,6.664,0,0,0-.419-2.19,4.621,4.621,0,0,0-2.632-2.63,6.827,6.827,0,0,0-2.184-.42c-0.96-.04-1.267-0.05-3.711-0.05h0Zm0,4.38a4.62,4.62,0,1,0,4.622,4.62A4.622,4.622,0,0,0,820,1566.38Zm0,7.62a3,3,0,1,1,3-3A3,3,0,0,1,820,1574Zm5.884-7.8a1.08,1.08,0,1,1-1.08-1.08A1.084,1.084,0,0,1,825.884,1566.2Z" transform="translate(-804 -1555)"/>
</svg>
