<svg id="twitter-icon" xmlns="http://www.w3.org/2000/svg" width="32" height="32" viewBox="0 0 32 32">
  <metadata><?xpacket begin="﻿" id="W5M0MpCehiHzreSzNTczkc9d"?>
<x:xmpmeta xmlns:x="adobe:ns:meta/" x:xmptk="Adobe XMP Core 5.6-c138 79.159824, 2016/09/14-01:09:01        ">
   <rdf:RDF xmlns:rdf="http://www.w3.org/1999/02/22-rdf-syntax-ns#">
      <rdf:Description rdf:about=""/>
   </rdf:RDF>
</x:xmpmeta>
                                                                                                    
                                                                                                    
                                                                                                    
                                                                                                    
                                                                                                    
                                                                                                    
                                                                                                    
                                                                                                    
                                                                                                    
                                                                                                    
                                                                                                    
                                                                                                    
                                                                                                    
                                                                                                    
                                                                                                    
                                                                                                    
                                                                                                    
                                                                                                    
                                                                                                    
                                                                                                    
                           
<?xpacket end="w"?></metadata>
<defs>
    <style>
      .cls-1 {
        fill: #1da1f2;
      }

      .cls-1, .cls-2 {
        fill-rule: evenodd;
      }

      .cls-2 {
        fill: #fff;
      }
    </style>
  </defs>
  <path class="cls-1" d="M725,1587h32v-32H725v32Z" transform="translate(-725 -1555)"/>
  <path id="Shape_619_copy" data-name="Shape 619 copy" class="cls-2" d="M738.346,1579a9.931,9.931,0,0,0,9.924-10.06c0-.15,0-0.3-0.01-0.45a7.312,7.312,0,0,0,1.74-1.83,6.759,6.759,0,0,1-2,.55,3.55,3.55,0,0,0,1.533-1.95,6.834,6.834,0,0,1-2.214.85,3.484,3.484,0,0,0-6.034,2.42,3.591,3.591,0,0,0,.09.81,9.9,9.9,0,0,1-7.189-3.69,3.559,3.559,0,0,0,1.08,4.71,3.279,3.279,0,0,1-1.58-.44c0,0.02,0,.03,0,0.05a3.518,3.518,0,0,0,2.8,3.46,3.494,3.494,0,0,1-.92.13,2.846,2.846,0,0,1-.655-0.07,3.5,3.5,0,0,0,3.258,2.46,6.927,6.927,0,0,1-4.332,1.51,5.73,5.73,0,0,1-.832-0.05,9.719,9.719,0,0,0,5.346,1.59" transform="translate(-725 -1555)"/>
</svg>
