<svg xmlns="http://www.w3.org/2000/svg" viewBox="0 0 50 50"><g fill="#ffb200"><path d="M42.73 15.11c-1.99 2.92-12.01 17.58-13.58 19.16a5.837 5.837 0 01-4.14 1.71c-1.5 0-3-.57-4.14-1.71-2.28-2.28-2.28-6 0-8.29C22.45 24.4 37.1 14.39 40.03 12.4c.78-.53 1.82-.43 2.48.23.66.66.76 1.71.23 2.48zm-9.22 6.5c-5.12 3.56-9.28 6.53-9.89 7.13-.76.76-.76 2 0 2.76.76.76 2 .76 2.76 0 .6-.61 3.57-4.77 7.13-9.89z"/><path d="M9.01 39.21L6.6 40.39a20.984 20.984 0 01-2.69-10.26c0-2.64.49-5.16 1.37-7.49l2.76 1.33c.27.13.56.19.84.19.73 0 1.43-.41 1.76-1.11.47-.97.06-2.14-.92-2.61l-2.73-1.31c3.39-5.53 9.26-9.38 16.04-10.01v2.94c0 1.08.87 1.95 1.95 1.95s1.95-.87 1.95-1.95V9.12c2.33.21 4.58.8 6.72 1.77.98.44 2.14.01 2.58-.98.44-.98.01-2.14-.98-2.58a24.86 24.86 0 00-10.28-2.2c-6.68 0-12.96 2.6-17.68 7.32-4.72 4.72-7.32 11-7.32 17.68 0 4.93 1.46 9.73 4.24 13.88a1.944 1.944 0 002.48.67l4-1.95a1.953 1.953 0 00-1.71-3.51zM47.8 19.85c-.44-.98-1.6-1.42-2.58-.98-.98.44-1.42 1.6-.98 2.58a20.98 20.98 0 011.86 8.67c0 3.6-.93 7.12-2.7 10.28l-2.52-1.2c-.97-.46-2.14-.05-2.6.92-.46.97-.05 2.14.92 2.6l4.1 1.95a1.944 1.944 0 002.46-.68C48.53 39.85 50 35.05 50 30.11c0-3.58-.74-7.04-2.2-10.28z"/></g></svg>