<svg xmlns="http://www.w3.org/2000/svg" viewBox="0 0 50 50"><path d="M42.86 10.71l-1.39 2.08c3.61 1.99 6.03 5.59 6.03 9.71 0 4.12-2.41 7.72-6.03 9.71l1.39 2.08C47.18 31.82 50 27.41 50 22.5c0-4.9-2.82-9.32-7.14-11.79z" fill="#ffb200"/><path d="M45 22.5c0 3.42-2.02 6.44-5 7.87v8.38c0 .96-.55 1.84-1.42 2.25-.34.17-.71.25-1.08.25-.56 0-1.11-.19-1.56-.55l-11.82-9.45h-2.44l3.87 9.02c.52 1.22 0 2.63-1.18 3.22l-5 2.5c-.35.18-.73.26-1.12.26a2.504 2.504 0 01-2.3-1.51l-5.78-13.48H8.75C3.93 31.26 0 27.33 0 22.51s3.93-8.75 8.75-8.75h15.37l11.82-9.45c.45-.36 1-.55 1.56-.55.37 0 .74.08 1.08.25.87.42 1.42 1.29 1.42 2.25v8.38c2.98 1.43 5 4.45 5 7.87zm-35 6.25v-12.5H8.75c-3.45 0-6.25 2.8-6.25 6.25s2.8 6.25 6.25 6.25zm8.97 2.5H12.9l5.36 12.5 5-2.5zm13.53-21l-7.5 6H12.5v12.5H25l7.5 6zm5-4l-2.5 2v28.5l2.5 2zm5 16.25c0-2.04-.99-3.83-2.5-4.97v9.95c1.51-1.14 2.5-2.93 2.5-4.97z" fill="#ffb200"/></svg>