<svg xmlns="http://www.w3.org/2000/svg" viewBox="0 0 35 35"><path fill="none" d="M-1-1h37v37H-1z"/><path stroke="null" fill="#fff" fill-rule="evenodd" d="M17.487 0C7.856 0 .046 7.811.046 17.446c0 9.634 7.81 17.446 17.441 17.446 9.633 0 17.442-7.812 17.442-17.446C34.929 7.81 27.12 0 17.487 0zm6.415 24.292l-.51.509a1.167 1.167 0 01-1.58.042l-6.572-5.75c-.448-.4-.787-1.218-.758-1.817l.61-10.372c.032-.6.548-1.089 1.148-1.089h.717c.6 0 1.115.489 1.144 1.088l.499 8.627c.03.6.38 1.454.777 1.903l4.571 5.274c.397.45.378 1.162-.046 1.585z" clip-rule="evenodd"/></svg>