<svg xmlns="http://www.w3.org/2000/svg" viewBox="0 0 50 50"><g fill="#ffb200"><path d="M50 4.38v43.33A2.31 2.31 0 0147.71 50H2.29A2.31 2.31 0 010 47.71V4.38a2.31 2.31 0 012.29-2.29H12.5c0-1.25.83-2.08 2.08-2.08s2.08.83 2.08 2.08h16.67c0-1.25.83-2.08 2.08-2.08s2.08.83 2.08 2.08H47.7a2.31 2.31 0 012.29 2.29zm-4.17 12.29H4.16v29.17h41.67zm0-10.42H37.5v2.08c0 1.25-.83 2.08-2.08 2.08s-2.08-.83-2.08-2.08V6.25H16.67v2.08c0 1.25-.83 2.08-2.08 2.08s-2.08-.83-2.08-2.08V6.25H4.18v8.33h41.67z"/><path d="M20.83 41.67h8.33c1.25 0 2.08-.83 2.08-2.08s-.83-2.08-2.08-2.08h-6.25v-4.17h6.25c1.25 0 2.08-.83 2.08-2.08v-8.33c0-1.25-.83-2.08-2.08-2.08h-8.33c-1.25 0-2.08.83-2.08 2.08s.83 2.08 2.08 2.08h6.25v4.17h-6.25c-1.25 0-2.08.83-2.08 2.08v8.33c0 1.25.83 2.08 2.08 2.08z"/></g></svg>