<svg xmlns="http://www.w3.org/2000/svg" viewBox="0 0 50 50"><g fill="#fff"><path d="M23.39.02c-.13.01-.56.05-.96.09-3.81.34-7.21 1.62-9.77 3.69-.65.52-1.74 1.63-2.25 2.26-1.15 1.45-2.19 3.45-2.76 5.35-.1.34-.21.63-.23.66-.02.02-.21.07-.42.1-.88.14-1.34.54-1.59 1.37-.13.44-.21 1.3-.2 2.02.02.62.04.72.19 1.03.87 1.77 4.88 3.3 10.58 4.03 2.71.35 5.16.49 8.46.49 2.67 0 4.05-.05 6.38-.26 7.21-.61 12.53-2.27 13.59-4.24.2-.38.26-.97.14-1.83-.13-1.03-.37-1.58-.86-1.94-.24-.19-.88-.4-1.17-.4-.13 0-.16-.05-.3-.55-.58-2-1.51-3.9-2.67-5.46-.61-.83-2.09-2.3-2.94-2.93C34.1 1.63 31.21.55 27.57.12c-.74-.09-3.64-.16-4.2-.11zm.59 25.21l.94.42.97-.43c3.63-1.62 7.38-2.94 9.81-3.46 1.59-.34 3.12-.43 3.85-.24 1.07.28 1.89 1.12 2.36 2.41.31.86.41 1.41.44 2.67.05 1.58-.11 2.81-.43 3.47-.16.31-.16.32-.74.57-7.63 3.32-24.89 3.32-32.52 0-.57-.25-.58-.26-.74-.57-.17-.35-.3-.9-.4-1.76-.09-.76-.03-2.7.09-3.28.48-2.2 1.54-3.41 3.15-3.59 2.36-.26 7.27 1.15 13.21 3.79zm-12.4.05c-.38.36-.52.67-.56 1.18-.02.38-.01.45.16.79.34.68 1.2 1.33 2.57 1.91 1.16.49 3.96 1.4 5.15 1.66 1.54.34 2.1.15 2.01-.64-.08-.61-.81-2.46-1.29-3.23-.86-1.38-2.2-2.2-4.08-2.48-1.63-.25-3.19.07-3.95.81zm22.67-.81c-1.9.32-3.25 1.17-4.07 2.57-.52.88-1.19 2.6-1.24 3.2-.03.31-.02.34.14.53l.17.2.54-.01c.84-.01 1.83-.24 4.25-1.04 2.2-.73 3.3-1.26 4.06-1.95 1.43-1.3.69-3.01-1.5-3.47-.62-.13-1.68-.14-2.36-.02z"/><path d="M40.69 33.02c.05 0-.05.78-.19 1.62-.57 3.44-2.09 6.79-4.25 9.38-2.61 3.14-6.24 5.14-9.99 5.52-.94.1-2.74.04-3.65-.12-4.85-.85-8.99-4.11-11.45-9.01-.93-1.85-1.61-3.95-1.91-5.88-.05-.34-.1-.66-.12-.71-.02-.12-.06-.13.41.05.78.3 2.09.73 2.98.98 8.77 2.49 19.85 1.88 27.38-1.48.42-.19.78-.34.79-.34zm-20.72 7.81c-.06.01-.24.05-.41.08-.48.09-.49.11-.18.51.41.54.79.9 1.23 1.18.86.56 1.76.92 2.79 1.12.76.15 2.34.14 3.1-.03 1.39-.3 2.53-.86 3.4-1.66.32-.3.82-.89.82-.97 0-.02-.15-.08-.33-.14-.27-.09-.54-.1-1.38-.1-.96.01-1.11.02-1.83.19-1.83.42-2.08.42-4.96-.1-.59-.1-1.92-.15-2.26-.08z"/></g></svg>