<svg xmlns="http://www.w3.org/2000/svg" viewBox="0 0 56 100"><path fill="none" d="M-1-1h582v402H-1z"/><path fill="#fff" d="M55.807 22.888V11.143C55.807 7.198 43.27 0 27.807 0c-15.465 0-28 7.198-28 11.143v11.745C-.193 33.586 19.19 42.425 19.19 50S-.193 66.413-.193 77.112v11.746c0 3.944 12.535 11.142 28 11.142 15.464 0 28-7.198 28-11.142V77.112c0-10.7-19.384-19.537-19.384-27.112s19.384-16.414 19.384-27.112zM7.51 11.643c3.479-2.195 10.002-5.412 20.57-5.412 10.569 0 20.03 5.412 20.03 5.412.708.43 3.49 1.918 1.587 3.045-4.193 2.483-12.392 5.099-21.89 5.099S10.384 16.904 6.19 14.42c-1.904-1.128 1.32-2.777 1.32-2.777zM30.314 50c0 5.965 4.979 9.807 10.255 14.933 3.854 3.745 9.129 8.873 9.129 12.179v6.641c-4.846-2.416-19.357-4.78-19.357-12.519 0-3.919-5.066-3.919-5.066 0 0 7.739-14.512 10.103-19.357 12.519v-6.641c0-3.307 5.275-8.434 9.129-12.179C20.319 59.807 25.3 55.965 25.3 50s-4.981-9.806-10.255-14.932c-3.854-3.746-9.13-8.874-9.13-12.18L5.68 17.89c5.13 2.762 13.263 5.397 22.127 5.397S44.84 20.652 49.97 17.89l-.273 4.998c0 3.307-5.275 8.435-9.13 12.18C35.294 40.194 30.315 44.035 30.315 50z"/></svg>