<svg xmlns="http://www.w3.org/2000/svg" viewBox="0 0 280 70"><path d="M252.3 18.5v-2h-5.6v37.1h5.6V23.4c.8-1 1.6-1.6 2.5-1.7.9-.1 1.7.1 2.4.7v-6.2c-2-.1-3.7.7-4.9 2.3m-11.1-1.3c-1-.7-2.1-1-3.5-1-2 0-3.6.8-4.8 2.3V7.2h-5.6v32.2c0 .9-.4 1.8-1.4 2-3 .5-5.3 3-5.3 6.2 0 3.4 2.8 6.2 6.2 6.2 1.5 0 3-.6 4-1.5l.1-.1c.2-.1.3-.3.4-.4.2-.2.5-.3.8-.3.4 0 .7.1 1 .3 1.2 1.4 2.8 2.1 4.7 2.1h.2c1.3 0 2.5-.3 3.4-1 .9-.6 1.6-1.4 2-2.2.3-.8.5-2 .5-3.8V23.5c0-1.9-.2-3.3-.6-4.1-.5-.8-1.1-1.5-2.1-2.2m-3 26.8v2.1c0 .7-.2 1.3-.7 1.7-.6.6-1.3.8-2.2.7-.8-.1-1.7-.7-2.4-1.8V23.5c.7-1 1.5-1.6 2.4-1.7.9-.1 1.7.1 2.2.7.5.4.7 1 .7 1.7V44z" fill="#95C11F" class="st0"/><path d="M230 47.6c0 1.8-1.4 3.2-3.2 3.2-1.8 0-3.2-1.4-3.2-3.2 0-1.8 1.4-3.2 3.2-3.2 1.7 0 3.2 1.4 3.2 3.2" fill="#FEEB17" class="st1"/><path d="M97.9 22.9c-.6-.6-1.4-.8-2.4-.6-.8.1-1.7.7-2.5 1.7v29.7h-5.4V17.1H93v2c1.2-1.5 2.8-2.3 4.8-2.3v6.1zm19.2 22.9c0 2.3-.8 4.2-2.4 5.8-1.6 1.6-3.5 2.4-5.7 2.4-2.3 0-4.3-.8-5.9-2.4-1.6-1.6-2.4-3.5-2.4-5.8V25.1c0-2.2.8-4.2 2.4-5.8 1.6-1.6 3.5-2.4 5.8-2.4s4.2.8 5.8 2.4c1.6 1.6 2.4 3.5 2.4 5.8v15.2h-10.9V46c0 .7.3 1.3.8 1.9.5.5 1.2.8 1.9.8.8 0 1.4-.3 1.9-.8s.8-1.1.8-1.9v-2h5.5v1.8zm-5.5-10.7V25c0-.7-.3-1.3-.8-1.9-.5-.5-1.2-.8-1.9-.8a2.732 2.732 0 00-2.7 2.7v10.2h5.4zM137 55.5c0 2.2-.8 4-2.4 5.3-1.6 1.3-3.5 2-5.8 2s-4.2-.7-5.8-2c-1.6-1.4-2.3-3.1-2.3-5.3h5.4c0 .7.3 1.4.8 1.9s1.1.8 1.9.8c.8 0 1.4-.3 1.9-.8s.8-1.2.8-1.9v-3.8c-1.2 1.5-2.8 2.3-4.8 2.3-1.4 0-2.6-.3-3.5-1-.9-.6-1.6-1.4-1.9-2.1-.4-.8-.5-2.1-.5-4.1V23.9c0-.9.1-2.3.5-4.1.4-.8 1-1.5 2-2.1.9-.6 2.1-1 3.5-1 2 0 3.6.8 4.8 2.3v-2h5.5v38.5zm-5.4-8.7V23.9c-.8-1-1.6-1.5-2.4-1.7-.9-.1-1.7.1-2.2.5-.5.5-.8 1.1-.8 1.8v21.6c0 .7.2 1.2.6 1.7.6.6 1.4.8 2.3.6.8-.1 1.7-.6 2.5-1.6m9.1 6.8h5.5V17.1h-5.5v36.5zm0-40.2h5.5V8h-5.5v5.4zm25.2 30.1v2.3c0 2.3-.8 4.2-2.4 5.8-1.6 1.6-3.5 2.4-5.7 2.4-2.3 0-4.2-.8-5.8-2.4-1.6-1.6-2.5-3.5-2.5-5.8l.1-2.7h5.5v2.8c0 .7.3 1.3.8 1.9.5.5 1.2.8 1.9.8s1.3-.3 1.9-.8c.5-.5.8-1.2.8-1.9v-1.2c0-.9-.1-2.1-.3-3.6-.2-.6-.8-1.4-1.9-2.4 0 0-.9-.7-2.7-2-.7-.5-1.8-1.4-3.3-2.7-.8-.8-1.5-2-2.2-3.4-.3-.5-.4-1.3-.4-2.2 0-1.3-.1-2-.1-2.2v-1.3c0-2.3.9-4.2 2.4-5.8 1.6-1.6 3.5-2.4 5.8-2.4 2.2 0 4.2.8 5.8 2.4 1.6 1.6 2.4 3.5 2.4 5.8V27h-5.4v-2c0-.7-.3-1.3-.8-1.9-.5-.5-1.2-.8-1.9-.8-.8 0-1.4.3-1.9.8s-.8 1.2-.8 1.9v.8c0 .5.1 1.4.3 2.7.3.6.9 1.4 1.9 2.4.6.4 1.5 1 2.7 2 1 .7 2 1.6 3 2.7 1.1 1.2 2 2.5 2.5 4 .2.6.3 2 .3 3.9m19.7 2.3c0 2.3-.7 4.2-2.1 5.8-1.4 1.6-3.2 2.4-5.4 2.4s-4-.8-5.5-2.4c-1.4-1.6-2.1-3.5-2.1-5.8V22.6h-2.2v-5h2.2v-5.2h5.5v5.2h9.3v5H176V46c0 1.8.7 2.7 2.1 2.7 1.4 0 2-.9 2-2.7V32.8h5.5v13zm12.9-22.9c-.6-.6-1.4-.8-2.4-.6-.9.1-1.7.7-2.5 1.7v29.7h-5.5V17.1h5.5v2c1.2-1.5 2.8-2.3 4.8-2.3v6.1zm19.3 22.9c0 2.3-.8 4.2-2.4 5.8-1.6 1.6-3.5 2.4-5.8 2.4s-4.2-.8-5.8-2.4c-1.6-1.6-2.5-3.5-2.5-5.8l.1-20.7c0-2.2.8-4.2 2.4-5.8 1.6-1.6 3.5-2.4 5.8-2.4s4.2.8 5.8 2.4c1.6 1.6 2.4 3.5 2.4 5.8v20.7zm-5.5.1V25c0-.7-.3-1.3-.8-1.9-.5-.5-1.2-.8-1.9-.8-.8 0-1.4.3-1.9.8s-.8 1.2-.8 1.9v21c0 .7.3 1.3.8 1.9.5.5 1.2.8 1.9.8s1.4-.3 1.9-.8c.5-.6.8-1.3.8-2" fill="#CFE09B" class="st2"/><path d="M54.4 32.8v1.1c0 .4-.1.6-.4.9-.3.3-.7.4-1.2.3-.4-.1-.9-.4-1.2-.9v-12c.4-.5.8-.8 1.2-.9.5-.1.9 0 1.2.3.2.2.4.5.4.9v10.3zm-5.9 3.5c-.9 0-1.7-.7-1.7-1.7 0-.9.7-1.6 1.7-1.6s1.7.7 1.7 1.6c0 1-.8 1.7-1.7 1.7M56 19.1c-.5-.3-1.1-.5-1.8-.5-1 0-1.9.4-2.5 1.2V14h-2.9v16.6c0 .5-.2.9-.7 1.1-1.5.2-2.7 1.6-2.7 3.2 0 1.8 1.4 3.2 3.2 3.2.8 0 1.5-.3 2.1-.8.1-.1.2-.1.2-.2.1-.1.2-.2.4-.2s.3 0 .5.2c.6.7 1.4 1.1 2.4 1.1h.1c.7 0 1.3-.2 1.7-.5.5-.3.8-.7 1-1.1.2-.4.3-1.1.3-2V22.3c0-1-.1-1.7-.3-2.1-.2-.4-.5-.8-1-1.1m5.7.6v-1h-2.9v19.1h2.9V22.2c.4-.5.8-.8 1.3-.9.5-.1.9 0 1.2.3v-3.2c-1.1.1-1.9.5-2.5 1.3" fill="#DADADA" class="st3"/><path d="M28.3 37.8h-2.9V22.7c0-.4-.1-.6-.4-.9-.3-.3-.7-.4-1.2-.3-.4.1-.8.4-1.2.9v15.4h-2.9v-19h2.9v1c.6-.8 1.5-1.2 2.5-1.2.7 0 1.3.2 1.8.5s.8.7 1 1.1c.2.4.3 1.1.3 2.1v15.5zm2 0h2.9v-19h-2.9v19zm0-21h2.9V14h-2.9v2.8zm13.1 16.8c0 1.2-.4 2.2-1.2 3-.8.8-1.8 1.2-3 1.2s-2.2-.4-3-1.2c-.9-.8-1.3-1.8-1.3-3V22.9c0-1.2.4-2.2 1.2-3 .8-.8 1.8-1.2 3-1.2s2.2.4 3 1.2c.8.8 1.2 1.8 1.2 3v6.7h-2.9v-6.8c0-.4-.1-.7-.4-1-.3-.3-.6-.4-1-.4s-.7.1-1 .4c-.3.3-.4.6-.4 1v11c0 .4.1.7.4 1 .3.3.6.4 1 .4s.7-.1 1-.4c.3-.3.4-.6.4-1v-1.1h2.9v.9z" fill="#9D9D9C" class="st4"/><path fill="#D5D4D4" stroke="#B2B2B2" stroke-width=".5" stroke-miterlimit="10" d="M74.2 5.8v58.4"/></svg>