<?xml version="1.0" encoding="UTF-8"?>
<svg enable-background="new 0 0 196.3 42.8" version="1.1" viewBox="0 0 196.3 42.8" xml:space="preserve" xmlns="http://www.w3.org/2000/svg">
<style type="text/css">
	.st0{fill:#FFFFFF;}
</style>
	<rect class="st0 hide" x="54.9" y="21.7" width="1.1" height="15.1"/>
	<rect class="st0 hide" x="54.9" y="15.5" width="1.1" height="2.1"/>
	<path class="st0 hide" d="m64.7 21.6c-2.1 0-3.9 1.2-4.8 3v-2.9h-1.1v0.3c0.1 1.6 0.1 3.1 0.1 4.2v10.7h1.1v-7.7c0-0.7 0-1.5 0.1-2.1 0.6-2.8 2.3-4.3 4.7-4.3 3.2 0 3.9 2.2 3.9 5.4v8.8h1.1v-9.5c-0.1-4-1.8-5.9-5.1-5.9z"/>
	<polygon class="st0 hide" points="82.2 21.7 76.8 35.1 71.3 21.7 70.2 21.7 76.4 36.9 77.1 36.9 83.4 21.7"/>
	<path class="st0 hide" d="m89.3 21.5c-4.7 0-6.4 4.3-6.4 8 0 4.8 2.4 7.6 6.3 7.6 2.9 0 4.8-1.5 5.5-4.7l0.1-0.3h-1.1l-0.1 0.2c-0.8 2.7-2.1 3.8-4.5 3.8-3.8 0-5.2-3.4-5.2-6.4v-0.2h10.9v-1.1c0.1-3.3-1.4-6.9-5.5-6.9zm4.5 6.9h-9.8c0.3-2.3 1.4-5.8 5.3-5.8 3.7 0 4.4 3.5 4.5 5.6v0.2z"/>
	<path class="st0 hide" d="m101.2 28.7c-2-0.6-4-1.1-4-3.2 0-2.2 2-3 3.7-3 1.6 0 3.5 0.6 3.5 3.2v0.3h1.1v-0.2c0-2.8-1.7-4.3-4.6-4.3-2.3 0-4.8 1.3-4.8 4.1 0 2.9 2.5 3.6 4.8 4.2 2 0.6 3.8 1 3.8 2.9 0 3.2-3.1 3.4-4 3.4-2.5 0-3.8-1.2-3.8-3.5v-0.2h-1.1v0.2c0 2.9 1.8 4.6 4.9 4.6s5.1-1.8 5.1-4.5-2.4-3.4-4.6-4z"/>
	<path class="st0 hide" d="m112.4 35.8c-0.2 0-0.5 0.1-0.8 0.1-1.5 0-1.8-0.8-1.8-2.4v-10.7h3.2v-1.1h-3.2v-3.8l-1.1 0.7v3.2h-3v1.1h3v11.1c0 2.5 1.4 3 2.6 3 0.5 0 0.9 0 1.6-0.1h0.2v-1h-0.3c-0.1-0.1-0.2-0.1-0.4-0.1z"/>
	<rect class="st0 hide" x="114.5" y="21.7" width="1.1" height="15.1"/>
	<rect class="st0 hide" x="114.5" y="15.5" width="1.1" height="2.1"/>
	<path class="st0 hide" d="m133.4 21.6c-2.8 0-4.3 1.8-4.8 3.3-0.5-1.8-2-3.3-4.5-3.3-2.3 0-3.8 1.3-4.6 2.8v-2.7h-1.1v0.3 2.1 2.1 10.7h1.1v-8.1c0-0.7 0-1.5 0.2-2.3 0.3-1.1 1.3-3.8 4.3-3.8 3.3 0 3.8 3.2 3.8 5v9.1h1.1v-8.4c0-0.9 0.1-1.7 0.2-2.3 0.4-1.6 1.4-3.5 4.2-3.5 2.6 0 3.9 1.6 3.9 4.8v9.4h1.1v-8.7c0-1.2 0-2.7-0.6-4.1-0.8-1.5-2.2-2.4-4.3-2.4z"/>
	<path class="st0 hide" d="m146.6 21.5c-4.7 0-6.4 4.3-6.4 8 0 4.8 2.4 7.6 6.3 7.6 2.9 0 4.8-1.5 5.5-4.7l0.1-0.3h-1.1v0.2c-0.8 2.7-2.1 3.8-4.5 3.8-3.8 0-5.2-3.4-5.2-6.4v-0.2h10.9v-1.1c0-3.3-1.5-6.9-5.6-6.9zm4.5 6.9h-9.8c0.3-2.3 1.3-5.8 5.3-5.8 3.7 0 4.4 3.5 4.5 5.6v0.2z"/>
	<path class="st0 hide" d="m160 21.6c-2.1 0-3.9 1.2-4.8 3v-2.9h-1.1v0.3c0.1 1.6 0.1 3.1 0.1 4.2v10.7h1.1v-7.7c0-0.7 0-1.5 0.1-2.1 0.6-2.8 2.3-4.3 4.7-4.3 3.2 0 3.9 2.2 3.9 5.4v8.8h1.1v-9.5c-0.1-4-1.8-5.9-5.1-5.9z"/>
	<path class="st0 hide" d="m172 35.8c-0.2 0-0.5 0.1-0.8 0.1-1.5 0-1.8-0.8-1.8-2.4v-10.7h3.2v-1.1h-3.2v-3.8l-1.1 0.7v3.2h-3v1.1h3v11.1c0 2.5 1.4 3 2.6 3 0.5 0 0.9 0 1.6-0.1h0.2v-1h-0.3c0-0.1-0.2-0.1-0.4-0.1z"/>
	<path class="st0 hide" d="m178.9 21.5c-4.9 0-6.6 4.1-6.6 7.7 0 3.7 1.7 8 6.6 8 4.3 0 6.5-4 6.5-8 0.1-4.7-2.4-7.7-6.5-7.7zm0 14.6c-3.8 0-5.5-3.5-5.5-6.9 0-3.3 1.7-6.6 5.5-6.6 4 0 5.4 3.6 5.4 6.6 0.1 3.3-1.6 6.9-5.4 6.9z"/>
	<path class="st0 hide" d="m191.7 28.7c-2-0.6-4-1.1-4-3.2 0-2.2 2-3 3.7-3 1.6 0 3.5 0.6 3.5 3.2v0.3h1.1v-0.2c0-2.8-1.7-4.3-4.6-4.3-2.3 0-4.8 1.3-4.8 4.1 0 2.9 2.5 3.6 4.8 4.2 2 0.6 3.8 1 3.8 2.9 0 3.2-3.1 3.4-4 3.4-2.5 0-3.8-1.2-3.8-3.5v-0.2h-1.1v0.2c0 2.9 1.8 4.6 4.9 4.6s5.1-1.8 5.1-4.5-2.5-3.4-4.6-4z"/>
	<path class="st0" d="m40 36.9c-1.2 0-2.4-0.3-3.4-0.8v6.7h5.7c2.9 0 5.2-2.3 5.2-5.2v-5c-1.6 2.6-4.3 4.3-7.5 4.3z"/>
	<path class="st0" d="M30.7,33.4V21c-1.7,2.3-4,5.4-4.6,6.2C26.7,28,28.9,31,30.7,33.4z"/>
	<path class="st0" d="m42.3 0h-37.1c-2.9 0-5.2 2.3-5.2 5.2v32.4c0 2.9 2.3 5.2 5.2 5.2h25.5v-6.2h-4.7s-2.3-3.1-3.3-4.6c-1.1 1.5-3.3 4.6-3.3 4.6h-7s6-8.1 6.9-9.4c-0.9-1.3-6.5-8.9-6.5-8.9h7s2 2.7 3 4.1c1-1.4 3-4.1 3-4.1h8.2s0.6 1.1 0.8 1.6c1.5-1.2 3.4-1.9 5.3-1.9 3.1 0 5.9 1.7 7.5 4.3v-17.1c-0.1-2.9-2.4-5.2-5.3-5.2z"/>
	<path class="st0" d="m42.9 27.5c0-2.1-1.4-3.8-3.1-3.8-1.8 0-3.2 1.7-3.2 3.8s1.4 3.8 3.2 3.8c1.7 0 3.1-1.7 3.1-3.8z"/>
</svg>
