<svg xmlns="http://www.w3.org/2000/svg" width="364" height="120" viewBox="0 0 364 120"><defs><style>.a{opacity:.3}.b{fill:#a6a6a6}.c,.d,.k{fill:#fff}.c{stroke:#fff;stroke-miterlimit:10;stroke-width:.23333px}.e{fill:url(#a)}.f{fill:url(#b)}.g{fill:url(#c)}.h{fill:url(#d)}.i{opacity:.2}.i,.j,.k{isolation:isolate}.j{opacity:.12}.k{opacity:.25}</style><linearGradient id="a" x1="70.319" y1="-144.586" x2="32.912" y2="-181.993" gradientTransform="matrix(1 0 0 -1 0 -112)" gradientUnits="userSpaceOnUse"><stop offset="0" stop-color="#00a0ff"/><stop offset=".007" stop-color="#00a1ff"/><stop offset=".26" stop-color="#00beff"/><stop offset=".512" stop-color="#00d2ff"/><stop offset=".76" stop-color="#00dfff"/><stop offset="1" stop-color="#00e3ff"/></linearGradient><linearGradient id="b" x1="97.143" y1="-169.754" x2="43.21" y2="-169.754" gradientTransform="matrix(1 0 0 -1 0 -112)" gradientUnits="userSpaceOnUse"><stop offset="0" stop-color="#ffe000"/><stop offset=".409" stop-color="#ffbd00"/><stop offset=".775" stop-color="orange"/><stop offset="1" stop-color="#ff9c00"/></linearGradient><linearGradient id="c" x1="77.066" y1="-174.869" x2="26.34" y2="-225.595" gradientTransform="matrix(1 0 0 -1 0 -112)" gradientUnits="userSpaceOnUse"><stop offset="0" stop-color="#ff3a44"/><stop offset="1" stop-color="#c31162"/></linearGradient><linearGradient id="d" x1="37.994" y1="-125.566" x2="60.646" y2="-148.217" gradientTransform="matrix(1 0 0 -1 0 -112)" gradientUnits="userSpaceOnUse"><stop offset="0" stop-color="#32a071"/><stop offset=".069" stop-color="#2da771"/><stop offset=".476" stop-color="#15cf74"/><stop offset=".801" stop-color="#06e775"/><stop offset="1" stop-color="#00f076"/></linearGradient></defs><title>app_badge_google</title><g class="a"><path d="M24.969 113A11 11 0 0 1 14 101.994V22.017A11.006 11.006 0 0 1 24.97 11H341.04a11 11 0 0 1 10.956 11.017l.004 80.131A10.996 10.996 0 0 1 341.043 113z"/><path d="M341.04 12a9.984 9.984 0 0 1 9.956 10.018l.004 79.984a9.98 9.98 0 0 1-9.956 9.998H24.969A9.992 9.992 0 0 1 15 101.994V22.018A10 10 0 0 1 24.97 12H341.04m0-2H24.97A12.007 12.007 0 0 0 13 22.018v79.976A12.001 12.001 0 0 0 24.97 114h316.075a11.997 11.997 0 0 0 11.955-11.852v-.154l-.003-79.976A12 12 0 0 0 341.04 10z"/></g><path d="M22.969 110A11 11 0 0 1 12 98.994V19.017A11.006 11.006 0 0 1 22.97 8H339.04a11 11 0 0 1 10.956 11.017L350 99.148A10.996 10.996 0 0 1 339.043 110z"/><path class="b" d="M339.04 9a9.984 9.984 0 0 1 9.956 10.018L349 99.002a9.98 9.98 0 0 1-9.956 9.998H22.969A9.992 9.992 0 0 1 13 98.994V19.018A10 10 0 0 1 22.97 9H339.04m0-2H22.97A12.007 12.007 0 0 0 11 19.018v79.976A12.001 12.001 0 0 0 22.97 111h316.075a11.997 11.997 0 0 0 11.955-11.852v-.154l-.003-79.976A12 12 0 0 0 339.04 7z"/><path class="c" d="M125.905 36.194a6.037 6.037 0 0 1-1.662 4.466 6.486 6.486 0 0 1-4.915 1.98 6.89 6.89 0 0 1-6.95-6.988 6.891 6.891 0 0 1 6.95-6.99 6.901 6.901 0 0 1 2.746.562 5.519 5.519 0 0 1 2.093 1.494l-1.176 1.177a4.518 4.518 0 0 0-3.663-1.587 5.172 5.172 0 0 0-5.195 5.344 5.26 5.26 0 0 0 8.932 3.85 4.21 4.21 0 0 0 1.121-2.71h-4.858v-1.607h6.483a5.67 5.67 0 0 1 .094 1.009zM136.182 30.606h-6.092v4.242h5.494v1.607h-5.494v4.242h6.092v1.644h-7.81V28.962h7.81zM143.432 42.341h-1.72V30.606h-3.737v-1.644h9.193v1.644h-3.736zM153.82 42.341V28.962h1.719v13.38zM163.165 42.341h-1.72V30.606h-3.737v-1.644h9.194v1.644h-3.737zM184.306 40.612a6.947 6.947 0 0 1-9.81 0 7.228 7.228 0 0 1 0-9.92 6.923 6.923 0 0 1 9.801.008 7.206 7.206 0 0 1 .009 9.912zm-8.54-1.12a5.144 5.144 0 0 0 7.268 0 5.236 5.236 0 0 0 1.487-3.84 5.236 5.236 0 0 0-1.487-3.84 5.144 5.144 0 0 0-7.269 0 5.243 5.243 0 0 0-1.485 3.84 5.243 5.243 0 0 0 1.485 3.84zM188.69 42.341V28.962h2.092l6.502 10.408h.074l-.074-2.578v-7.83h1.72v13.38h-1.794l-6.803-10.913h-.074l.074 2.579v8.333z"/><path class="d" d="M172.1 61.856a9.484 9.484 0 1 0 9.52 9.483 9.348 9.348 0 0 0-9.52-9.483zm0 15.231a5.762 5.762 0 1 1 5.353-5.748 5.487 5.487 0 0 1-5.352 5.748zm-20.766-15.231a9.484 9.484 0 1 0 9.52 9.483 9.348 9.348 0 0 0-9.52-9.483zm0 15.231a5.762 5.762 0 1 1 5.352-5.748 5.487 5.487 0 0 1-5.352 5.748zM126.63 64.766v4.023h9.627a8.397 8.397 0 0 1-2.191 5.065 9.856 9.856 0 0 1-7.436 2.946 10.706 10.706 0 0 1 0-21.41 10.261 10.261 0 0 1 7.256 2.873l2.838-2.838a14.035 14.035 0 0 0-10.094-4.059 14.73 14.73 0 1 0 0 29.457 13.465 13.465 0 0 0 10.274-4.13 13.294 13.294 0 0 0 3.485-9.413 13.093 13.093 0 0 0-.216-2.514zm101.03 3.125c-.79-2.12-3.198-6.035-8.12-6.035-4.885 0-8.944 3.844-8.944 9.483a9.28 9.28 0 0 0 9.412 9.484 9.433 9.433 0 0 0 7.903-4.203l-3.233-2.155a5.416 5.416 0 0 1-4.67 2.622 4.824 4.824 0 0 1-4.598-2.874l12.68-5.244zm-12.933 3.161a5.202 5.202 0 0 1 4.957-5.532 3.672 3.672 0 0 1 3.52 2.012zm-10.31 9.196h4.167V52.372h-4.167zm-6.826-16.273h-.143a6.572 6.572 0 0 0-4.994-2.12 9.492 9.492 0 0 0 0 18.968 6.466 6.466 0 0 0 4.994-2.155h.143v1.365c0 3.628-1.94 5.568-5.065 5.568a5.247 5.247 0 0 1-4.778-3.377l-3.628 1.51a9.038 9.038 0 0 0 8.406 5.603c4.886 0 9.017-2.874 9.017-9.879V62.43h-3.952zm-4.777 13.112a5.768 5.768 0 0 1 0-11.495c2.838 0 5.065 2.443 5.065 5.783 0 3.305-2.227 5.712-5.065 5.712zm54.365-24.715h-9.97V80.25h4.16V69.687h5.81c4.612 0 9.145-3.339 9.145-8.657s-4.533-8.657-9.145-8.657zm.108 13.436h-5.918v-9.556h5.918a4.779 4.779 0 1 1 0 9.556zM273 61.804c-3.012 0-6.132 1.327-7.423 4.268l3.694 1.542a3.942 3.942 0 0 1 3.8-2.044c2.153 0 4.34 1.291 4.376 3.586v.287a9.204 9.204 0 0 0-4.34-1.076c-3.98 0-8.032 2.188-8.032 6.276 0 3.73 3.263 6.133 6.921 6.133a5.87 5.87 0 0 0 5.308-2.726h.143v2.152h4.017V69.515c0-4.95-3.694-7.71-8.464-7.71zm-.502 15.278c-1.363 0-3.263-.681-3.263-2.367 0-2.152 2.367-2.977 4.41-2.977a7.413 7.413 0 0 1 3.802.933 5.044 5.044 0 0 1-4.949 4.41zm23.598-14.668l-4.77 12.086h-.143l-4.95-12.086h-4.482l7.423 16.891-4.231 9.397h4.339l11.44-26.288zM258.62 80.248h4.16V52.372h-4.16z"/><path class="e" d="M44.989 29.974a4.463 4.463 0 0 0-1.032 3.131V82.4a4.461 4.461 0 0 0 1.032 3.132l.165.16L72.768 58.08v-.652L45.154 29.812z"/><path class="f" d="M81.972 67.287l-9.204-9.208v-.652l9.206-9.206.208.118 10.905 6.197c3.115 1.77 3.115 4.665 0 6.436L82.181 67.17z"/><path class="g" d="M82.181 67.168l-9.413-9.415-27.78 27.779c1.028 1.087 2.723 1.221 4.633.137l32.56-18.501"/><path class="h" d="M82.181 48.338l-32.56-18.5c-1.91-1.086-3.605-.951-4.632.136l27.779 27.779z"/><path class="i" d="M81.974 66.96L49.621 85.343c-1.81 1.028-3.428.96-4.466.024l-.166.166.165.16c1.038.936 2.657 1.005 4.467-.025l32.56-18.5z"/><path class="j" d="M44.989 85.207a4.464 4.464 0 0 1-1.032-3.131v.325a4.464 4.464 0 0 0 1.032 3.132l.166-.166zM93.087 60.645L81.974 66.96l.208.208 10.905-6.197c1.557-.885 2.337-2.051 2.337-3.217a4.15 4.15 0 0 1-2.337 2.891z"/><path class="k" d="M49.62 30.164L93.088 54.86a4.149 4.149 0 0 1 2.337 2.893c0-1.166-.779-2.333-2.337-3.218L49.621 29.838c-3.116-1.77-5.664-.3-5.664 3.269v.325c0-3.568 2.548-5.038 5.664-3.268z"/></svg>