<?xml version="1.0" encoding="utf-8"?>
<!-- Generator: Adobe Illustrator 25.0.1, SVG Export Plug-In . SVG Version: 6.00 Build 0)  -->
<svg version="1.1" id="Layer_1" xmlns="http://www.w3.org/2000/svg" xmlns:xlink="http://www.w3.org/1999/xlink" x="0px" y="0px"
	 viewBox="0 0 48 48" style="enable-background:new 0 0 48 48;" xml:space="preserve">
<style type="text/css">
	.st0{fill:#FFFFFF;}
</style>
<path class="st0" d="M43.2,12.4c-0.5-1.7-1.8-3.1-3.5-3.5C36.5,8,24,8,24,8S11.5,8,8.4,8.8c-1.7,0.5-3.1,1.8-3.5,3.5
	C4,15.5,4,24,4,24s0,8.5,0.8,11.6c0.5,1.7,1.8,3.1,3.5,3.5C11.5,40,24,40,24,40s12.5,0,15.6-0.8c1.7-0.5,3.1-1.8,3.5-3.5
	C44,32.5,44,24,44,24S44,15.5,43.2,12.4z M20,30.9V17.1L32,24L20,30.9z"/>
</svg>
