<svg width="200" height="44" viewBox="0 0 200 44" fill="none" xmlns="http://www.w3.org/2000/svg">
<path d="M99.2326 17.075C99.3497 16.9586 99.4893 16.8668 99.6432 16.8052C99.797 16.7437 99.962 16.7135 100.128 16.7167C100.293 16.7163 100.456 16.7481 100.608 16.8103C100.761 16.8724 100.899 16.9638 101.016 17.0791C101.132 17.1943 101.225 17.3313 101.288 17.482C101.35 17.6327 101.383 17.7942 101.382 17.9572V25.8432C101.383 26.0062 101.35 26.1677 101.288 26.3184C101.225 26.4691 101.132 26.606 101.016 26.7213C100.899 26.8366 100.761 26.9279 100.608 26.9901C100.456 27.0523 100.293 27.0841 100.128 27.0837C99.962 27.0868 99.797 27.0567 99.6432 26.9951C99.4893 26.9336 99.3497 26.8418 99.2326 26.7254C99.1144 26.6116 99.0213 26.4749 98.9589 26.3238C98.8966 26.1728 98.8664 26.0107 98.8703 25.8476V17.9604C98.8664 17.7974 98.8966 17.6352 98.9589 17.4842C99.0213 17.3331 99.1144 17.1964 99.2326 17.0826V17.075ZM89.2117 16.953V21.5631H90.5331C90.698 21.5667 90.8619 21.5368 91.0146 21.4751C91.1672 21.4135 91.3055 21.3215 91.4207 21.2048C91.5384 21.0891 91.6312 20.951 91.6935 20.7988C91.7558 20.6466 91.7862 20.4835 91.783 20.3194V18.2077C91.8082 18.0385 91.7933 17.8659 91.7394 17.7034C91.6854 17.541 91.594 17.3932 91.4723 17.2718C91.3506 17.1504 91.2019 17.0586 91.0382 17.0039C90.8744 16.9491 90.7 16.9328 90.5287 16.9563L89.2117 16.953ZM79.563 16.953V26.99H80.8844C81.0484 26.9945 81.2116 26.9649 81.3633 26.9032C81.515 26.8415 81.652 26.749 81.7654 26.6317C81.8814 26.5163 81.9731 26.3793 82.0353 26.2286C82.0974 26.078 82.1288 25.9166 82.1277 25.7539V18.2251C82.1309 18.061 82.1004 17.8979 82.0382 17.7457C81.9759 17.5935 81.8831 17.4554 81.7654 17.3397C81.6514 17.2231 81.5143 17.1311 81.3627 17.0695C81.2111 17.0078 81.0483 16.9778 80.8844 16.9814L79.563 16.953ZM59.5641 23.7053H61.1916L60.3801 18.028L59.5641 23.7053ZM113.603 16.9411V26.978H114.925C115.089 26.9825 115.252 26.9529 115.404 26.8912C115.555 26.8295 115.692 26.737 115.806 26.6197C115.922 26.5043 116.013 26.3673 116.076 26.2166C116.138 26.066 116.169 25.9046 116.168 25.7419V18.2109C116.171 18.0468 116.141 17.8837 116.078 17.7315C116.016 17.5794 115.923 17.4412 115.806 17.3255C115.692 17.209 115.555 17.117 115.403 17.0553C115.251 16.9937 115.089 16.9637 114.925 16.9672L113.603 16.9411ZM56.4047 29.1257H58.6919L59.2249 25.8171H61.5187L62.033 29.1257H64.3455L61.9063 14.7335H58.8835L56.4047 29.1257ZM87.0181 29.1257H89.215V23.7097H90.6653L91.9955 29.1333H94.3697L92.7422 22.8461C93.116 22.5256 93.4148 22.1283 93.6175 21.682C93.8202 21.2356 93.9221 20.7509 93.916 20.2617V18.1717C93.9703 17.2959 93.7024 16.4301 93.1617 15.7344C92.8158 15.3797 92.3941 15.1059 91.9276 14.933C91.461 14.76 90.9613 14.6922 90.4649 14.7346H87.0038L87.0181 29.1257ZM106.434 29.1257H108.631V14.7346H106.434V29.1257ZM72.3909 24.4089L69.487 14.7302H67.0225V29.1388H69.2194V19.9066L72.2422 29.1366H74.6021V14.7237H72.4052L72.3909 24.4089ZM77.3672 29.1366H80.8283C81.2833 29.1434 81.7348 29.0571 82.1546 28.8832C82.5743 28.7093 82.9532 28.4515 83.2674 28.1259C83.5941 27.8086 83.8522 27.4289 84.026 27.0099C84.1998 26.5909 84.2856 26.1414 84.2783 25.6886V18.1608C84.2852 17.7103 84.1998 17.263 84.0272 16.846C83.8546 16.4289 83.5984 16.0508 83.274 15.7344C82.9589 15.4079 82.5787 15.1495 82.1576 14.9756C81.7365 14.8016 81.2835 14.7159 80.8272 14.7237H77.3771L77.3672 29.1366ZM111.411 29.1366H114.861C115.316 29.1434 115.767 29.0571 116.187 28.8832C116.607 28.7093 116.986 28.4515 117.3 28.1259C117.627 27.8086 117.885 27.4289 118.059 27.0099C118.232 26.5909 118.318 26.1414 118.311 25.6886V18.1608C118.318 17.7103 118.232 17.263 118.06 16.846C117.887 16.4289 117.631 16.0508 117.307 15.7344C116.991 15.4079 116.611 15.1495 116.19 14.9756C115.769 14.8016 115.316 14.7159 114.86 14.7237H111.41L111.411 29.1366ZM97.7251 28.298C98.0433 28.6253 98.4264 28.8841 98.8505 29.058C99.2747 29.2319 99.7305 29.3173 100.19 29.3087C101.112 29.3058 101.996 28.9411 102.647 28.2947C103.297 27.6483 103.663 26.7729 103.662 25.8606V17.9996C103.662 17.0865 103.295 16.2107 102.642 15.565C101.989 14.9193 101.104 14.5565 100.18 14.5565C99.2569 14.5565 98.3714 14.9193 97.7185 15.565C97.0656 16.2107 96.6988 17.0865 96.6988 17.9996V25.8606C96.6914 26.3135 96.7772 26.763 96.951 27.182C97.1248 27.6011 97.3829 27.9807 97.7097 28.298H97.7251ZM121.61 12.49C122.148 12.49 122.665 12.7015 123.045 13.0779C123.426 13.4543 123.64 13.9648 123.64 14.4972V29.362C123.64 29.6256 123.587 29.8866 123.485 30.1301C123.383 30.3737 123.234 30.5949 123.045 30.7813C122.857 30.9677 122.633 31.1155 122.387 31.2164C122.141 31.3173 121.877 31.3692 121.61 31.3692H53.1264C52.8599 31.3692 52.596 31.3173 52.3498 31.2164C52.1036 31.1155 51.8798 30.9677 51.6914 30.7813C51.5029 30.5949 51.3534 30.3737 51.2514 30.1301C51.1494 29.8866 51.0969 29.6256 51.0969 29.362V14.483C51.0969 13.9507 51.3108 13.4401 51.6914 13.0637C52.072 12.6873 52.5882 12.4758 53.1264 12.4758L121.61 12.49Z" fill="#B8C3C9"/>
<path d="M131.465 23.5779H133.092L132.292 17.9038L131.465 23.5779ZM133.799 14.6181L136.233 29.0114H133.92L133.406 25.7027H131.112L130.579 29.0114H128.304L130.78 14.6181H133.799ZM142.092 14.6181V25.7267C142.093 25.8897 142.061 26.0512 141.998 26.2019C141.935 26.3526 141.842 26.4895 141.726 26.6048C141.609 26.7201 141.471 26.8114 141.318 26.8736C141.166 26.9358 141.003 26.9676 140.838 26.9672C140.672 26.9703 140.507 26.9402 140.353 26.8786C140.199 26.817 140.06 26.7253 139.943 26.6088C139.824 26.495 139.731 26.3583 139.669 26.2073C139.607 26.0563 139.576 25.8941 139.58 25.731V14.6181H137.431V25.7376C137.429 26.1884 137.518 26.6351 137.692 27.0517C137.866 27.4684 138.122 27.8468 138.445 28.1651C138.768 28.4834 139.151 28.7352 139.573 28.9061C139.995 29.077 140.447 29.1634 140.903 29.1606C141.36 29.1682 141.814 29.0846 142.237 28.9146C142.661 28.7447 143.045 28.492 143.367 28.1717C143.699 27.8578 143.962 27.479 144.138 27.0594C144.314 26.6397 144.399 26.1885 144.389 25.7343V14.6017L142.092 14.6181ZM145.808 14.6181V16.7962H148.142V28.9939H150.339V16.7886H152.663V14.6017L145.808 14.6181ZM158.946 14.6181V20.7169H156.297V14.6017H154.1V29.0016H156.297V22.9027H158.946V29.0016H161.143V14.6017L158.946 14.6181ZM165.275 26.5827C165.392 26.6991 165.531 26.7909 165.685 26.8525C165.839 26.9141 166.004 26.9442 166.17 26.941C166.335 26.9414 166.498 26.9097 166.65 26.8475C166.803 26.7853 166.941 26.6939 167.058 26.5787C167.174 26.4634 167.267 26.3265 167.33 26.1758C167.393 26.0251 167.425 25.8636 167.424 25.7006V17.8134C167.425 17.6504 167.393 17.4889 167.33 17.3382C167.267 17.1875 167.174 17.0506 167.058 16.9353C166.941 16.8201 166.803 16.7287 166.65 16.6665C166.498 16.6043 166.335 16.5725 166.17 16.573C166.004 16.5698 165.839 16.5999 165.685 16.6615C165.531 16.7231 165.392 16.8148 165.275 16.9313C165.157 17.0451 165.063 17.1818 165.001 17.3328C164.939 17.4839 164.909 17.646 164.912 17.8091V25.6951C164.908 25.8582 164.939 26.0203 165.001 26.1714C165.063 26.3224 165.157 26.4591 165.275 26.5729V26.5827ZM163.774 15.424C164.261 14.944 164.881 14.6176 165.556 14.4859C166.231 14.3543 166.93 14.4233 167.565 14.6843C168.2 14.9454 168.743 15.3867 169.124 15.9525C169.506 16.5183 169.709 17.1833 169.709 17.8635V25.7267C169.717 26.1837 169.634 26.6378 169.462 27.0624C169.291 27.487 169.036 27.8736 168.712 28.1997C168.388 28.5258 168.002 28.7848 167.576 28.9616C167.15 29.1384 166.692 29.2294 166.23 29.2294C165.768 29.2294 165.31 29.1384 164.884 28.9616C164.458 28.7848 164.072 28.5258 163.748 28.1997C163.424 27.8736 163.169 27.487 162.998 27.0624C162.826 26.6378 162.743 26.1837 162.751 25.7267V17.8679C162.743 17.4135 162.83 16.9624 163.005 16.5426C163.181 16.1227 163.442 15.7431 163.773 15.4273L163.774 15.424ZM173.519 21.4281H174.841C175.006 21.4319 175.17 21.402 175.322 21.3404C175.475 21.2787 175.613 21.1866 175.728 21.0698C175.846 20.954 175.939 20.8159 176.001 20.6637C176.063 20.5116 176.094 20.3485 176.091 20.1844V18.0683C176.116 17.8991 176.101 17.7265 176.047 17.5641C175.993 17.4016 175.902 17.2538 175.78 17.1324C175.658 17.011 175.51 16.9192 175.346 16.8645C175.182 16.8097 175.008 16.7934 174.836 16.8169H173.515L173.519 21.4281ZM174.784 14.6181C175.28 14.5762 175.78 14.6442 176.246 14.8171C176.712 14.9901 177.134 15.2636 177.48 15.6178C178.021 16.3126 178.289 17.1771 178.235 18.0519V20.1397C178.242 20.629 178.141 21.114 177.94 21.5609C177.738 22.0078 177.441 22.4059 177.067 22.7274L178.684 29.0005H176.31L174.988 23.5768H173.538V29.0005H171.327V14.6017L174.784 14.6181ZM180.246 29.0026H182.442V14.6017H180.246V29.0026ZM183.87 14.6072V16.7853H186.204V29.0016H188.401V16.7886H190.725V14.6017L183.87 14.6072ZM197.566 14.6072L195.95 19.776L194.336 14.593H191.914L194.853 22.9702V29.0026H197.05V22.968L200 14.5908L197.566 14.6072Z" fill="#B8C3C9"/>
<path d="M34.2312 20.3322C33.7365 20.5489 33.1902 20.6244 32.6543 20.55C31.3329 20.3322 29.3507 17.4276 29.6491 15.8615C29.8595 14.7507 31.8515 14.7648 31.8515 14.7648C30.7814 13.1266 29.2503 11.8335 27.4467 11.0445L28.2264 8.07241L28.0128 7.93627L26.4579 10.6503C25.0466 10.1791 23.5617 9.96073 22.0729 10.0055C21.2261 10.0213 20.3833 10.1234 19.5577 10.3105L16.7332 6.81888L16.5129 7.03669L18.1504 10.7178C16.0304 11.5273 14.2121 12.9597 12.9401 14.8221C11.668 16.6845 11.0034 18.8876 11.0355 21.1348C19.941 19.4686 32.0211 22.3143 34.4273 23.6397C34.5476 22.5341 34.4814 21.4164 34.2312 20.3322ZM22.3691 19.7049C19.1073 19.3281 18.7263 17.2599 18.745 16.2198C18.799 13.6431 20.3396 13.3773 22.0068 13.3741C24.0991 13.3741 26.9721 13.8935 27.7331 15.3954C28.5336 16.992 24.8556 19.9957 22.3691 19.7049Z" fill="#B8C3C9"/>
<path d="M22.024 43.7086C17.6681 43.7086 13.41 42.4312 9.78814 40.0378C6.16631 37.6444 3.34343 34.2426 1.67649 30.2625C0.00954266 26.2824 -0.426606 21.9029 0.423195 17.6776C1.273 13.4524 3.37058 9.5713 6.4507 6.52509C9.53081 3.47887 13.4551 1.40437 17.7274 0.563923C21.9996 -0.276525 26.4279 0.154823 30.4523 1.80342C34.4766 3.45202 37.9163 6.24383 40.3363 9.8258C42.7564 13.4078 44.048 17.619 44.048 21.927C44.048 27.7039 41.7277 33.2441 37.5974 37.329C33.4671 41.4138 27.8652 43.7086 22.024 43.7086ZM12.622 39.3861C12.982 39.5862 13.3521 39.7679 13.7309 39.9306L13.8102 39.9698L13.9919 40.0482L14.1692 40.1234L14.3255 40.1876L14.4125 40.1702C16.5607 39.7201 18.7349 39.4019 20.9228 39.2173L21.3633 39.1813C22.8477 39.0629 24.3362 39.0008 25.8254 38.9951H26.2659C27.2812 38.9951 28.2987 39.0234 29.2887 39.0703C29.608 39.0703 29.9307 39.1029 30.2522 39.1236C30.7202 39.1519 31.1904 39.1879 31.6617 39.2325H31.7311L31.7928 39.2075L31.8655 39.1715L32.2971 38.9243C32.4535 38.835 32.6088 38.7381 32.7651 38.6379C32.9215 38.5377 33.1098 38.4201 33.2761 38.3046L33.3961 38.2262L34.0304 37.7906L33.2596 37.7122C31.0006 37.4758 28.7312 37.3497 26.4597 37.3343H26.0192C24.5194 37.3347 23.0203 37.3932 21.5252 37.5096C21.0979 37.5379 20.6663 37.5739 20.239 37.6185L19.9163 37.6544C17.5984 37.8883 15.298 38.2691 13.0294 38.7947C13.1016 37.6295 12.7648 36.4754 12.0758 35.5275L14.102 34.972L14.2121 34.9187C14.7274 34.6306 15.1563 34.2128 15.4554 33.7076C16.1127 32.5585 16.3463 31.2192 16.1161 29.9187C16.0193 28.686 15.5954 27.5004 14.8871 26.4816C14.6296 26.1139 14.2886 25.8109 13.8914 25.5968C13.4943 25.3828 13.052 25.2635 12.6 25.2487C12.5094 25.2439 12.4186 25.2439 12.328 25.2487L11.8875 25.3097V25.1594C14.5057 24.5923 17.1814 24.3266 19.8613 24.3677C24.6812 24.3341 29.4763 25.0541 34.069 26.5012C34.6694 29.6777 35.0783 32.8867 35.2935 36.1112L35.3331 36.6884L35.7604 36.2909C36.0754 35.9969 36.3837 35.6919 36.6777 35.3772L36.7614 35.2879V35.1692C36.6011 33.0733 36.3594 30.9844 36.0368 28.9069C37.0943 29.3239 38.0934 29.8729 39.0101 30.5406C39.173 30.6593 39.3294 30.7769 39.4737 30.8989L39.7424 31.1102L39.8943 30.8096C41.3098 28.0581 42.0461 25.0141 42.0428 21.927C42.0436 18.9577 41.3687 16.0263 40.0679 13.3501C38.7671 10.674 36.8739 8.32172 34.5286 6.46782C32.1834 4.61391 29.4462 3.30591 26.5201 2.64079C23.5941 1.97567 20.5542 1.9705 17.6258 2.62567C14.6974 3.28084 11.9558 4.57953 9.60406 6.42546C7.25237 8.27138 5.35099 10.6172 4.04091 13.2889C2.73084 15.9606 2.04567 18.8897 2.03623 21.859C2.02679 24.8283 2.6933 27.7616 3.98636 30.4415L4.13832 30.7573L4.41362 30.5395C6.73286 28.6109 9.53024 27.3289 12.5174 26.8257H12.6154C13.34 26.8257 14.3046 27.6894 14.6085 30.1234C14.9125 32.5575 13.7276 33.3907 13.547 33.4822L10.8501 34.2238C10.3339 33.7647 9.72838 33.4145 9.0706 33.1947H9.02986L8.50459 33.2371L8.83495 33.6423C11.8082 37.2264 11.5208 38.4669 11.5065 38.517L11.4525 38.7174L11.6298 38.8263C11.9337 39.0093 12.2101 39.1672 12.4777 39.3098H12.5064L12.5823 39.3458L12.622 39.3861Z" fill="#B8C3C9"/>
</svg>
