<svg width="128" height="41" viewBox="0 0 128 41" fill="none" xmlns="http://www.w3.org/2000/svg">
<g clip-path="url(#clip0)">
<path d="M41.3599 29.2901C41.3599 31.8501 42.9468 32.9635 45.035 33.726L47.2995 34.5358C48.6986 35.0697 49.497 35.5464 49.497 36.7627C49.497 38.1586 48.2431 38.7905 46.4586 38.7905C44.6268 38.7905 42.9158 38.1309 41.4921 36.9897V39.757C42.5876 40.5162 44.3672 41.1186 46.4586 41.1186C49.6439 41.1186 52.0701 39.5513 52.0701 36.7137C52.0701 34.4591 50.9468 33.0876 48.5027 32.2027L45.9786 31.2917C44.6758 30.8329 43.9346 30.3758 43.9346 29.2346C43.9346 27.9709 45.1133 27.3652 46.6921 27.3652C48.5256 27.3652 49.9525 28.0476 51.2554 29.0386V26.3252C50.0015 25.517 48.3966 25.0631 46.6366 25.0631C43.7631 25.0615 41.3599 26.5505 41.3599 29.2901Z" fill="#B8C3C9"/>
<path d="M61.608 25.3273H58.9517V40.8816H61.608V25.3273Z" fill="#B8C3C9"/>
<path d="M13.7358 25.3273H11.0762V40.8816H13.7358V25.3273Z" fill="#B8C3C9"/>
<path d="M72.0261 27.6571H75.2751C78.56 27.6571 80.3167 29.7551 80.3167 33.1004C80.3167 36.4228 78.56 38.5289 75.2751 38.5289H72.0261V27.6571ZM69.373 25.3273V40.8816H75.373C79.9918 40.8816 82.9763 37.8399 82.9763 33.1004C82.9763 28.3673 79.9902 25.3273 75.373 25.3273H69.373Z" fill="#B8C3C9"/>
<path d="M88.5898 25.3273V40.8816H98.0788V38.5273H91.189V33.7028H97.3686V31.3991H91.189V27.6571H98.0788V25.3273H88.5898Z" fill="#B8C3C9"/>
<path d="M108.661 27.6083H111.636C113.398 27.6083 114.39 28.5471 114.39 29.9887C114.39 31.4303 113.398 32.3691 111.636 32.3691H108.661V27.6083ZM106.015 25.3275V40.8817H108.661V34.5699H110.545L115.995 40.8801H119.007L113.378 34.4719C115.853 34.0883 117.014 32.5928 117.014 29.9887C117.014 26.9438 114.922 25.3258 111.686 25.3258H106.015V25.3275Z" fill="#B8C3C9"/>
<path d="M36.4116 5.34533C36.4116 7.94615 38.0051 9.07758 40.1112 9.84982L42.3986 10.6727C43.8124 11.2131 44.6075 11.7029 44.6075 12.9372C44.6075 14.3527 43.3488 14.9959 41.5496 14.9959C39.6998 14.9959 37.9773 14.3266 36.5406 13.169V15.9739C37.6443 16.7462 39.4435 17.3649 41.5496 17.3649C44.7626 17.3649 47.2035 15.7698 47.2035 12.8866C47.2035 10.5959 46.0737 9.20656 43.6067 8.3037L41.0631 7.37635C39.752 6.91268 39.0075 6.44901 39.0075 5.29145C39.0075 4.00492 40.1896 3.38615 41.7831 3.38615C43.6329 3.38615 45.0712 4.08003 46.3822 5.08411V2.32982C45.1235 1.50533 43.5039 1.04166 41.7308 1.04166C38.828 1.04492 36.4116 2.56492 36.4116 5.34533Z" fill="#B8C3C9"/>
<path d="M116.718 5.3341C116.718 7.93328 118.312 9.06634 120.418 9.84022L122.705 10.6631C124.119 11.2035 124.914 11.6933 124.914 12.9276C124.914 14.3431 123.655 14.9863 121.856 14.9863C120.006 14.9863 118.284 14.317 116.846 13.1578V15.9627C117.951 16.7349 119.748 17.3537 121.856 17.3537C125.068 17.3537 127.508 15.757 127.508 12.8737C127.508 10.5831 126.377 9.19206 123.91 8.29083L121.366 7.36512C120.055 6.90145 119.311 6.43777 119.311 5.28022C119.311 3.99369 120.493 3.37492 122.085 3.37492C123.936 3.37492 125.375 4.07043 126.686 5.07288V2.31859C125.427 1.4941 123.807 1.03043 122.036 1.03043C119.133 1.03532 116.718 2.55369 116.718 5.3341Z" fill="#B8C3C9"/>
<path d="M100.579 5.3341C100.579 7.93328 102.173 9.06634 104.279 9.84022L106.566 10.6631C107.98 11.2035 108.777 11.6933 108.777 12.9276C108.777 14.3431 107.516 14.9863 105.719 14.9863C103.869 14.9863 102.146 14.317 100.708 13.1578V15.9627C101.812 16.7349 103.611 17.3537 105.719 17.3537C108.93 17.3537 111.371 15.757 111.371 12.8737C111.371 10.5831 110.24 9.19206 107.774 8.29083L105.231 7.36512C103.921 6.90145 103.177 6.43777 103.177 5.28022C103.177 3.99369 104.357 3.37492 105.951 3.37492C107.802 3.37492 109.24 4.07043 110.551 5.07288V2.31859C109.293 1.4941 107.673 1.03043 105.902 1.03043C102.995 1.03532 100.579 2.55369 100.579 5.3341Z" fill="#B8C3C9"/>
<path d="M84.9312 1.30289V17.1086H94.4871V14.7168H87.5499V9.81391H93.772V7.47432H87.5499V3.67023H94.4871V1.30289H84.9312Z" fill="#B8C3C9"/>
<path d="M3.08566 10.1584H6.47669C8.27587 10.1584 9.2522 11.0335 9.2522 12.4751C9.2522 13.8906 8.27587 14.7919 6.47669 14.7919H3.08566V10.1584ZM3.08566 3.62125H5.98852C7.81383 3.62125 8.79015 4.26452 8.79015 5.75676C8.79015 7.25064 7.81383 7.94452 5.98852 7.94452H3.08566V3.62125ZM0.489746 1.30289V17.1086H6.52893C9.81709 17.1086 11.8726 15.538 11.8726 12.578C11.8726 10.9045 10.7934 9.43676 9.30281 8.9486C10.4587 8.53554 11.3583 7.29962 11.3583 5.60166C11.3583 2.77064 9.30281 1.30289 6.01301 1.30289H0.489746Z" fill="#B8C3C9"/>
<path d="M56.7522 1.30289H54.0796V17.1086H56.7522V1.30289Z" fill="#B8C3C9"/>
<path d="M27.5756 1.30289V10.5192C27.5756 13.5576 26.2907 14.9731 23.9266 14.9731C21.5625 14.9731 20.2776 13.5576 20.2776 10.5192V1.30289H17.605V10.8033C17.605 15.1527 20.1748 17.3666 23.9266 17.3666C27.7029 17.3666 30.2483 15.1527 30.2483 10.8278V1.30289H27.5756Z" fill="#B8C3C9"/>
<path d="M75.2206 1.30284V11.409L64.3765 1.0563V17.1086H66.9512V6.82774L77.7887 17.3551V1.30284H75.2206Z" fill="#B8C3C9"/>
<path d="M21.3506 40.8799H23.9057V30.7623L34.6632 41.1215V25.3256H32.1147V35.2701L21.3506 25.0856V40.8799Z" fill="#B8C3C9"/>
</g>
<defs>
<clipPath id="clip0">
<rect width="128" height="40" fill="white" transform="translate(0 0.708649)"/>
</clipPath>
</defs>
</svg>
