<svg width="160" height="35" viewBox="0 0 160 35" fill="none" xmlns="http://www.w3.org/2000/svg">
<path d="M0 25.5312C0 27.215 1.36843 28.5834 3.15758 28.5834H15.7868V25.4258H3.15758V22.2687H15.5762C17.26 22.2687 18.9438 20.9003 18.9438 19.2165V19.3219V13.1121C18.9438 11.4282 17.3654 9.74427 15.5762 9.74427H3.15758C1.47322 9.74427 0 11.4282 0 13.1121V25.5312ZM15.7868 19.1111H3.15758V12.7965H15.7868V19.1111ZM57.9892 9.63945H45.4653C43.7815 9.63945 42.0977 11.3234 42.0977 13.0072V25.5312V25.4258C42.0977 27.1096 43.7815 28.5834 45.4653 28.5834H57.8839V31.7405H45.2547V34.898H57.9892C59.6731 34.898 61.0415 33.4243 61.0415 31.7405V13.0072C61.0415 11.3234 59.6731 9.63945 57.9892 9.63945ZM57.8839 25.4258H45.2547V12.7965H57.8839V25.4258ZM33.6779 9.63945H24.3115C22.6276 9.63945 21.0486 11.3234 21.0486 13.0072V28.5834H24.2062V12.7965H33.6779C35.3617 12.7965 36.8353 14.3751 36.8353 16.1643V28.5834H39.9924V16.1643C39.9924 12.6913 37.1509 9.63945 33.6779 9.63945ZM78.933 25.4258H66.3038V16.0589C66.3038 14.3751 67.9876 12.6913 69.7768 12.6913H78.933V28.478H82.09V13.0072C82.09 11.3234 80.827 9.63945 79.1432 9.63945H69.7768C66.3038 9.63945 63.1462 12.6913 63.1462 16.1643V25.5312C63.1462 27.215 64.9354 28.5834 66.6192 28.5834H72.0922C74.9338 28.5834 77.8807 27.4257 78.933 25.4258V28.5834V25.4258ZM150.499 0.167342H147.342V28.5834H150.499V12.7965H159.971V9.63945H150.499V0.167342ZM106.296 25.5312C106.296 27.215 107.243 28.5834 108.928 28.5834H121.031V31.7405H109.454V34.898H121.451C123.135 34.898 124.188 33.4243 124.188 31.6351V31.7405V13.0072C124.188 11.3234 123.135 9.63945 121.451 9.63945H108.928C107.243 9.63945 106.296 11.3234 106.296 13.0072V25.5312ZM121.031 25.4258H109.454V12.7965H121.031V25.4258ZM99.9815 9.63945H87.7732C86.0893 9.63945 84.1953 11.3234 84.1953 13.0072V25.5312V25.4258C84.1953 27.1096 86.0893 28.5834 87.7732 28.5834H103.139V0.167342H99.9815V9.63945ZM99.9815 25.4258H87.3524V12.7965H99.9815V25.4258ZM126.292 25.5312C126.292 27.215 128.082 28.5834 129.765 28.5834H142.079V25.4258H129.45V22.2687H142.29C143.974 22.2687 145.236 20.9003 145.236 19.2165V19.3219V13.1121C145.236 11.4282 143.974 9.74427 142.29 9.74427H129.765C128.082 9.74427 126.292 11.4282 126.292 13.1121V25.5312ZM142.079 19.1111H129.45V12.7965H142.079V19.1111Z" fill="#B8C3C9"/>
</svg>
