<svg width="200" height="32" viewBox="0 0 200 32" fill="none" xmlns="http://www.w3.org/2000/svg">
<path d="M16.8673 5.19568H17.2006V0.619331H0.0339355V0.929017C2.0006 2.58063 2.3006 3.06235 2.3006 4.88601V27.0107C2.3006 28.8344 2.03394 29.3161 0.0339355 30.9677V31.2774H8.96727V30.9677C6.96727 29.4193 6.6006 28.8344 6.6006 27.0796V16.1032H8.53394C11.0673 16.1032 11.5006 16.2753 13.6673 19.1312H13.9673V11.9398H13.6673C11.5006 14.7613 11.0673 14.9677 8.53394 14.9677H6.6006V1.75482H9.53394C10.7339 1.75482 11.7339 2.16772 16.8673 5.19568ZM23.6673 18.2021H17.7006L20.5339 9.2903C20.6673 9.59998 20.8006 9.97848 20.9339 10.3914L23.6673 18.2021ZM28.3339 20.8172L23.1673 6.12471H18.5006V6.39998C19.1673 7.01934 19.5673 7.50105 19.9339 8.05159L16.0673 20.1978C15.3339 22.3656 14.9006 23.0537 13.1339 24.7742V25.0838H18.5673V24.7742C17.0673 23.8451 16.6006 23.2258 16.6006 22.3312C16.6006 21.8839 16.7339 21.2989 17.0339 20.3011L17.3673 19.2344H24.0006L24.6006 20.9548C24.9673 22.0559 25.0339 22.5032 25.0339 22.9161C25.0339 23.5699 24.6006 24.086 23.4673 24.7398V25.0494H31.0339V24.7742C29.3006 23.2602 29.0006 22.7441 28.3339 20.8172ZM39.7339 5.19568H40.0673V0.756974C38.4006 0.447297 36.5339 0.206434 34.8339 0.206434C29.8673 0.206434 27.4006 3.6473 27.4006 7.29461C27.4006 11.5269 30.0673 14.0387 33.4339 16.9634C37.1006 20.129 39.2673 22.0559 39.2673 25.7032C39.2673 28.7312 37.3339 30.5548 34.7673 30.5548C32.5006 30.5548 30.7339 29.6258 26.0006 25.8064H25.6006L27.3339 30.7957C29.4006 31.415 31.5673 31.7247 33.7339 31.7247C39.4006 31.7247 42.7006 28.1806 42.7006 23.2258C42.7006 18.6839 40.1339 16.3441 36.4673 13.2817C33.1006 10.4602 30.8006 8.18922 30.8006 4.92041C30.8006 2.78707 32.1673 1.34191 34.2673 1.34191C35.7006 1.34191 36.7006 1.92686 39.7339 5.19568ZM61.5673 5.19568H61.9006V0.619331H41.6339V5.19568H41.9673C46.7339 2.0645 47.7006 1.65159 48.8339 1.65159H49.6006V27.0796C49.6006 28.8344 49.2673 29.4193 47.2339 30.9677V31.2774H56.2673V30.9677C54.2673 29.4193 53.9006 28.8344 53.9006 27.0796V1.65159H54.6673C55.8006 1.686 56.7673 2.09891 61.5673 5.19568ZM87.4006 4.36988H87.7339V0.447288C85.7339 0.137611 83.1339 -0.103241 80.8006 -0.103241C70.2673 -0.103241 64.0339 5.95267 64.0339 16C64.0339 25.8752 70.0006 31.9656 80.4006 31.9656C83.1006 31.9656 85.5339 31.5527 87.4673 31.0021L88.2339 26.6322H87.9006C84.0006 30.0387 82.2673 30.8301 79.4673 30.8301C71.7006 30.8301 69.1006 24.7742 69.1006 15.7935C69.1006 6.67525 71.7006 1.10106 79.0673 1.10106C81.3673 1.10106 83.034 1.68601 87.4006 4.36988ZM86.4006 15.8279C86.4006 20.886 85.9673 24.2236 82.4339 24.2236C78.8673 24.2236 78.4673 20.886 78.4673 15.8279C78.4673 10.7699 78.8673 7.43224 82.4339 7.43224C86.0006 7.39783 86.4006 10.7355 86.4006 15.8279ZM90.6006 15.8279C90.6006 10.4946 87.5339 6.46879 82.4339 6.46879C77.3339 6.46879 74.2673 10.529 74.2673 15.8279C74.2673 21.1269 77.3339 25.1871 82.4339 25.1871C87.5339 25.1527 90.6006 21.0925 90.6006 15.8279ZM108.834 31.243L117.667 31.3118V31.0021C115.701 29.3505 115.401 28.8688 115.401 27.0451V4.92041C115.401 3.09675 115.667 2.61503 117.667 0.997828V0.688153L111.434 0.653742L104.501 23.329L97.4006 0.688153H91.1006V0.997828C92.3006 2.06449 93.034 2.75267 93.5673 3.47525V24.9118C93.5673 27.3892 93.2673 28.3871 91.0339 31.0365V31.3462H98.1006V31.0365C95.1339 28.4903 94.7006 27.4925 94.7006 24.9118V5.81503C94.7339 5.95267 94.8006 6.09031 94.8339 6.26235L102.801 31.5871H103.134L111.101 5.50536V27.0451C111.101 28.8688 110.834 29.3505 108.834 30.9677C108.834 30.9333 108.834 31.243 108.834 31.243ZM134.334 10.0129C134.334 15.7591 133.034 18.1677 128.767 18.1677H126.334V1.75482H128.067C132.767 1.75482 134.334 3.81934 134.334 10.0129ZM138.967 9.80643C138.967 2.8903 134.301 0.619331 127.934 0.619331H119.767V0.929017C121.734 2.58063 122.034 3.06235 122.034 4.88601V27.0107C122.034 28.8344 121.767 29.3161 119.767 30.9677V31.2774H128.667V30.9677C126.667 29.4193 126.301 28.8344 126.301 27.0796V19.2688H128.634C134.234 19.3032 138.967 16.8258 138.967 9.80643ZM149.834 20.0946H141.434L145.567 4.64514C145.667 4.92041 145.734 5.19568 145.834 5.50536L149.834 20.0946ZM200.034 0.929017V0.619331H193.334V0.929017C195.134 2.58063 195.701 3.37202 195.701 4.57632C195.701 5.23008 195.567 5.71181 195.067 6.91611L191.201 16.2064L186.167 4.67955C185.767 3.78493 185.634 3.3032 185.634 2.85589C185.634 2.03008 186.067 1.58278 187.301 0.929017V0.619331H172.434V0.929017C175.767 3.47525 176.201 4.4731 176.201 7.2602V24.9118L163.801 0.653742H157.634V0.963417C158.934 2.0989 159.667 2.82149 160.301 3.68171V24.9462C160.301 27.2516 160.067 28.2494 158.267 31.0021C156.901 29.2473 156.601 28.3871 155.901 25.8753L148.901 0.653742H142.867V0.963417C143.801 1.82363 144.401 2.40858 144.867 3.09675L139.001 24.7398C138.167 27.8709 137.501 28.8344 135.267 31.0021V31.3118H142.467V31.0021C140.401 29.3849 139.767 28.5591 139.767 27.1828C139.767 26.6322 139.901 25.8408 140.201 24.7398L141.134 21.2645H150.167L151.434 25.8408C151.834 27.286 151.967 27.871 151.967 28.4559C151.967 29.2473 151.634 29.7978 150.134 31.0021V31.3118H165.201V31.0021C161.867 28.4559 161.434 27.458 161.434 24.9462V5.57418C161.467 5.60859 161.467 5.6774 161.501 5.71181L174.601 31.3118H177.334V7.2602C177.334 4.71396 177.567 3.71611 179.301 0.963417C180.401 2.37417 181.134 3.54406 182.034 5.64299L187.401 17.858V27.1484C187.401 28.8688 187.067 29.4882 185.034 31.0365V31.3462H194.067V31.0365C192.067 29.4882 191.701 28.9032 191.701 27.1484V17.7204L196.167 7.01933C197.067 4.71396 197.801 3.6473 200.034 0.929017Z" fill="#B8C3C9"/>
</svg>
