<svg width="120" height="120" viewBox="0 0 120 120" fill="none" xmlns="http://www.w3.org/2000/svg">
<path fill-rule="evenodd" clip-rule="evenodd" d="M50.4452 17.2462C52.6038 15.0877 55.5314 13.875 58.5841 13.875H94.615C100.972 13.875 106.125 19.0282 106.125 25.385V61.4159C106.125 64.4686 104.912 67.3962 102.754 69.5547L63.5547 108.754C59.0598 113.249 51.772 113.249 47.2771 108.754L11.2462 72.7229C6.75126 68.228 6.75126 60.9402 11.2462 56.4452L50.4452 17.2462ZM16.7071 67.262C15.2281 65.783 15.2281 63.3851 16.7071 61.9062L55.9062 22.7071C56.6164 21.9969 57.5797 21.5979 58.5841 21.5979H94.615C96.7066 21.5979 98.4021 23.2935 98.4021 25.385V61.4159C98.4021 62.4203 98.0031 63.3836 97.2929 64.0938L58.0938 103.293C56.6149 104.772 54.217 104.772 52.738 103.293L16.7071 67.262Z" fill="url(#paint0_linear)"/>
<path fill-rule="evenodd" clip-rule="evenodd" d="M49.9413 39.8555C55.6513 34.1456 64.0206 34.2238 73.8761 44.0793C83.7315 53.9348 83.7706 62.3432 78.0998 68.014C72.429 73.6848 64.0597 73.6066 54.2042 63.7511C44.3879 53.9348 44.3097 45.4872 49.9413 39.8555ZM72.2335 62.0695C74.0716 60.2313 73.2503 57.611 66.8364 51.1971C60.4226 44.7833 57.6849 43.9229 55.8468 45.761C54.0087 47.5991 54.83 50.2194 61.2439 56.6333C67.6577 63.0472 70.3954 63.9076 72.2335 62.0695ZM31.0912 58.4026C32.1164 57.3775 33.7784 57.3775 34.8035 58.4026L35.4989 59.098C36.3768 58.4769 37.3184 57.9624 38.2373 57.6064C39.1105 57.2763 40.1581 57.4699 40.8563 58.1681C41.8261 59.1378 41.8061 60.7094 40.8551 61.6604C40.5833 61.9321 40.2534 62.1457 39.9236 62.2816C38.3324 62.9806 37.2069 63.6407 36.4887 64.3588C35.3242 65.5233 35.4598 66.0859 35.7895 66.4156C36.2938 66.9199 36.9924 66.5704 38.6031 65.4251C41.1066 63.6587 44.8908 61.1157 47.8775 64.1024C50.1598 66.3847 50.3107 69.2491 48.4924 72.0915L49.4576 73.0567C50.4827 74.0818 50.4827 75.7439 49.4576 76.769C48.4324 77.7941 46.7704 77.7941 45.7453 76.769L44.8505 75.8743C43.6364 76.7612 42.4266 77.3576 41.1596 77.7248C40.2865 77.9773 39.3553 77.7836 38.6765 77.1048C37.7067 76.1351 37.7073 74.5442 38.6777 73.5737C39.0077 73.2438 39.3958 73.0108 39.8033 72.9137C41.2197 72.5445 42.5393 71.8456 43.6844 70.7005C44.4219 69.963 44.8685 69.0121 44.3642 68.5079C43.86 68.0036 43.0644 68.2949 41.5507 69.3432L41.3553 69.4787C38.8362 71.2269 35.1804 73.764 32.0241 70.6077C30.225 68.8086 29.789 65.8846 31.7854 62.8092L31.0912 62.115C30.0661 61.0898 30.0661 59.4278 31.0912 58.4026Z" fill="url(#paint1_linear)"/>
<circle opacity="0.2" cx="87" cy="33" r="6" fill="url(#paint2_linear)"/>
<defs>
<linearGradient id="paint0_linear" x1="12.8301" y1="22.1778" x2="94.2215" y2="110.244" gradientUnits="userSpaceOnUse">
<stop stop-color="#03A9F4"/>
<stop offset="1" stop-color="#50D0F1"/>
</linearGradient>
<linearGradient id="paint1_linear" x1="32.9247" y1="39.5511" x2="66.268" y2="84.072" gradientUnits="userSpaceOnUse">
<stop stop-color="#03A9F4"/>
<stop offset="1" stop-color="#50D0F1"/>
</linearGradient>
<linearGradient id="paint2_linear" x1="81.6052" y1="28.0141" x2="91.5461" y2="38.7702" gradientUnits="userSpaceOnUse">
<stop stop-color="#03A9F4"/>
<stop offset="1" stop-color="#50D0F1"/>
</linearGradient>
</defs>
</svg>
