<svg xmlns="http://www.w3.org/2000/svg" width="364" height="120" viewBox="0 0 364 120"><defs><style>.a{opacity:.3}.b{fill:#a6a6a6}.c{fill:#fff}</style></defs><title>app_badge_apple</title><g class="a"><path d="M24.969 113A11 11 0 0 1 14 101.994V22.018A11.006 11.006 0 0 1 24.97 11H341.04a11 11 0 0 1 10.956 11.018l.004 80.13A10.996 10.996 0 0 1 341.043 113z"/><path d="M341.04 12a9.984 9.984 0 0 1 9.956 10.018l.004 79.984a9.98 9.98 0 0 1-9.956 9.998H24.969A9.992 9.992 0 0 1 15 101.994V22.018A10 10 0 0 1 24.97 12H341.04m0-2H24.97A12.007 12.007 0 0 0 13 22.018v79.976A12.001 12.001 0 0 0 24.97 114h316.075a11.997 11.997 0 0 0 11.955-11.852v-.154l-.003-79.976A12 12 0 0 0 341.04 10z"/></g><path d="M22.969 110A11 11 0 0 1 12 98.994V19.018A11.006 11.006 0 0 1 22.97 8H339.04a11 11 0 0 1 10.956 11.018l.004 80.13A10.996 10.996 0 0 1 339.043 110z"/><path class="b" d="M339.04 9a9.984 9.984 0 0 1 9.956 10.018L349 99.002a9.98 9.98 0 0 1-9.956 9.998H22.969A9.992 9.992 0 0 1 13 98.994V19.018A10 10 0 0 1 22.97 9H339.04m0-2H22.97A12.007 12.007 0 0 0 11 19.018v79.976A12.001 12.001 0 0 0 22.97 111h316.075a11.997 11.997 0 0 0 11.955-11.852v-.154l-.003-79.976A12 12 0 0 0 339.04 7z"/><path class="c" d="M83.269 56.897c-.072-8.38 6.865-12.459 7.179-12.645a15.413 15.413 0 0 0-12.158-6.574c-5.114-.54-10.078 3.056-12.682 3.056-2.658 0-6.67-3.004-10.997-2.92a16.18 16.18 0 0 0-13.625 8.315c-5.895 10.2-1.499 25.194 4.146 33.436 2.824 4.045 6.126 8.548 10.444 8.39 4.226-.17 5.806-2.692 10.905-2.692 5.053 0 6.536 2.691 10.94 2.591 4.534-.07 7.389-4.06 10.117-8.132a33.447 33.447 0 0 0 4.626-9.42 14.589 14.589 0 0 1-8.895-13.405zM74.946 32.253a14.84 14.84 0 0 0 3.4-10.634 15.118 15.118 0 0 0-9.774 5.051c-2.097 2.455-3.968 6.469-3.485 10.244 3.695.277 7.487-1.87 9.859-4.661zM142.943 87.378h-5.905l-3.233-10.172h-11.246l-3.082 10.172h-5.749l11.143-34.61h6.883zm-10.116-14.431l-2.924-9.036q-.464-1.386-1.747-6.521h-.102q-.52 2.209-1.646 6.521l-2.875 9.036zM171.544 74.593q0 6.361-3.458 10.061a10.146 10.146 0 0 1-7.692 3.285q-4.96 0-7.125-3.537v13.091h-5.546V70.625q0-4-.205-8.203h4.876l.31 3.959h.104a9.865 9.865 0 0 1 15.79-.986 13.823 13.823 0 0 1 2.946 9.198zm-5.647.201a10.27 10.27 0 0 0-1.644-6.007 5.682 5.682 0 0 0-4.828-2.464 5.763 5.763 0 0 0-3.718 1.36 6.31 6.31 0 0 0-2.185 3.573 7.225 7.225 0 0 0-.259 1.685v4.166a6.685 6.685 0 0 0 1.67 4.597 5.558 5.558 0 0 0 4.335 1.875 5.682 5.682 0 0 0 4.88-2.413 10.614 10.614 0 0 0 1.75-6.372zM200.247 74.593q0 6.361-3.459 10.061a10.155 10.155 0 0 1-7.697 3.285q-4.955 0-7.125-3.537v13.091h-5.544V70.625q0-4-.205-8.203h4.874l.314 3.959h.101a9.868 9.868 0 0 1 15.794-.986 13.843 13.843 0 0 1 2.947 9.198zm-5.651.201a10.27 10.27 0 0 0-1.646-6.007 5.67 5.67 0 0 0-4.822-2.464 5.794 5.794 0 0 0-3.726 1.36 6.31 6.31 0 0 0-2.178 3.573 7.27 7.27 0 0 0-.264 1.685v4.166a6.694 6.694 0 0 0 1.67 4.597 5.555 5.555 0 0 0 4.343 1.875 5.673 5.673 0 0 0 4.874-2.413 10.628 10.628 0 0 0 1.749-6.372zM232.337 77.67a9.234 9.234 0 0 1-3.078 7.187q-3.377 3.032-9.426 3.034a16.45 16.45 0 0 1-8.962-2.163l1.285-4.619a15.39 15.39 0 0 0 8.01 2.158 7.546 7.546 0 0 0 4.875-1.412 4.604 4.604 0 0 0 1.75-3.769 4.82 4.82 0 0 0-1.44-3.543 13.43 13.43 0 0 0-4.775-2.67q-9.09-3.386-9.09-9.912a8.764 8.764 0 0 1 3.205-6.985 12.713 12.713 0 0 1 8.5-2.72 16.803 16.803 0 0 1 7.857 1.642l-1.394 4.523a13.708 13.708 0 0 0-6.647-1.596 6.757 6.757 0 0 0-4.59 1.443 4.107 4.107 0 0 0-1.391 3.135 4.237 4.237 0 0 0 1.594 3.387 17.925 17.925 0 0 0 5.03 2.667 17.016 17.016 0 0 1 6.569 4.21 8.754 8.754 0 0 1 2.118 6.002zM250.715 66.584h-6.113v12.113q0 4.626 3.236 4.621a9.873 9.873 0 0 0 2.463-.258l.153 4.211a12.658 12.658 0 0 1-4.309.615 6.656 6.656 0 0 1-5.138-2.006q-1.849-2.004-1.85-6.733V66.574h-3.638v-4.161h3.637v-4.57l5.446-1.64v6.21h6.113zM278.234 74.694a13.687 13.687 0 0 1-3.289 9.45 11.725 11.725 0 0 1-9.136 3.795 11.16 11.16 0 0 1-8.757-3.64 13.264 13.264 0 0 1-3.263-9.187 13.592 13.592 0 0 1 3.363-9.5 11.66 11.66 0 0 1 9.064-3.7 11.414 11.414 0 0 1 8.83 3.651 13.09 13.09 0 0 1 3.188 9.131zm-5.749.126A11.144 11.144 0 0 0 271 68.935a5.49 5.49 0 0 0-4.981-2.971 5.567 5.567 0 0 0-5.084 2.97 11.327 11.327 0 0 0-1.491 5.99 11.127 11.127 0 0 0 1.49 5.892 5.689 5.689 0 0 0 10.022-.052 11.232 11.232 0 0 0 1.53-5.944zM296.264 67.298a9.634 9.634 0 0 0-1.75-.151 5.228 5.228 0 0 0-4.519 2.209 8.313 8.313 0 0 0-1.384 4.925v13.097h-5.545V70.28q0-4.313-.16-7.858h4.829l.203 4.774h.155a8.55 8.55 0 0 1 2.77-3.949 6.7 6.7 0 0 1 4.008-1.34 9.245 9.245 0 0 1 1.388.1zM321.058 73.72a13.307 13.307 0 0 1-.201 2.514h-16.633a7.234 7.234 0 0 0 2.414 5.652 8.256 8.256 0 0 0 5.438 1.744 18.44 18.44 0 0 0 6.73-1.18l.868 3.843a20.762 20.762 0 0 1-8.366 1.548q-5.805 0-9.118-3.414a12.644 12.644 0 0 1-3.31-9.164 14.292 14.292 0 0 1 3.081-9.392 10.623 10.623 0 0 1 8.73-3.999 9.29 9.29 0 0 1 8.167 4 13.452 13.452 0 0 1 2.2 7.848zm-5.285-1.438a7.544 7.544 0 0 0-1.076-4.262 4.835 4.835 0 0 0-4.418-2.313 5.247 5.247 0 0 0-4.413 2.259 8.28 8.28 0 0 0-1.642 4.313zM120.959 40.533a35.471 35.471 0 0 1-3.986-.205V23.6a30.3 30.3 0 0 1 4.693-.356c6.357 0 9.29 3.128 9.29 8.227 0 5.887-3.459 9.063-9.997 9.063zm.93-15.142a11.073 11.073 0 0 0-2.195.177v12.72a14.895 14.895 0 0 0 1.844.075c4.163 0 6.535-2.371 6.535-6.815 0-3.957-2.143-6.157-6.184-6.157zM140.077 40.659c-3.58 0-5.905-2.676-5.905-6.306 0-3.783 2.373-6.489 6.108-6.489 3.533 0 5.908 2.549 5.908 6.29 0 3.829-2.45 6.505-6.11 6.505zm.108-10.804c-1.971 0-3.232 1.844-3.232 4.418 0 2.527 1.285 4.37 3.204 4.37 1.915 0 3.204-1.97 3.204-4.42 0-2.498-1.263-4.368-3.176-4.368zM166.62 28.119l-3.834 12.267h-2.499l-1.59-5.33a40.414 40.414 0 0 1-.984-3.96h-.052a26.3 26.3 0 0 1-.986 3.96l-1.69 5.33h-2.52l-3.612-12.267h2.797l1.394 5.832c.326 1.385.598 2.696.832 3.934h.052c.197-1.03.527-2.322 1.006-3.909l1.742-5.857h2.222l1.67 5.73c.4 1.39.729 2.752.985 4.041h.068a35.614 35.614 0 0 1 .836-4.041l1.49-5.73zM180.742 40.386h-2.722v-7.044c0-2.17-.834-3.258-2.476-3.258a2.83 2.83 0 0 0-2.726 3.003v7.299h-2.722v-8.76a56.87 56.87 0 0 0-.104-3.51h2.4l.125 1.89h.078a4.403 4.403 0 0 1 3.884-2.142c2.576 0 4.267 1.97 4.267 5.177zM188.257 40.386h-2.728V22.492h2.728zM198.195 40.659c-3.582 0-5.904-2.676-5.904-6.306 0-3.783 2.37-6.489 6.105-6.489 3.534 0 5.903 2.549 5.903 6.29.004 3.829-2.445 6.505-6.104 6.505zm.101-10.804c-1.967 0-3.23 1.844-3.23 4.418 0 2.527 1.289 4.37 3.2 4.37 1.92 0 3.204-1.97 3.204-4.42.002-2.498-1.256-4.368-3.174-4.368zM215.044 40.386l-.198-1.414h-.07a4.192 4.192 0 0 1-3.586 1.687 3.566 3.566 0 0 1-3.76-3.608c0-3.029 2.627-4.594 7.167-4.594v-.225c0-1.614-.854-2.421-2.543-2.421a5.76 5.76 0 0 0-3.205.906l-.554-1.79a7.844 7.844 0 0 1 4.211-1.063c3.204 0 4.82 1.69 4.82 5.075v4.52a18.615 18.615 0 0 0 .176 2.926zm-.373-6.112c-3.027 0-4.545.732-4.545 2.476a1.737 1.737 0 0 0 1.87 1.914 2.609 2.609 0 0 0 2.675-2.493zM230.562 40.386l-.129-1.973h-.074a4.112 4.112 0 0 1-3.938 2.246c-2.956 0-5.147-2.602-5.147-6.256 0-3.833 2.27-6.539 5.372-6.539a3.684 3.684 0 0 1 3.459 1.669h.053v-7.041h2.728v14.586c0 1.185.027 2.296.1 3.308zm-.404-7.22a2.965 2.965 0 0 0-2.871-3.178c-2.023 0-3.258 1.787-3.258 4.311 0 2.475 1.285 4.165 3.204 4.165a3.058 3.058 0 0 0 2.925-3.253zM250.183 40.659c-3.582 0-5.904-2.676-5.904-6.306 0-3.783 2.372-6.489 6.107-6.489 3.53 0 5.902 2.549 5.902 6.29.005 3.829-2.443 6.505-6.105 6.505zm.1-10.804c-1.968 0-3.226 1.844-3.226 4.418 0 2.527 1.286 4.37 3.2 4.37 1.92 0 3.204-1.97 3.204-4.42.005-2.498-1.257-4.368-3.178-4.368zM270.944 40.386h-2.725v-7.044c0-2.17-.834-3.258-2.475-3.258a2.826 2.826 0 0 0-2.722 3.003v7.299h-2.728v-8.76a56.65 56.65 0 0 0-.101-3.51h2.397l.13 1.89h.073a4.408 4.408 0 0 1 3.887-2.142c2.574 0 4.264 1.967 4.264 5.173zM289.28 30.162h-2.994v5.955c0 1.515.522 2.27 1.583 2.27a5.507 5.507 0 0 0 1.209-.124l.077 2.071a6.041 6.041 0 0 1-2.114.306c-2.148 0-3.435-1.192-3.435-4.294v-6.184h-1.786v-2.043h1.786v-2.246l2.68-.812v3.054h2.995zM303.71 40.386h-2.72V33.39c0-2.195-.834-3.3-2.476-3.3a2.67 2.67 0 0 0-2.726 2.9v7.396h-2.722V22.492h2.722v7.363h.055a4.126 4.126 0 0 1 3.686-1.991c2.594 0 4.182 2.017 4.182 5.223zM318.493 34.904h-8.18a3.523 3.523 0 0 0 3.865 3.638 9.119 9.119 0 0 0 3.303-.585l.428 1.893a10.277 10.277 0 0 1-4.118.759c-3.832 0-6.105-2.421-6.105-6.179 0-3.76 2.325-6.588 5.798-6.588 3.136 0 5.101 2.32 5.101 5.83a5.296 5.296 0 0 1-.092 1.232zm-2.503-1.939c0-1.895-.952-3.231-2.694-3.231-1.565 0-2.803 1.361-2.982 3.231z"/></svg>