<svg width="120" height="120" viewBox="0 0 120 120" fill="none" xmlns="http://www.w3.org/2000/svg">
<path fill-rule="evenodd" clip-rule="evenodd" d="M36.9518 39.1875C36.9518 33.4921 41.5689 28.875 47.2643 28.875C52.9597 28.875 57.5768 33.4921 57.5768 39.1875V44.5936C58.414 44.3695 59.2939 44.25 60.2018 44.25C63.5396 44.25 66.5002 45.8651 68.3447 48.3565C69.7267 47.6491 71.2926 47.25 72.9518 47.25C76.1688 47.25 79.0353 48.7503 80.8899 51.0893C82.3212 50.3148 83.9601 49.875 85.7018 49.875C91.2937 49.875 95.8268 54.4081 95.8268 60V72.1875V78.9375V86.7984C95.8595 91.3334 94.6957 98.0974 90.9502 103.857C87.0655 109.83 80.4748 114.562 70.3268 114.562C59.4298 114.562 51.7536 114.13 45.5852 111.7C39.1603 109.169 34.7929 104.663 29.9483 97.7841C24.2879 89.7463 21.5507 86.1006 19.3963 83.231C18.7078 82.3139 18.0788 81.4761 17.4329 80.5995L17.4059 80.5628L17.3798 80.5255C17.3612 80.499 17.3042 80.4216 17.2226 80.3107L17.2221 80.3101L17.2219 80.3098C16.9525 79.9438 16.4163 79.2156 16.1094 78.752C15.5858 77.9613 14.949 76.8689 14.5747 75.5687C14.1853 74.2159 14.0651 72.577 14.6746 70.8509C15.2764 69.1467 16.4584 67.7294 18.0143 66.5625C20.0736 65.018 22.4792 64.6877 24.6548 64.9064C26.7981 65.1218 28.9654 65.8847 30.979 66.8524C32.9742 67.8113 35.0006 69.0606 36.9518 70.4528V51.1969C36.9518 51.1937 36.9518 51.1906 36.9518 51.1875V39.1875ZM44.4518 49.875V77.512C44.4518 81.1454 40.161 82.9402 37.5467 80.5675C34.4367 77.7449 30.8772 75.1247 27.7303 73.6123C26.1527 72.8541 24.8641 72.4652 23.9046 72.3688C22.9774 72.2756 22.6334 72.4732 22.5143 72.5625C22.1661 72.8236 21.9709 73.0293 21.8664 73.1613C21.8147 73.2266 21.7848 73.2743 21.7685 73.3034C21.7593 73.3197 21.7537 73.3315 21.7504 73.3389C21.7517 73.3587 21.7574 73.4082 21.782 73.4938C21.853 73.7405 22.0249 74.1012 22.3627 74.6113C22.5245 74.8557 22.7013 75.1008 22.9001 75.3702C22.9374 75.4208 22.978 75.4756 23.0208 75.5332L23.0214 75.5342C23.1702 75.7349 23.3447 75.9702 23.4955 76.184C24.1037 77.009 24.7079 77.8138 25.3751 78.7024C27.5321 81.5753 30.3472 85.3247 36.0804 93.4658C40.6108 99.899 43.9309 102.987 48.3341 104.722C52.9938 106.558 59.2863 107.062 70.3268 107.062C77.7288 107.062 82.0444 103.794 84.6628 99.7681C87.4162 95.534 88.354 90.3068 88.3269 86.8418L88.3268 86.8271V86.8125V78.9375V72.1875V60C88.3268 58.5503 87.1516 57.375 85.7018 57.375C84.2521 57.375 83.0768 58.5503 83.0768 60V65.4375V68.25C83.0768 70.3211 81.3979 72 79.3268 72C77.2557 72 75.5768 70.3211 75.5768 68.25V65.4375V60V57.375C75.5768 55.9253 74.4016 54.75 72.9518 54.75C71.5021 54.75 70.3268 55.9253 70.3268 57.375V62.4375V65.4375C70.3268 67.5086 68.6479 69.1875 66.5768 69.1875C64.5057 69.1875 62.8268 67.5086 62.8268 65.4375V62.4375V57.375V54.375C62.8268 52.9253 61.6516 51.75 60.2018 51.75C58.7521 51.75 57.5768 52.9253 57.5768 54.375V62.4375V63.9375C57.5768 66.0086 55.8979 67.6875 53.8268 67.6875C51.7557 67.6875 50.0768 66.0086 50.0768 63.9375V62.4375V54.375V39.1875C50.0768 37.6342 48.8176 36.375 47.2643 36.375C45.711 36.375 44.4518 37.6342 44.4518 39.1875L44.4518 49.875Z" fill="url(#paint0_linear)"/>
<path opacity="0.5" fill-rule="evenodd" clip-rule="evenodd" d="M48.341 20.6674C45.4099 20.4729 42.473 20.9497 39.7539 22.0614C37.0348 23.1731 34.6051 24.8904 32.6498 27.0827C30.6944 29.275 29.265 31.8845 28.4702 34.7125C27.6755 37.5405 27.5363 40.5126 28.0634 43.4025C28.5905 46.2925 29.7698 49.0241 31.5118 51.3895C32.7399 53.0571 32.3835 55.4046 30.7159 56.6327C29.0482 57.8608 26.7008 57.5045 25.4726 55.8368C23.0542 52.5528 21.4168 48.7604 20.6851 44.7482C19.9534 40.736 20.1465 36.6097 21.25 32.6834C22.3534 28.7571 24.3379 25.1342 27.0526 22.0905C29.7673 19.0469 33.1405 16.6626 36.9156 15.1192C40.6907 13.5757 44.7681 12.9138 48.8375 13.1838C52.907 13.4538 56.8612 14.6486 60.3993 16.6772C63.9374 18.7059 66.9661 21.5149 69.2548 24.8906C71.5436 28.2662 73.0321 32.1195 73.6072 36.1571C73.8992 38.2075 72.4737 40.1064 70.4233 40.3984C68.373 40.6904 66.4741 39.265 66.1821 37.2146C65.7679 34.3063 64.6957 31.5309 63.0472 29.0995C61.3986 26.6681 59.2171 24.6448 56.6687 23.1836C54.1203 21.7224 51.2722 20.8618 48.341 20.6674Z" fill="url(#paint1_linear)"/>
<path opacity="0.2" fill-rule="evenodd" clip-rule="evenodd" d="M36.5592 1.40591C42.344 -0.170986 48.4097 -0.425106 54.3061 0.662399C60.2026 1.7499 65.7785 4.15112 70.6202 7.6879C75.462 11.2247 79.4452 15.8063 82.2744 21.0927C85.1036 26.3791 86.7062 32.2348 86.9633 38.2252C87.0521 40.2943 85.4467 42.0437 83.3775 42.1325C81.3083 42.2213 79.559 40.6159 79.4702 38.5467C79.2614 33.6813 77.9597 28.9253 75.6618 24.6316C73.3639 20.3379 70.1287 16.6168 66.1963 13.7442C62.2638 10.8716 57.735 8.92128 52.9458 8.03801C48.1567 7.15473 43.2301 7.36112 38.5316 8.64189C33.8331 9.92265 29.4833 12.2449 25.8049 15.4364C22.1265 18.6278 19.2139 22.6065 17.2832 27.0774C15.3524 31.5482 14.4532 36.3964 14.6521 41.2623C14.851 46.1282 16.1429 50.8868 18.4321 55.1851C19.4056 57.0131 18.7129 59.2842 16.8849 60.2577C15.0569 61.2313 12.7859 60.5386 11.8123 58.7106C8.99388 53.4184 7.40321 47.5595 7.15833 41.5686C6.91344 35.5777 8.02064 29.6085 10.3978 24.104C12.7749 18.5994 16.3609 13.7007 20.8899 9.77135C25.4188 5.84199 30.7743 2.9828 36.5592 1.40591Z" fill="url(#paint2_linear)"/>
<defs>
<linearGradient id="paint0_linear" x1="18.3642" y1="36.1162" x2="89.538" y2="109.433" gradientUnits="userSpaceOnUse">
<stop stop-color="#03A9F4"/>
<stop offset="1" stop-color="#50D0F1"/>
</linearGradient>
<linearGradient id="paint1_linear" x1="22.9429" y1="16.8635" x2="58.4324" y2="63.2115" gradientUnits="userSpaceOnUse">
<stop stop-color="#03A9F4"/>
<stop offset="1" stop-color="#50D0F1"/>
</linearGradient>
<linearGradient id="paint2_linear" x1="11.1517" y1="5.12946" x2="58.605" y2="72.6674" gradientUnits="userSpaceOnUse">
<stop stop-color="#03A9F4"/>
<stop offset="1" stop-color="#50D0F1"/>
</linearGradient>
</defs>
</svg>
