<svg width="80" height="80" viewBox="0 0 80 80" fill="none" xmlns="http://www.w3.org/2000/svg">
<path fill-rule="evenodd" clip-rule="evenodd" d="M22.5 23.75C22.5 19.6079 25.8579 16.25 30 16.25H60C64.1421 16.25 67.5 19.6079 67.5 23.75V56.25C67.5 60.3921 64.1421 63.75 60 63.75H20C15.8579 63.75 12.5 60.3921 12.5 56.25V31.25C12.5 27.1079 15.8579 23.75 20 23.75H22.5ZM22.5 28.75H20C18.6193 28.75 17.5 29.8693 17.5 31.25V56.25C17.5 57.6307 18.6193 58.75 20 58.75C21.3807 58.75 22.5 57.6307 22.5 56.25V28.75ZM27.0732 58.75H60C61.3807 58.75 62.5 57.6307 62.5 56.25V23.75C62.5 22.3693 61.3807 21.25 60 21.25H30C28.6193 21.25 27.5 22.3693 27.5 23.75V56.25C27.5 57.1266 27.3496 57.9681 27.0732 58.75Z" fill="url(#paint0_linear)"/>
<path opacity="0.5" fill-rule="evenodd" clip-rule="evenodd" d="M32.5 30C32.5 27.9289 34.1789 26.25 36.25 26.25H53.75C55.8211 26.25 57.5 27.9289 57.5 30C57.5 32.0711 55.8211 33.75 53.75 33.75H36.25C34.1789 33.75 32.5 32.0711 32.5 30ZM32.5 41.25C32.5 39.8693 33.6193 38.75 35 38.75H55C56.3807 38.75 57.5 39.8693 57.5 41.25C57.5 42.6307 56.3807 43.75 55 43.75H35C33.6193 43.75 32.5 42.6307 32.5 41.25ZM35 48.75C33.6193 48.75 32.5 49.8693 32.5 51.25C32.5 52.6307 33.6193 53.75 35 53.75H55C56.3807 53.75 57.5 52.6307 57.5 51.25C57.5 49.8693 56.3807 48.75 55 48.75H35Z" fill="url(#paint1_linear)"/>
<defs>
<linearGradient id="paint0_linear" x1="15.2738" y1="20.2641" x2="53.7636" y2="68.486" gradientUnits="userSpaceOnUse">
<stop stop-color="#03A9F4"/>
<stop offset="1" stop-color="#50D0F1"/>
</linearGradient>
<linearGradient id="paint1_linear" x1="33.7608" y1="28.5739" x2="56.6098" y2="51.0492" gradientUnits="userSpaceOnUse">
<stop stop-color="#03A9F4"/>
<stop offset="1" stop-color="#50D0F1"/>
</linearGradient>
</defs>
</svg>
