<svg width="120" height="121" viewBox="0 0 120 121" fill="none" xmlns="http://www.w3.org/2000/svg">
<rect opacity="0.2" x="38.0326" y="45.4099" width="31.7955" height="7.5" rx="3.75" transform="rotate(-15 38.0326 45.4099)" fill="url(#paint0_linear)"/>
<rect opacity="0.2" x="41.5267" y="58.45" width="25.2348" height="7.49999" rx="3.74999" transform="rotate(-15 41.5267 58.45)" fill="url(#paint1_linear)"/>
<rect opacity="0.2" x="45.0207" y="71.49" width="31.2213" height="7.5" rx="3.75" transform="rotate(-15 45.0207 71.49)" fill="url(#paint2_linear)"/>
<path fill-rule="evenodd" clip-rule="evenodd" d="M58.9876 14.9484C59.0201 15.0698 59.0499 15.1912 59.0772 15.3126L61.9824 14.5342C63.9744 14.0004 66.0009 14.5346 67.4542 15.7856L71.3551 14.7404C76.9824 13.2326 82.7475 15.9857 85.225 21.0221L79.6909 28.4632L78.8076 25.1668C78.1644 22.7662 75.6969 21.3416 73.2963 21.9848L70.3985 22.7613C71.2561 25.9621 69.3566 29.2521 66.1558 30.1097L42.6114 36.4184C39.4106 37.2761 36.1206 35.3766 35.2629 32.1758L32.7274 32.8552C30.3268 33.4985 28.9022 35.966 29.5454 38.3666L44.2981 93.4243C44.9413 95.8249 47.4088 97.2496 49.8094 96.6063L90.3783 85.7359C92.7789 85.0927 94.2035 82.6252 93.5603 80.2246L88.807 62.4852L94.6475 55.3043L100.805 78.2834C102.52 84.685 98.721 91.2651 92.3194 92.9804L51.7506 103.851C45.349 105.566 38.7689 101.767 37.0536 95.3655L22.301 40.3077C20.5857 33.9061 24.3846 27.3261 30.7862 25.6108L34.3249 24.6626C34.958 22.8525 36.446 21.3766 38.438 20.8429L41.7054 19.9674C41.6682 19.8486 41.6334 19.7285 41.6009 19.6072C40.3144 14.806 43.1637 9.87093 47.9649 8.58446C52.7661 7.29798 57.7011 10.1472 58.9876 14.9484ZM53.9165 16.3072C54.4525 18.3077 53.2653 20.364 51.2648 20.9C49.2643 21.4361 47.2081 20.2489 46.6721 18.2484C46.136 16.2479 47.3232 14.1916 49.3237 13.6556C51.3242 13.1196 53.3805 14.3067 53.9165 16.3072Z" fill="url(#paint3_linear)"/>
<path fill-rule="evenodd" clip-rule="evenodd" d="M93.6804 17.8272L91.89 20.2344L90.0997 22.6416L71.1869 48.0714L72.2866 55.215L73.1996 61.1451L79.1297 60.232L86.1209 59.1556L105.036 33.7503L106.828 31.344L108.618 28.9368L113.519 22.3465C114.53 20.9876 114.248 19.0667 112.889 18.0561L102.872 10.6064C101.513 9.59573 99.5924 9.87804 98.5818 11.2369L93.6804 17.8272ZM100.222 30.1697L82.777 53.5997L78.2168 54.3019L77.4988 49.6386L94.9142 26.2223L100.222 30.1697ZM98.4948 21.4078L103.804 25.3561L106.954 21.1198L101.645 17.1715L98.4948 21.4078Z" fill="url(#paint4_linear)"/>
<defs>
<linearGradient id="paint0_linear" x1="39.6362" y1="46.0437" x2="42.2302" y2="57.943" gradientUnits="userSpaceOnUse">
<stop stop-color="#03A9F4"/>
<stop offset="1" stop-color="#50D0F1"/>
</linearGradient>
<linearGradient id="paint1_linear" x1="42.7994" y1="59.0837" x2="45.983" y2="70.674" gradientUnits="userSpaceOnUse">
<stop stop-color="#03A9F4"/>
<stop offset="1" stop-color="#50D0F1"/>
</linearGradient>
<linearGradient id="paint2_linear" x1="46.5953" y1="72.1238" x2="49.2326" y2="84.0031" gradientUnits="userSpaceOnUse">
<stop stop-color="#03A9F4"/>
<stop offset="1" stop-color="#50D0F1"/>
</linearGradient>
<linearGradient id="paint3_linear" x1="21.3386" y1="23.8553" x2="108.295" y2="59.9091" gradientUnits="userSpaceOnUse">
<stop stop-color="#03A9F4"/>
<stop offset="1" stop-color="#50D0F1"/>
</linearGradient>
<linearGradient id="paint4_linear" x1="111.658" y1="23.2763" x2="81.4942" y2="13.7269" gradientUnits="userSpaceOnUse">
<stop stop-color="#03A9F4"/>
<stop offset="1" stop-color="#50D0F1"/>
</linearGradient>
</defs>
</svg>
