<svg width="161" height="40" viewBox="0 0 161 40" fill="none" xmlns="http://www.w3.org/2000/svg">
<path d="M6.16143 39.5527H0V0.397504L6.16143 0.794827V39.5527Z" fill="#686C74"/>
<path d="M16.248 39.5527H10.0866V11.6273L16.248 11.9751V39.5527ZM13.1673 3.13028C15.1052 3.13028 16.6952 4.72038 16.6952 6.65823C16.6952 8.59636 15.1052 10.1865 13.1673 10.1865C11.2294 10.1865 9.6394 8.59636 9.6394 6.65823C9.6394 4.72038 11.2294 3.13028 13.1673 3.13028Z" fill="#686C74"/>
<path d="M30.9558 17.2421V23.4036H26.3347V39.5259H20.1732V8.89436C20.1732 4.22374 24.0489 0 28.6204 0C30.1606 0 31.403 0.447425 31.7012 0.645952L31.4525 6.55892H28.6204C27.378 6.55892 26.3347 7.60246 26.3347 8.89436V17.2421H30.9558Z" fill="#686C74"/>
<path d="M39.6097 22.6084H44.2308V19.7267C44.2308 18.4346 43.1872 17.3912 41.9449 17.3912C40.653 17.3912 39.6097 18.4346 39.6097 19.7267V22.6084ZM33.4481 19.7267C33.4481 15.0556 37.2244 11.2297 41.9449 11.2297C46.6158 11.2297 50.3921 15.0556 50.3921 19.7267V25.6895C50.3921 27.4284 49.0008 28.7699 47.3116 28.7699H39.6097V31.4533C39.6097 32.7449 40.653 33.7887 41.9449 33.7887H47.8581L48.0569 39.0062L42.4917 39.8507C37.125 40.7452 33.4481 36.1239 33.4481 31.4533V19.7267Z" fill="#686C74"/>
<path d="M55.661 39.5527V0.645873H59.6364V12.4718C60.7295 12.124 62.4686 11.9751 63.6611 11.9751C67.8848 11.9751 71.1641 15.8011 71.1641 20.1242V39.5527H67.2884V20.1242C67.2884 17.9874 65.5494 16.298 63.4127 16.298H59.6364V39.5527H55.661Z" fill="#686C74"/>
<path d="M85.7068 32.0498V25.3416H81.8807C79.7443 25.3416 78.0548 27.0312 78.0548 29.1675V32.0498C78.0548 34.1861 79.7443 35.9252 81.8807 35.9252C84.0176 35.9252 85.7068 34.1861 85.7068 32.0498ZM85.7068 19.4782C85.7068 17.2421 84.6633 15.4532 81.8311 15.7517H81.8807C80.2906 15.8012 78.2536 16 76.5641 16.0993C76.5146 14.6583 76.4647 14.1118 76.4152 13.0187C77.7566 12.5217 79.6945 12.0247 81.3344 11.9752C86.3032 11.8758 89.5828 15.9007 89.5828 20.2234V32.0498C89.5828 36.3228 86.1543 39.8508 81.8807 39.8508C77.6077 39.8508 74.0797 36.3228 74.0797 32.0498V29.6149C74.0797 25.3416 77.0113 22.1119 81.8807 22.1119C83.7194 22.1119 84.6633 22.3107 85.7068 22.6085V19.4782Z" fill="#686C74"/>
<path d="M100.715 11.9751C104.989 11.9751 108.516 15.4532 108.516 19.7763V20.2733C106.976 20.323 105.734 20.323 104.591 20.3726V19.7763C104.591 17.6894 102.852 15.9504 100.715 15.9504C98.6281 15.9504 96.9384 17.6894 96.9384 19.7763V32.1988C96.9384 34.385 98.6281 36.0249 100.715 36.0249C102.802 36.0249 104.541 34.4347 104.591 32.3476C106.529 32.4969 108.367 32.5963 108.516 32.5963C108.317 36.7204 104.839 40 100.715 40C96.4419 40 92.9633 36.5216 92.9633 32.1988V19.7763C92.9633 15.4532 96.4419 11.9751 100.715 11.9751Z" fill="#686C74"/>
<path d="M124.178 39.5527L116.625 26.3848C115.879 25.0932 115.879 24.944 116.774 23.4035L123.432 12.3727H127.954L120.451 25.0932L128.55 39.5527H124.178ZM115.631 0.745266V39.5527H111.656V0.745266H115.631Z" fill="#686C74"/>
<path d="M133.363 23.9999H141.015V19.8259C141.015 17.6894 139.276 15.9504 137.189 15.9504C135.052 15.9504 133.363 17.6894 133.363 19.8259V23.9999ZM129.388 19.8259C129.388 15.5031 132.866 11.9752 137.189 11.9752C141.462 11.9752 144.941 15.5031 144.941 19.8259V25.9379C144.941 27.0809 144.046 27.9254 142.953 27.9254H133.363V32.1489C133.363 34.2855 135.052 36.0249 137.189 36.0249H142.208C142.257 37.3165 142.307 38.2114 142.406 39.1054L137.636 39.8508C132.767 40.6955 129.388 36.4721 129.388 32.1489V19.8259Z" fill="#686C74"/>
<path d="M152.402 39.5527H148.427V20.1738C148.427 15.8507 151.806 11.8261 156.775 11.9252C158.464 11.9751 159.508 12.3727 160.651 12.9192C160.601 14.1117 160.551 15.1055 160.502 15.9999L156.179 15.9006C154.092 15.9006 152.402 18.1367 152.402 20.1738V39.5527Z" fill="#686C74"/>
</svg>
