<svg width="140" height="35" viewBox="0 0 140 35" fill="none" xmlns="http://www.w3.org/2000/svg">
<g clip-path="url(#clip0)">
<path d="M5.36943 34.4679H0V0.345789L5.36943 0.692039V34.4679Z" fill="#B8C3C9"/>
<path d="M14.1588 34.4679H8.78936V10.1321L14.1588 10.4352V34.4679ZM11.4741 2.72729C13.1629 2.72729 14.5485 4.11299 14.5485 5.80175C14.5485 7.49075 13.1629 8.87645 11.4741 8.87645C9.78529 8.87645 8.39966 7.49075 8.39966 5.80175C8.39966 4.11299 9.78529 2.72729 11.4741 2.72729Z" fill="#B8C3C9"/>
<path d="M26.9769 15.0251V20.3945H22.9498V34.4444H17.5803V7.75036C17.5803 3.6801 20.9578 -0.000712058 24.9417 -0.000712058C26.2839 -0.000712058 27.3666 0.389201 27.6265 0.562209L27.4098 5.71511H24.9417C23.859 5.71511 22.9498 6.62452 22.9498 7.75036V15.0251H26.9769Z" fill="#B8C3C9"/>
<path d="M34.518 19.7017H38.5451V17.1903C38.5451 16.0643 37.6357 15.155 36.553 15.155C35.4272 15.155 34.518 16.0643 34.518 17.1903V19.7017ZM29.1484 17.1903C29.1484 13.1197 32.4393 9.78559 36.553 9.78559C40.6235 9.78559 43.9144 13.1197 43.9144 17.1903V22.3867C43.9144 23.9021 42.702 25.0711 41.2299 25.0711H34.518V27.4096C34.518 28.5352 35.4272 29.4448 36.553 29.4448H41.7062L41.8794 33.9916L37.0296 34.7276C32.3527 35.5071 29.1484 31.4798 29.1484 27.4096V17.1903Z" fill="#B8C3C9"/>
<path d="M48.5061 34.4679V0.562229H51.9705V10.868C52.9231 10.565 54.4386 10.4352 55.4778 10.4352C59.1586 10.4352 62.0164 13.7694 62.0164 17.5368V34.4679H58.6389V17.5368C58.6389 15.6747 57.1234 14.2024 55.2614 14.2024H51.9705V34.4679H48.5061Z" fill="#B8C3C9"/>
<path d="M74.6894 27.9292V22.0833H71.3551C69.4933 22.0833 68.021 23.5557 68.021 25.4174V27.9292C68.021 29.7909 69.4933 31.3065 71.3551 31.3065C73.2174 31.3065 74.6894 29.7909 74.6894 27.9292ZM74.6894 16.9736C74.6894 15.025 73.78 13.466 71.3119 13.7261H71.3551C69.9694 13.7693 68.1943 13.9425 66.7219 14.0291C66.6787 12.7733 66.6353 12.297 66.5921 11.3444C67.7612 10.9113 69.4499 10.4782 70.879 10.435C75.2092 10.3484 78.0672 13.8559 78.0672 17.623V27.9292C78.0672 31.6529 75.0794 34.7275 71.3551 34.7275C67.6313 34.7275 64.5569 31.6529 64.5569 27.9292V25.8073C64.5569 22.0833 67.1116 19.2687 71.3551 19.2687C72.9575 19.2687 73.78 19.442 74.6894 19.7015V16.9736Z" fill="#B8C3C9"/>
<path d="M87.7697 10.4351C91.4939 10.4351 94.5682 13.4661 94.5682 17.2335V17.6666C93.2259 17.7099 92.1432 17.7099 91.1475 17.7531V17.2335C91.1475 15.4149 89.6317 13.8994 87.7697 13.8994C85.9511 13.8994 84.4785 15.4149 84.4785 17.2335V28.0591C84.4785 29.9643 85.9511 31.3934 87.7697 31.3934C89.5885 31.3934 91.104 30.0077 91.1475 28.1889C92.836 28.319 94.4384 28.4055 94.5682 28.4055C94.3949 31.9995 91.3639 34.8576 87.7697 34.8576C84.0459 34.8576 81.0144 31.8263 81.0144 28.0591V17.2335C81.0144 13.4661 84.0459 10.4351 87.7697 10.4351Z" fill="#B8C3C9"/>
<path d="M108.217 34.4679L101.635 22.9926C100.985 21.867 100.985 21.737 101.765 20.3946L107.567 10.7816H111.508L104.969 21.867L112.027 34.4679H108.217ZM100.769 0.648846V34.4679H97.3044V0.648846H100.769Z" fill="#B8C3C9"/>
<path d="M116.22 20.9142H122.888V17.2768C122.888 15.4149 121.372 13.8994 119.554 13.8994C117.692 13.8994 116.22 15.4149 116.22 17.2768V20.9142ZM112.755 17.2768C112.755 13.5096 115.787 10.4352 119.554 10.4352C123.278 10.4352 126.309 13.5096 126.309 17.2768V22.6031C126.309 23.5992 125.53 24.3352 124.577 24.3352H116.22V28.0157C116.22 29.8777 117.692 31.3935 119.554 31.3935H123.927C123.971 32.5191 124.014 33.299 124.101 34.078L119.944 34.7276C115.7 35.4638 112.755 31.7832 112.755 28.0157V17.2768Z" fill="#B8C3C9"/>
<path d="M132.812 34.4679H129.348V17.58C129.348 13.8126 132.293 10.3053 136.623 10.3917C138.095 10.4352 139.004 10.7816 140 11.2579C139.957 12.2971 139.914 13.1632 139.871 13.9426L136.103 13.8561C134.284 13.8561 132.812 15.8047 132.812 17.58V34.4679Z" fill="#B8C3C9"/>
</g>
<defs>
<clipPath id="clip0">
<rect width="140" height="34.8574" fill="white"/>
</clipPath>
</defs>
</svg>
