<svg width="272" height="54" viewBox="0 0 272 54" fill="none" xmlns="http://www.w3.org/2000/svg">
<path fill-rule="evenodd" clip-rule="evenodd" d="M78.2402 28.3034C81.3482 28.3034 82.9022 26.6224 82.9022 23.0524C82.9022 19.3974 81.3482 18.0114 78.3242 18.0114H76.8112V28.3034H78.2402ZM70.3432 42.0394V12.6344H78.3242C85.5072 12.6344 89.3722 16.0364 89.3722 22.8424C89.3722 30.4454 84.7932 33.5964 78.4922 33.5964H76.8532V42.0394H70.3432Z" fill="white"/>
<path fill-rule="evenodd" clip-rule="evenodd" d="M99.0723 24.9841C97.1813 24.9841 96.0063 27.0011 96.0063 31.1181C96.0063 35.2761 97.2233 37.3351 99.1563 37.3351C101.046 37.3351 102.264 35.2761 102.264 31.1601C102.264 27.0011 101.004 24.9841 99.0723 24.9841ZM99.1143 42.4601C94.1573 42.4601 90.2083 38.6361 90.2083 31.2021C90.2083 23.6821 94.1993 19.8171 99.1563 19.8171C104.071 19.8171 108.061 23.6821 108.061 31.1181C108.061 38.5941 104.071 42.4601 99.1143 42.4601Z" fill="white"/>
<path fill-rule="evenodd" clip-rule="evenodd" d="M119.105 42.3757C113.266 42.3757 109.821 38.3007 109.821 31.2017C109.821 24.2707 113.35 19.9017 119.441 19.9017C121.374 19.9017 122.843 20.2797 124.272 20.8257L123.347 26.1187C122.339 25.6567 121.164 25.2787 119.945 25.2787C117.13 25.2787 115.661 27.7147 115.661 31.1177C115.661 34.8137 117.13 36.9987 120.029 36.9987C121.122 36.9987 122.255 36.6627 123.473 36.2007L124.398 41.2827C122.927 41.9137 120.996 42.3757 119.105 42.3757Z" fill="white"/>
<path fill-rule="evenodd" clip-rule="evenodd" d="M132.88 31.6217V42.0397H126.789V11.7517H132.88V29.6887L137.837 20.2797H144.516L138.593 30.6977L144.684 42.0397H137.921L132.88 31.6217Z" fill="white"/>
<path fill-rule="evenodd" clip-rule="evenodd" d="M155.644 29.6891C155.518 26.4131 154.551 24.4801 152.704 24.4801C150.813 24.4801 149.847 26.4971 149.72 29.6891H155.644ZM144.049 31.2441C144.049 23.7661 147.873 19.8171 152.704 19.8171C157.828 19.8171 161.274 23.7241 161.274 31.3701V33.3441H149.72C149.931 36.3271 151.569 37.7961 154.257 37.7961C155.854 37.7961 157.744 37.2931 159.466 36.4951L160.559 40.7791C158.458 41.8301 155.98 42.3761 153.627 42.3761C148.292 42.3761 144.049 39.5611 144.049 31.2441Z" fill="white"/>
<path fill-rule="evenodd" clip-rule="evenodd" d="M164.756 35.528V25.279H162.403V20.28H164.756V14.567H170.805V20.28H175.426V25.279H170.805V34.646C170.805 36.453 171.772 37.209 173.409 37.209C174.124 37.209 174.754 37.083 175.426 36.915V41.872C174.502 42.166 173.199 42.334 171.688 42.334C167.067 42.334 164.756 40.443 164.756 35.528Z" fill="white"/>
<path fill-rule="evenodd" clip-rule="evenodd" d="M196.09 42.3757C188.444 42.3757 183.655 37.5027 183.655 27.3787C183.655 17.6337 188.57 12.2987 196.132 12.2987C198.653 12.2987 200.753 12.8027 202.391 13.4327L201.383 19.3967C200.081 18.8517 198.569 18.3477 196.762 18.3477C192.73 18.3477 190.335 21.5397 190.335 27.2947C190.335 33.2177 192.604 36.3267 196.888 36.3267C198.527 36.3267 200.081 35.9057 201.425 35.3177L202.475 41.1147C200.669 41.8717 198.443 42.3757 196.09 42.3757Z" fill="white"/>
<path fill-rule="evenodd" clip-rule="evenodd" d="M214.694 37.4186V32.2516C214.106 32.1256 213.434 32.0836 212.72 32.0836C211.46 32.0836 210.746 32.3356 210.242 32.7976C209.78 33.3026 209.527 34.0586 209.527 35.1496C209.527 37.3346 210.494 38.2166 212.173 38.2166C213.014 38.2166 213.896 37.8806 214.694 37.4186ZM209.654 42.3336C206.251 42.3336 203.856 40.1486 203.856 35.4436C203.856 33.3446 204.445 31.5796 205.579 30.4866C206.797 29.2276 208.603 28.5976 211.334 28.5976C212.51 28.5976 213.686 28.7656 214.694 28.9756V27.7566C214.694 25.9086 213.854 24.8996 211.586 24.8996C209.822 24.8996 207.931 25.4046 206.251 26.1186L205.117 21.4976C207.301 20.6156 209.864 19.9436 212.678 19.9436C218.181 19.9436 220.66 22.2956 220.66 27.2946V38.1746L221.122 42.0396H215.829L215.073 40.1486C213.476 41.5356 211.922 42.3336 209.654 42.3336Z" fill="white"/>
<path fill-rule="evenodd" clip-rule="evenodd" d="M230.989 42.4176C228.049 42.4176 225.318 41.6616 222.966 40.4006L224.184 35.4856C226.495 36.7466 228.804 37.5026 230.905 37.5026C232.46 37.5026 233.3 36.8306 233.3 35.9056C233.3 34.9816 232.796 34.5626 229.855 33.3866C225.78 31.7476 223.764 30.1926 223.764 26.5386C223.764 22.5056 226.537 19.9016 231.409 19.9016C233.887 19.9016 236.156 20.4896 238.215 21.4976L236.996 26.4126C235.106 25.4466 233.174 24.8156 231.409 24.8156C230.107 24.8156 229.393 25.3626 229.393 26.2446C229.393 27.0846 229.855 27.5046 232.754 28.6816C237.333 30.4866 238.928 32.1676 238.928 35.6116C238.928 40.1486 235.736 42.4176 230.989 42.4176Z" fill="white"/>
<path fill-rule="evenodd" clip-rule="evenodd" d="M242.622 35.528V25.279H240.269V20.28H242.622V14.567H248.671V20.28H253.292V25.279H248.671V34.646C248.671 36.453 249.638 37.209 251.275 37.209C251.99 37.209 252.62 37.083 253.292 36.915V41.872C252.368 42.166 251.065 42.334 249.554 42.334C244.933 42.334 242.622 40.443 242.622 35.528Z" fill="white"/>
<path fill-rule="evenodd" clip-rule="evenodd" d="M263.371 42.4176C260.431 42.4176 257.7 41.6616 255.348 40.4006L256.566 35.4856C258.877 36.7466 261.186 37.5026 263.287 37.5026C264.842 37.5026 265.682 36.8306 265.682 35.9056C265.682 34.9816 265.178 34.5626 262.237 33.3866C258.162 31.7476 256.146 30.1926 256.146 26.5386C256.146 22.5056 258.919 19.9016 263.791 19.9016C266.269 19.9016 268.538 20.4896 270.597 21.4976L269.378 26.4126C267.488 25.4466 265.556 24.8156 263.791 24.8156C262.489 24.8156 261.775 25.3626 261.775 26.2446C261.775 27.0846 262.237 27.5046 265.136 28.6816C269.715 30.4866 271.31 32.1676 271.31 35.6116C271.31 40.1486 268.118 42.4176 263.371 42.4176Z" fill="white"/>
<path opacity="0.3" fill-rule="evenodd" clip-rule="evenodd" d="M54 27C54 41.912 41.912 54 27 54C12.088 54 0 41.912 0 27C0 12.088 12.088 0 27 0C41.912 0 54 12.088 54 27Z" fill="white"/>
<path fill-rule="evenodd" clip-rule="evenodd" d="M6 27C6 15.402 15.402 6 27 6C38.598 6 48 15.402 48 27H42.75C42.75 18.3015 35.6985 11.25 27 11.25C18.3015 11.25 11.25 18.3015 11.25 27C11.25 35.6985 18.3015 42.75 27 42.75V48C15.402 48 6 38.598 6 27ZM27 39.6C20.0412 39.6 14.4 33.9588 14.4 27C14.4 20.0412 20.0412 14.4 27 14.4C33.9588 14.4 39.6 20.0412 39.6 27H35.0182C35.0182 22.5717 31.4283 18.9818 27 18.9818C22.5717 18.9818 18.9818 22.5717 18.9818 27C18.9818 31.4283 22.5717 35.0182 27 35.0182V39.6Z" fill="white"/>
</svg>
