<svg width="184" height="50" viewBox="0 0 184 50" fill="none" xmlns="http://www.w3.org/2000/svg">
<g clip-path="url(#clip0)">
<path d="M23.0526 12.4327L46 0L45.9838 25.0167L25.6391 36.0931L2.73297 23.5096L2.8027 23.4514L23.0526 12.4327Z" fill="#B8C3C9"/>
<path opacity="0.5" d="M2.73295 23.5101L43.3177 45.769L43.3243 26.5452L43.3357 26.4817L45.9838 25.0167L45.9976 50L23.0611 37.5188L22.9696 37.495L0.0393185 24.9944L0.0293579 0.176453L22.869 12.2863L23.0977 12.408L20.5321 13.8017L2.70022 4.36384L2.71066 23.3884L2.73295 23.5101Z" fill="#B8C3C9"/>
<path d="M0.0394178 24.9944L22.9697 37.495L0.02756 50.0005L0.0266113 25.0351L0.0394178 24.9944Z" fill="#B8C3C9"/>
<path d="M0.0294583 0.45813C0.0285097 0.476551 0.0275611 0.494487 0.0261381 0.512908C0.0223436 0.49982 0.0166518 0.487216 0.0157032 0.474127C0.0152289 0.469279 0.0247152 0.463462 0.0294583 0.45813Z" fill="#B8C3C9"/>
<path d="M0.0265616 25.0352C0.0279846 25.0516 0.0298818 25.0681 0.0313048 25.0846C0.0208699 25.0865 0.0104349 25.0885 0 25.0904C0.00901198 25.072 0.018024 25.0536 0.0265616 25.0352Z" fill="#B8C3C9"/>
<path d="M0 25.0909C0.0104349 25.0889 0.0208699 25.087 0.0313048 25.0851C0.0298818 25.103 0.0289332 25.1209 0.0275103 25.1394C0.0184983 25.1229 0.00901198 25.1069 0 25.0909Z" fill="#B8C3C9"/>
<path d="M2.71069 23.3884C2.74152 23.4093 2.77188 23.4301 2.80271 23.4514C2.77947 23.4708 2.75623 23.4902 2.73299 23.5101C2.72587 23.4694 2.71828 23.4291 2.71069 23.3884Z" fill="#B8C3C9"/>
<path d="M43.3244 26.5452C43.3149 26.5296 43.3059 26.5136 43.2964 26.4981C43.3082 26.4889 43.3215 26.4836 43.3358 26.4817C43.332 26.503 43.3282 26.5238 43.3244 26.5452Z" fill="#B8C3C9"/>
</g>
<path d="M71.9023 12.8281L78.875 31.3555L85.8311 12.8281H91.2598V37H87.0762V29.0312L87.4912 18.373L80.3525 37H77.3477L70.2256 18.3896L70.6406 29.0312V37H66.457V12.8281H71.9023ZM103.18 26.5576L100.44 29.4629V37H96.2402V12.8281H100.44V24.167L102.765 21.2949L109.837 12.8281H114.917L105.936 23.5361L115.432 37H110.451L103.18 26.5576ZM117.689 37V12.8281H125.974C128.707 12.8281 130.788 13.376 132.216 14.4717C133.644 15.5674 134.357 17.1999 134.357 19.3691C134.357 20.4759 134.059 21.472 133.461 22.3574C132.863 23.2428 131.989 23.929 130.838 24.416C132.144 24.7702 133.151 25.4398 133.859 26.4248C134.579 27.3988 134.938 28.5719 134.938 29.9443C134.938 32.2132 134.208 33.9564 132.747 35.1738C131.297 36.3913 129.216 37 126.505 37H117.689ZM121.89 26.0928V33.6465H126.555C127.872 33.6465 128.901 33.32 129.643 32.667C130.384 32.014 130.755 31.1064 130.755 29.9443C130.755 27.432 129.471 26.1481 126.903 26.0928H121.89ZM121.89 23.0049H126.007C127.313 23.0049 128.331 22.7116 129.062 22.125C129.803 21.5273 130.174 20.6862 130.174 19.6016C130.174 18.4062 129.831 17.543 129.145 17.0117C128.469 16.4805 127.412 16.2148 125.974 16.2148H121.89V23.0049ZM158.33 37H154.146V26.2588H143.339V37H139.139V12.8281H143.339V22.8887H154.146V12.8281H158.33V37ZM163.311 37V12.8281H170.449C172.585 12.8281 174.478 13.304 176.127 14.2559C177.787 15.2077 179.071 16.5579 179.979 18.3066C180.886 20.0553 181.34 22.0586 181.34 24.3164V25.5283C181.34 27.8193 180.881 29.8337 179.962 31.5713C179.054 33.3089 177.754 34.6481 176.061 35.5889C174.378 36.5296 172.447 37 170.267 37H163.311ZM167.511 16.2148V33.6465H170.25C172.452 33.6465 174.14 32.9603 175.313 31.5879C176.498 30.2044 177.101 28.2233 177.123 25.6445V24.2998C177.123 21.6768 176.553 19.6735 175.413 18.29C174.273 16.9066 172.618 16.2148 170.449 16.2148H167.511Z" fill="#B8C3C9"/>
<defs>
<clipPath id="clip0">
<rect width="46" height="50" fill="white"/>
</clipPath>
</defs>
</svg>
