<svg width="45" height="61" viewBox="0 0 45 61" fill="none" xmlns="http://www.w3.org/2000/svg">
<path fill-rule="evenodd" clip-rule="evenodd" d="M45 60.7086V0.708649H0V60.7086H45ZM1.24976 2.02774V59.4082H43.7867V2.02774H1.24976ZM1.69392 6.69355V2.47191H43.3425V6.69355H38.6421C37.1473 5.40891 35.1101 4.81815 32.6297 4.81815C30.1413 4.81815 28.2079 5.43091 26.8001 6.69355H17.3667C15.5411 5.78072 13.2977 5.6507 11.5747 5.6507H3.84V6.69355H1.69392ZM3.84 7.13771H1.69392V11.7424H3.84V7.13771ZM10.3534 12.1856H13.6381C14.7225 12.8505 14.8317 14.862 14.8317 16.1913C14.8317 16.3871 14.8278 16.5878 14.8183 16.7906H10.3534V12.1856ZM3.84 12.1856H1.69392V16.7906H3.84V12.1856ZM3.84 17.2338H1.69392V21.8388H3.84V17.2338ZM3.84 22.282H1.69392V26.8867H3.84V22.282ZM10.3534 26.8867V26.8249C10.9285 26.7922 11.5138 26.7903 12.1021 26.7883C14.0129 26.782 15.9552 26.7755 17.6812 25.7153C18.9772 24.9665 19.8407 23.7393 20.4019 22.282H23.8955V26.8867H10.3534ZM10.3534 27.3299V31.9352H23.9527C23.9142 31.3511 23.8955 30.7413 23.8955 30.1067V27.3299H10.3534ZM3.84 27.3299V31.9352H1.69392V27.3299H3.84ZM3.84 32.3784H1.69392V36.9831H3.84V32.3784ZM3.84 37.4263V40.3243V40.3246H10.3534V37.4263H25.2857C26.5675 39.8581 28.7968 41.1559 32.2222 41.1559C36.0807 41.1559 38.6232 39.76 40.0796 37.4263H43.3425V42.031H1.69392V37.4263H3.84ZM40.3372 36.9831H43.3425V32.3784H41.5731C41.4409 34.1243 41.0404 35.6822 40.3372 36.9831ZM35.0094 31.9352C35.0923 31.2624 35.1089 30.559 35.1089 29.9219V27.3299H30.3816L30.372 31.8176C30.372 31.8572 30.3722 31.8964 30.3727 31.9352H35.0094ZM41.6008 31.9352C41.6154 31.6389 41.6226 31.3374 41.6226 31.0313V27.3299H43.3425V31.9352H41.6008ZM41.6226 26.8867H43.3425V22.282H30.3925L30.3826 26.8867H35.1089V26.7781H41.6226V26.8867ZM30.3934 21.8388H43.3425V17.2338H41.5119V17.7631H34.9979V17.2338H30.4033L30.3934 21.8388ZM30.4043 16.7906H34.9979V15.5441C34.9979 14.0602 34.7838 12.9368 34.4164 12.1856H30.8017C30.5068 12.7992 30.4089 13.643 30.4089 14.6657L30.4043 16.7906ZM24.1677 12.1856C23.9854 13.2845 23.8955 14.5107 23.8955 15.8674V16.7906H21.3357C21.3421 16.5432 21.3451 16.297 21.3451 16.0528C21.3451 14.7022 21.2772 13.4047 21.0398 12.1856H24.1677ZM24.2476 11.7424H20.945C20.6742 10.5837 20.2337 9.50102 19.5317 8.51715C19.1383 7.95546 18.6596 7.50257 18.1253 7.13771H26.351C25.3259 8.25453 24.6297 9.78323 24.2476 11.7424ZM31.0834 11.7424H34.1511C33.8169 11.2891 33.3989 11.0597 32.9253 11.0597C32.0552 11.0398 31.4692 11.2819 31.0834 11.7424ZM41.3292 12.1856C41.4501 12.9994 41.5119 13.8867 41.5119 14.8504V16.7906H43.3425V12.1856H41.3292ZM41.2563 11.7424C40.8972 9.7605 40.1671 8.24119 39.1107 7.13771H43.3425V11.7424H41.2563ZM21.3205 17.2338H23.8955V21.8388H20.5611C21.0366 20.4177 21.2528 18.8125 21.3205 17.2338ZM14.7884 17.2338H10.3534V20.5833C10.5512 20.5758 10.7539 20.5744 10.9591 20.5729C12.0206 20.5653 13.149 20.5571 14.0173 19.7049C14.4963 19.0401 14.7075 18.1361 14.7884 17.2338ZM30.3914 32.3784H34.9437C34.7006 33.7633 34.111 34.915 32.7035 34.915C31.1721 34.915 30.5091 33.9799 30.3914 32.3784ZM23.9862 32.3784H10.3534V36.9831H25.0682C24.4899 35.716 24.1392 34.1745 23.9862 32.3784ZM43.3425 42.4742H1.69392V58.9641H43.3425V42.4742ZM2.60522 45.7757V54.7913H4.21223L4.0582 47.7233H4.07746L5.24164 54.7913H6.5024L7.69546 47.7233H7.71472L7.54144 54.7913H9.15807V45.7757H6.79088L5.8863 51.1013H5.86705L4.99167 45.7757H2.60522ZM11.283 45.776L9.70486 54.7913H11.4085L11.6103 53.0367H12.9381L13.1785 54.7913H14.891L13.3225 45.776H11.283ZM12.2835 47.4106H12.3028L12.7745 51.4496H11.7929L12.2835 47.4106ZM18.6624 53.9982L18.7391 54.8029H19.894V49.899H17.5942V51.5214H18.2004V52.2311C18.2004 52.8081 18.1811 53.385 17.6038 53.385C17.161 53.385 16.9781 53.0842 16.9781 52.5794V48.1203C16.9781 47.5309 17.1036 47.1701 17.6327 47.1826C18.0852 47.1945 18.1619 47.5793 18.1619 48.3484V48.8413H19.8552V48.1678C19.8552 46.3286 18.9991 45.5595 17.5557 45.5595C16.0065 45.5595 15.2848 46.4729 15.2848 48.4321V52.1346C15.2848 53.7696 15.7469 55.0078 17.1806 55.0078C17.9119 55.0078 18.2966 54.7673 18.6432 53.9982H18.6624ZM21.9811 45.776L20.4033 54.7913H22.1062L22.3084 53.0367H23.6359L23.8765 54.7913H25.5894L24.0206 45.776H21.9811ZM22.9813 47.4106H23.0008L23.4719 51.4496H22.4906L22.9813 47.4106ZM29.7453 45.7757H25.9158V47.579H27.8976L25.7618 53.1807V54.7913H29.8412V52.9886H27.6476L29.7453 47.4587V45.7757ZM30.4271 45.7757V54.7913H32.1205V45.7757H30.4271ZM34.4764 49.7665L34.4954 49.7428L35.8139 54.7913H37.5457V45.7757H35.9387L36.1024 50.8123H36.0735L34.7649 45.7757H33.0238V54.7913H34.6301L34.4764 49.7665ZM38.4012 45.7757V54.7913H42.3946V52.9886H40.0952V51.041H42.2117V49.2377H40.0952V47.579H42.2788V45.7757H38.4012Z" fill="#B8C3C9"/>
</svg>
