<svg width="162" height="30" viewBox="0 0 162 30" fill="none" xmlns="http://www.w3.org/2000/svg">
<path d="M0 2.08517V9.55863H4.9998V29.2376H13.434V2.08517H0ZM27.6826 12.4142H23.7371V9.54231H25.7178V2.08517H15.3029V29.2376H23.7371V18.9739H27.6826V29.2376H36.1327V2.08517H27.6826V12.4142ZM37.9857 29.2376H53.6241V21.7642H46.0525V18.5986H50.8606V12.4142H46.0525V9.55863H53.6241V2.08517H37.9857V29.2376ZM120.091 11.272C120.091 5.41396 115.858 2.08517 109.836 2.08517H100.443V29.2213H108.877V22.27L113.702 29.2213H123.222L116.385 18.8107C118.861 17.44 120.091 14.9434 120.091 11.272ZM108.861 14.2907V10.913V9.24859C110.028 9.24859 111.465 9.60758 111.897 10.913C111.928 11.0272 111.96 11.1578 111.992 11.2883C111.992 11.3046 111.992 11.3209 112.008 11.3372C112.024 11.4678 112.04 11.6146 112.04 11.7778C112.04 13.7849 110.251 14.2907 108.861 14.2907ZM70.3327 18.6312H70.2528L69.6458 16.3957L67.7609 9.57494H71.0834L73.2719 2.10149H56.4195L66.0836 29.2376H74.7414L75.7797 26.3331C75.7797 26.3331 80.4121 13.5075 82.936 6.52355V29.2376H98.5744V21.7642H91.0028V18.5986H95.8109V12.4142H91.0028V9.55863H98.5744V2.08517H75.2206L70.3327 18.6312ZM161 9.57494V2.10149H145.362V29.2376H161V21.7642H153.412V18.5986H158.237V12.4305H153.412V9.57494H161ZM143.748 23.5428V12.4795H131.816V18.6475H136.257V20.8504C135.921 21.1604 135.186 21.3236 134.436 21.3236C131.337 21.3236 129.052 18.827 129.052 15.7919C129.052 12.7569 131.273 10.0482 134.372 10.0482C136.241 10.0482 140.681 10.0645 140.681 10.0645V2.0199H138.653C134.883 2.0199 131.113 1.70986 127.663 3.53743C124.931 4.97338 122.775 7.42102 121.625 10.3256C120.954 12.0389 120.618 13.8828 120.618 15.7267C120.618 23.4286 126.529 29.9067 134.196 29.9067C137.998 29.9067 141.704 28.4544 143.732 26.6432C143.748 24.7503 143.748 24.4729 143.748 23.5428Z" fill="#B8C3C9"/>
</svg>
