<svg width="200" height="29" viewBox="0 0 200 29" fill="none" xmlns="http://www.w3.org/2000/svg">
<path d="M14.9189 3.31419C14.9189 1.02847 12.8649 0.457047 11.2432 0.457047V0.799904C12.2162 0.799904 12.973 1.14276 12.973 1.94276C12.973 2.3999 12.6486 3.08562 11.6757 3.08562C10.9189 3.08562 9.2973 2.62847 8.10811 2.17133C6.7027 1.5999 5.40541 1.14276 4.32432 1.14276C2.16216 1.14276 0.648649 2.85705 0.648649 4.7999C0.648649 6.51419 1.83784 7.08562 2.27027 7.31419L2.37838 7.08562C2.16216 6.85705 1.83784 6.62847 1.83784 5.94276C1.83784 5.48562 2.27027 4.68562 3.35135 4.68562C4.32432 4.68562 5.62162 5.14276 7.35135 5.71419C8.86486 6.17133 10.4865 6.51419 11.3514 6.62847V10.1713L9.72973 11.657V11.7713L11.3514 13.257V18.1713C10.4865 18.7428 9.51351 18.857 8.64865 18.857C7.02703 18.857 5.62162 18.3999 4.43243 17.0285L8.86486 14.7428V6.85705L3.45946 9.37133C3.89189 7.88562 5.08108 6.85705 6.27027 6.17133L6.16216 5.82847C2.91892 6.74276 0 9.94276 0 13.8285C0 18.3999 3.56757 21.8285 7.56757 21.8285C11.8919 21.8285 14.7027 18.1713 14.7027 14.3999H14.4865C13.8378 15.8856 12.8649 17.257 11.6757 17.9428V13.257L13.4054 11.7713V11.657L11.6757 10.1713V6.62847C13.2973 6.62847 14.9189 5.48562 14.9189 3.31419ZM5.51351 15.8856L4.21622 16.5713C3.45946 15.5428 3.02703 14.1713 3.02703 12.2285C3.02703 11.4285 3.02703 10.5142 3.24324 9.82847L5.51351 8.7999V15.8856ZM16.973 18.5142L15.5676 19.657L15.7838 19.8856L16.4324 19.3142L18.8108 21.5999L22.0541 19.3142L21.9459 19.0856L21.0811 19.657L20 18.5142V10.7428L20.8649 10.057L22.7027 11.657V18.6285C22.7027 22.9713 21.8378 23.657 20 24.3428V24.6856C23.027 24.7999 25.8378 23.7713 25.8378 18.1713V10.6285L26.8108 9.82847L26.5946 9.5999L25.7297 10.2856L23.027 7.88562L20 10.2856V0.914189H19.7838L16 3.65705V3.88562C16.4324 4.11419 17.0811 4.34276 17.0811 5.5999L16.973 18.5142ZM36.7568 17.257L34.0541 19.4285L31.3514 17.1428V15.7713L36.4324 12.1142V11.9999L33.8378 7.88562L28.2162 11.0856V18.6285L27.1351 19.5428L27.3513 19.7713L28.3243 18.9713L32 21.8285L36.8649 17.7142L36.7568 17.257ZM31.3514 15.3142V9.71419L31.5676 9.5999L33.9459 13.5999L31.3514 15.3142ZM57.4054 2.28562C57.4054 1.94276 57.2973 1.5999 57.1892 1.25705H56.973C56.6486 2.17133 56.2162 2.62847 55.1351 2.62847C54.1622 2.62847 53.5135 2.05705 53.0811 1.5999L49.9459 5.37133L50.1622 5.5999L51.2432 4.57133C51.8919 5.14276 52.4324 5.5999 53.9459 5.71419V15.1999L47.5676 3.65705C47.027 2.74276 46.2703 1.48562 44.7568 1.48562C43.027 1.48562 41.5135 3.08562 41.7297 5.5999H42.0541C42.1622 4.91419 42.4865 4.11419 43.2432 4.11419C43.7838 4.11419 44.3243 4.68562 44.6486 5.25705V9.02847C42.7027 9.02847 41.4054 9.94276 41.4054 11.657C41.4054 12.5713 41.8378 13.9428 43.1351 14.2856V14.057C42.9189 13.8285 42.8108 13.5999 42.8108 13.257C42.8108 12.6856 43.2432 12.2285 44 12.2285H44.5405V17.0285C42.2703 17.0285 40.4324 18.3999 40.4324 20.6856C40.4324 22.857 42.1622 23.8856 44.1081 23.7713V23.5428C42.9189 23.4285 42.3784 22.857 42.3784 22.057C42.3784 21.0285 43.027 20.5713 43.8919 20.5713C44.7568 20.5713 45.5135 21.1428 46.0541 21.8285L49.1892 18.1713L48.973 17.9428L48.2162 18.857C47.027 17.7142 46.3784 17.3713 44.973 17.1428V5.71419L53.6216 21.7142H54.2703V5.71419C55.8919 5.5999 57.4054 4.22847 57.4054 2.28562ZM65.2973 17.257L62.5946 19.4285L59.8919 17.1428V15.7713L64.973 12.1142V11.9999L62.3784 7.88562L56.7568 11.0856V18.6285L55.6757 19.5428L55.8919 19.7713L56.8649 18.9713L60.5405 21.8285L65.4054 17.7142L65.2973 17.257ZM59.8919 15.3142V9.71419L60.1081 9.5999L62.4865 13.5999L59.8919 15.3142ZM82.9189 9.14276L82.1622 9.71419L80.1081 7.88562L77.7297 10.1713L78.7027 11.1999V19.7713L76.1081 18.057V10.9713L76.973 10.3999L74.4865 7.88562L72.1081 10.1713L73.0811 11.1999V19.4285L72.7568 19.657L70.4865 17.9428V11.0856C70.4865 9.48562 69.7297 9.02847 68.8649 8.45705C68.1081 7.88562 67.6757 7.54276 67.6757 6.74276C67.6757 6.05705 68.3243 5.71419 68.6486 5.48562V5.25705C67.7838 5.25705 65.5135 6.17133 65.5135 8.34276C65.5135 9.48562 66.054 9.94276 66.5946 10.5142C67.1351 11.0856 67.6757 11.5428 67.6757 12.5713V19.1999L66.4865 20.1142L66.7027 20.3428L67.7838 19.4285L70.2703 21.7142L72.973 19.7713L76 21.7142L81.7297 18.1713V10.5142L83.1351 9.37133L82.9189 9.14276ZM103.027 2.85705L101.946 3.88562L99.5676 1.5999L96 4.34276V1.82847H95.6757L95.7838 20.3428C95.4594 20.3428 94.4865 20.1142 93.7297 19.8856L93.5135 4.45705C93.5135 3.31419 92.7568 1.71419 90.8108 1.71419C88.8649 1.71419 87.5676 3.31419 87.5676 4.91419H87.8919C88 4.22847 88.3243 3.65705 88.973 3.65705C89.6216 3.65705 90.1622 4.11419 90.1622 5.5999V10.057C88.2162 10.1713 87.027 11.3142 87.027 12.7999C87.027 13.7142 87.4595 15.0856 88.7568 15.0856V14.857C88.3243 14.6285 88.2162 14.2856 88.2162 14.057C88.2162 13.3713 88.7568 13.1428 89.6216 13.1428H90.0541V20.2285C88.4324 20.7999 87.7838 22.057 87.7838 23.4285C87.7838 25.3713 89.1892 26.7428 91.3513 26.7428C92.8649 26.7428 94.1622 26.5142 95.4595 26.1713C96.5405 25.9428 97.9459 25.5999 98.5946 25.5999C99.4594 25.5999 99.7838 26.057 99.7838 26.6285C99.7838 27.4285 99.4594 27.7713 99.027 27.8856V28.1142C100.757 27.7713 101.838 26.6285 101.838 24.9142C101.838 23.1999 100.216 22.1713 98.4865 22.1713C97.6216 22.1713 95.7838 22.5142 94.4865 22.7428C92.973 23.0856 91.4594 23.3142 91.027 23.3142C90.2703 23.3142 89.4054 22.9713 89.4054 21.8285C89.4054 20.9142 90.1622 20.1142 92 20.1142C92.973 20.1142 94.1622 20.2285 95.3513 20.5713C96.6486 20.9142 97.8378 21.257 98.9189 21.257C100.541 21.257 101.946 20.6856 101.946 18.2856V4.22847L103.243 3.08562L103.027 2.85705ZM98.5946 9.82847C98.2703 10.1713 97.8378 10.5142 97.2973 10.5142C96.7568 10.5142 96.2162 10.1713 96 9.82847V4.7999L97.0811 3.9999L98.5946 5.48562V9.82847ZM98.5946 13.257C98.3784 13.0285 97.8378 12.6856 97.2973 12.6856C96.7568 12.6856 96.2162 13.0285 96 13.257V10.2856C96.2162 10.5142 96.7568 10.857 97.2973 10.857C97.8378 10.857 98.3784 10.5142 98.5946 10.2856V13.257ZM98.5946 18.6285C98.5946 19.5428 98.054 20.457 96.8649 20.457H96V13.7142C96.2162 13.4856 96.7568 13.1428 97.2973 13.1428C97.8378 13.1428 98.2703 13.4856 98.5946 13.7142V18.6285ZM113.405 10.5142L109.946 7.88562L104.649 11.0856V18.5142L103.568 19.4285L103.676 19.657L104.541 18.9713L108 21.7142L113.405 18.2856V10.5142ZM107.568 17.7142V9.48562L110.27 11.5428V19.657L107.568 17.7142ZM123.676 8.11419H123.459C123.135 8.34276 122.811 8.57133 122.486 8.57133C122.054 8.57133 121.514 8.34276 121.297 7.9999H121.081L119.243 10.1713L117.405 7.9999L114.162 10.2856L114.27 10.5142L115.135 9.94276L116.216 11.1999V18.3999L114.811 19.5428L115.027 19.7713L115.676 19.1999L118.27 21.4856L121.622 19.0856L121.514 18.857L120.541 19.4285L119.243 18.2856V10.2856C119.784 10.857 120.432 11.4285 121.189 11.4285C122.703 11.5428 123.568 9.94276 123.676 8.11419ZM136.649 19.0856L132.973 21.7142L128 13.7142L131.568 7.88562H131.784C132.216 8.34276 132.865 8.7999 133.622 8.7999C134.378 8.7999 134.919 8.34276 135.243 7.88562H135.459C135.351 10.1713 133.838 11.5428 132.757 11.5428C131.676 11.5428 131.135 10.9713 130.486 10.6285L130.162 11.1999L135.568 19.657L136.649 18.9713V19.0856ZM124.757 18.5142L123.351 19.657L123.568 19.8856L124.216 19.3142L126.595 21.5999L129.838 19.3142L129.622 19.0856L128.757 19.657L127.676 18.5142V0.914189H127.568L123.676 3.65705V3.88562C124.108 4.11419 124.757 4.22847 124.757 5.5999V18.5142ZM154.595 3.31419C154.595 1.02847 152.541 0.457047 150.919 0.457047V0.799904C151.892 0.799904 152.649 1.14276 152.649 1.94276C152.649 2.3999 152.324 3.08562 151.351 3.08562C150.595 3.08562 148.973 2.62847 147.784 2.17133C146.378 1.71419 145.081 1.25705 144 1.25705C141.838 1.25705 140.324 2.97133 140.324 4.91419C140.324 6.62847 141.514 7.1999 141.946 7.42847L142.054 7.1999C141.73 6.97133 141.405 6.74276 141.405 6.05705C141.405 5.5999 141.838 4.7999 142.919 4.7999C143.892 4.7999 145.189 5.25705 146.919 5.82847C148.432 6.28562 150.054 6.62847 150.919 6.74276V10.2856L149.297 11.7713V11.8856L150.919 13.3713V18.2856C150.054 18.857 149.081 18.9713 148.216 18.9713C146.595 18.9713 145.189 18.5142 144 17.1428L148.432 14.857V6.85705L143.027 9.37133C143.568 7.88562 144.757 6.85705 145.838 6.05705L145.73 5.82847C142.486 6.74276 139.568 9.82847 139.568 13.7142C139.568 18.2856 143.135 21.7142 147.135 21.7142C151.459 21.7142 154.27 18.057 154.27 14.2856H154.054C153.405 15.7713 152.432 17.1428 151.243 17.8285V13.1428L152.973 11.657V11.5428L151.351 10.057V6.62847C152.973 6.62847 154.595 5.48562 154.595 3.31419ZM145.189 15.8856L143.892 16.5713C143.135 15.5428 142.703 14.1713 142.703 12.2285C142.703 11.4285 142.811 10.5142 143.027 9.82847L145.297 8.7999L145.189 15.8856ZM158.378 2.17133H158.27L156.108 4.11419V4.22847L157.946 6.3999H158.162L160.324 4.45705V4.34276L158.378 2.17133ZM161.622 19.0856L160.757 19.657L159.676 18.5142V10.6285L160.757 9.82847L160.541 9.5999L159.784 10.2856L157.838 7.88562L154.703 10.1713L154.919 10.5142L155.676 9.94276L156.649 11.1999V18.6285L155.243 19.7713L155.351 19.9999L156.108 19.4285L158.486 21.7142L161.73 19.4285L161.622 19.0856ZM179.676 18.9713L178.919 19.5428L177.73 18.3999V10.6285L178.811 9.71419L178.595 9.48562L177.73 10.2856L175.243 7.88562L172 10.2856L169.514 7.88562L166.486 10.2856L164.541 7.88562L161.405 10.1713L161.514 10.5142L162.27 9.94276L163.351 11.1999V18.6285L162.486 19.5428L164.973 21.7142L167.351 19.4285L166.378 18.3999V10.6285L167.351 9.94276L168.973 11.5428V18.3999L168.108 19.3142L170.595 21.4856L172.973 19.1999L172 18.1713V10.6285L172.865 10.057L174.595 11.657V18.5142L173.838 19.3142L176.324 21.7142L179.676 19.3142V18.9713ZM189.081 17.257L186.378 19.4285L183.676 17.1428V15.7713L188.757 12.1142V11.9999L186.162 7.88562L180.541 11.0856V18.857L184.324 21.7142L189.189 17.5999L189.081 17.257ZM183.676 15.3142V9.71419L183.892 9.5999L186.27 13.5999L183.676 15.3142ZM198.919 14.2856L196.865 12.5713C198.27 11.3142 198.811 9.5999 198.811 8.45705V7.77133H198.595C198.378 8.34276 197.946 8.91419 197.081 8.91419C196.216 8.91419 195.676 8.45705 195.135 7.77133L190.27 10.6285V14.7428L192.108 16.2285C190.27 17.9428 189.946 19.0856 189.946 19.9999C189.946 21.1428 190.486 21.9428 191.351 22.2856L191.459 22.057C191.243 21.8285 191.027 21.7142 191.027 21.1428C191.027 20.7999 191.459 20.2285 192.324 20.2285C193.405 20.2285 194.054 21.0285 194.378 21.3713L199.027 18.3999V14.2856H198.919ZM197.73 10.857C196.973 12.2285 195.351 13.5999 194.378 14.2856L193.189 13.257V9.25705C193.622 10.3999 194.811 11.3142 196 11.3142C196.757 11.3142 197.189 11.1999 197.73 10.857ZM195.892 19.9999C195.351 18.7428 194.054 17.8285 192.757 17.8285C192.432 17.8285 191.568 17.8285 190.703 18.3999C191.243 17.4856 192.649 15.8856 194.486 14.7428L195.784 15.8856L195.892 19.9999Z" fill="#B8C3C9"/>
</svg>
