<svg width="161" height="28" viewBox="0 0 161 28" fill="none" xmlns="http://www.w3.org/2000/svg">
<path d="M0 0.0851677V7.55863H4.9998V27.2376H13.434V0.0851677H0ZM27.6826 10.4142H23.7371V7.54231H25.7178V0.0851677H15.3029V27.2376H23.7371V16.9739H27.6826V27.2376H36.1327V0.0851677H27.6826V10.4142ZM37.9857 27.2376H53.6241V19.7642H46.0525V16.5986H50.8606V10.4142H46.0525V7.55863H53.6241V0.0851677H37.9857V27.2376ZM120.091 9.27197C120.091 3.41396 115.858 0.0851677 109.836 0.0851677H100.443V27.2213H108.877V20.27L113.702 27.2213H123.222L116.385 16.8107C118.861 15.44 120.091 12.9434 120.091 9.27197ZM108.861 12.2907V8.91299V7.24859C110.028 7.24859 111.465 7.60758 111.897 8.91299C111.928 9.02721 111.96 9.15775 111.992 9.28829C111.992 9.30461 111.992 9.32093 112.008 9.33724C112.024 9.46778 112.04 9.61464 112.04 9.77782C112.04 11.7849 110.251 12.2907 108.861 12.2907ZM70.3327 16.6312H70.2528L69.6458 14.3957L67.7609 7.57494H71.0834L73.2719 0.101485H56.4195L66.0836 27.2376H74.7414L75.7797 24.3331C75.7797 24.3331 80.4121 11.5075 82.936 4.52355V27.2376H98.5744V19.7642H91.0028V16.5986H95.8109V10.4142H91.0028V7.55863H98.5744V0.0851677H75.2206L70.3327 16.6312ZM161 7.57494V0.101485H145.362V27.2376H161V19.7642H153.412V16.5986H158.237V10.4305H153.412V7.57494H161ZM143.748 21.5428V10.4795H131.816V16.6475H136.257V18.8504C135.921 19.1604 135.186 19.3236 134.436 19.3236C131.337 19.3236 129.052 16.827 129.052 13.7919C129.052 10.7569 131.273 8.04815 134.372 8.04815C136.241 8.04815 140.681 8.06447 140.681 8.06447V0.0198973H138.653C134.883 0.0198973 131.113 -0.290137 127.663 1.53743C124.931 2.97338 122.775 5.42102 121.625 8.32555C120.954 10.0389 120.618 11.8828 120.618 13.7267C120.618 21.4286 126.529 27.9067 134.196 27.9067C137.998 27.9067 141.704 26.4544 143.732 24.6432C143.748 22.7503 143.748 22.4729 143.748 21.5428Z" fill="#686C74"/>
</svg>
