<svg width="243" height="27" viewBox="0 0 243 27" fill="none" xmlns="http://www.w3.org/2000/svg">
<g clip-path="url(#clip0)">
<path d="M63.7741 7.74512L61.5602 9.22134L62.3162 9.87744V18.5708C62.3162 19.3362 61.6681 19.883 60.8042 19.883H60.4262V9.05732L58.5362 7.79979L56.1602 9.38537L56.2681 9.60407C56.2681 9.60407 56.7001 9.33069 56.8081 9.27602C56.8081 9.27602 57.6722 10.0961 57.6722 10.8616V19.8283C56.7002 20.1017 55.7281 20.9218 55.7281 22.7261C55.7281 23.5462 56.4302 24.6397 57.7262 24.8584C58.4282 24.9677 60.4262 24.6944 60.4802 24.6397C60.7502 24.585 61.1282 24.5303 62.1002 24.5303C62.9642 24.4757 63.5041 24.8584 63.7741 25.1318L63.9902 25.3505C64.2602 25.0771 64.4762 24.4757 64.4762 24.0929C64.4762 23.2181 64.0982 22.6167 63.4502 22.234C63.0182 21.9606 62.4241 21.9059 61.6681 21.9059C61.6141 21.9059 61.3981 21.9059 61.1281 21.9606C60.8041 22.0153 60.3182 22.07 59.8862 22.07C59.2922 22.1246 58.6442 22.234 58.2122 22.2887C57.9422 22.3433 57.7262 22.3433 57.6722 22.3433C57.3482 22.3433 57.1322 22.234 56.9162 22.07C56.7002 21.9059 56.7002 21.6326 56.7002 21.5232C56.7542 20.7578 57.7262 20.4297 57.9962 20.375H58.3202C58.8602 20.4844 60.1562 20.7031 61.5062 20.7031C61.9382 20.7031 62.4242 20.5937 62.8562 20.4297C63.2882 20.2657 63.7201 19.9923 64.0441 19.6643C64.4221 19.3362 64.5842 19.1175 64.8002 18.7348C65.0162 18.3521 65.1241 17.9693 65.1241 17.4773V8.72927C65.0701 8.61992 63.7741 7.74512 63.7741 7.74512Z" fill="#B8C3C9"/>
<path d="M65.0161 8.78404L65.8261 8.29196L65.0161 8.78404Z" fill="#B8C3C9"/>
<path d="M84.78 18.4614L84.294 18.7895C84.294 18.7895 83.916 18.4614 83.862 18.4067V8.83862L82.242 7.74512L79.2719 9.71342L79.164 9.54939C78.786 8.45589 78.1379 8.07317 77.8679 7.85447L75.0599 9.76809L75.1679 9.93212C75.1679 9.93212 75.4919 9.71342 75.6539 9.65874C75.9239 9.93212 76.4099 10.8069 76.4099 11.135V18.4067L75.6539 19.0628L77.8139 20.5391L79.974 19.1175L79.2179 18.4614V10.4242L79.974 9.93212L81.054 11.135V18.6254C81.054 19.5002 81.756 20.1563 82.242 20.5391L84.888 18.7895L84.78 18.4614Z" fill="#B8C3C9"/>
<path d="M83.7 8.9481L84.456 8.45602L83.7 8.9481ZM27.162 19.0083L27.918 18.5162L27.162 19.0083Z" fill="#B8C3C9"/>
<path d="M32.886 18.5709C32.886 18.5709 32.184 19.0083 32.076 19.063L30.51 17.9148V14.3609L34.344 11.7365L32.13 7.63589L27.54 10.6977V18.6256C28.404 19.227 30.294 20.3752 30.294 20.3752L32.886 18.6802V18.5709ZM30.564 9.54952L32.346 12.666L30.564 13.8688V9.54952Z" fill="#B8C3C9"/>
<path d="M85.3199 19.0629L86.076 18.5708L85.3199 19.0629Z" fill="#B8C3C9"/>
<path d="M145.206 8.07328C145.206 8.07328 143.262 9.38548 142.884 9.60418C142.776 9.44015 142.506 8.456 141.48 7.69055C141.156 7.90925 138.78 9.49483 138.78 9.49483L138.888 9.65885C138.888 9.65885 139.212 9.44015 139.266 9.38548L139.428 9.49483C139.752 9.82288 139.914 10.0416 139.914 10.2056V17.9148L139.104 18.5709L141.318 20.3205C141.318 20.3205 143.694 18.6256 143.64 18.6802L142.776 17.9148V10.315L143.262 9.9869L144.342 11.4085C144.342 11.4085 144.234 11.5725 144.18 11.6818C144.018 11.9005 143.748 12.2833 143.748 12.7753C143.748 12.9394 143.964 13.4314 144.288 13.4314H144.342C144.558 13.4314 144.612 13.3768 144.828 13.3221L144.936 13.2674H144.828C144.666 13.2127 144.558 13.1581 144.45 13.1034H144.396C144.288 12.994 144.126 12.7753 144.126 12.6113C144.126 12.3379 144.288 12.0099 144.612 11.6272C145.152 10.9711 146.448 10.0416 146.448 10.0416L145.206 8.07328Z" fill="#B8C3C9"/>
<path d="M242.244 9.65882L243 9.16675L242.244 9.65882ZM234.576 19.0082L235.332 18.5162L234.576 19.0082Z" fill="#B8C3C9"/>
<path d="M53.514 17.9148C52.056 16.8759 50.382 16.1105 48.816 15.6731H48.762L50.49 13.0487C52.704 13.5408 54.216 14.7436 54.216 16.0558C54.216 16.6026 54 17.3133 53.514 17.9148ZM49.518 9.38546C49.194 9.33078 48.222 9.16676 48.006 9.11208C47.196 8.94806 43.254 7.74521 43.254 5.99561C43.254 3.97263 45.792 3.97263 47.034 3.97263C47.304 3.97263 50.166 4.24601 51.57 6.10496C51.516 6.21431 49.842 8.83871 49.518 9.38546ZM58.158 6.70638C58.374 6.48768 58.59 6.10496 58.59 5.88626C58.59 5.61288 58.482 5.39418 58.32 5.17548C58.158 4.95678 57.888 4.84743 57.51 4.84743H57.294C56.43 4.84743 55.512 5.39418 54.54 6.37833C53.676 7.19846 53.352 7.85456 52.812 8.67468C52.38 9.38546 52.164 9.71351 52.056 9.87753C51.894 9.87753 50.868 9.71351 50.004 9.49481C50.274 9.00273 51.138 7.52651 52.11 6.10496C52.812 5.06613 53.676 4.13666 54.108 3.64458C54.162 3.58991 54.216 3.53523 54.324 3.48056C54.378 3.42588 54.486 3.42588 54.486 3.37121C54.486 3.31653 54.378 3.20718 54.378 3.20718C54.324 3.20718 54.27 3.20718 54.216 3.26186C54.162 3.31653 54.054 3.31653 53.946 3.31653C53.784 3.31653 53.622 3.20718 53.352 2.93381C52.596 2.33238 51.246 1.18421 48.87 1.18421C44.766 1.18421 42.336 4.68341 42.39 7.03443C42.39 8.51066 42.66 10.0962 43.416 10.7523C44.172 11.4631 45.36 11.9552 47.52 12.4473L47.682 12.5019L47.358 12.8847C46.818 13.3767 46.386 13.8141 45.306 13.8688C44.658 13.8688 44.334 13.6501 44.064 13.4314H44.01C44.064 13.5408 44.226 13.8141 44.388 14.0328C44.604 14.3062 44.874 14.4702 45.036 14.4702C45.09 14.4702 45.36 14.5249 45.792 14.4156C46.386 14.2515 47.034 13.7595 47.628 13.1034L48.114 12.5566L49.626 12.83C49.788 12.8847 49.95 12.8847 50.112 12.9393L49.464 13.9235C48.654 15.1263 48.384 15.5091 48.384 15.5091C48.384 15.5091 47.844 15.4544 47.682 15.3997C47.25 15.2904 46.548 15.2904 45.576 15.2904C43.686 15.2904 41.148 15.9465 39.582 17.532C39.258 17.8601 38.988 18.1881 38.772 18.5709C38.394 19.227 38.232 19.8831 38.232 20.6485C38.232 21.578 38.826 22.7262 40.608 22.7262C42.93 22.7262 44.982 20.4845 46.062 19.3363L46.224 19.1176C46.548 18.7896 46.71 18.5162 46.818 18.4068C48.06 18.7349 50.058 19.6097 51.84 20.7579C52.218 20.3751 53.244 19.1176 54.216 17.6414C54.756 16.8213 55.998 14.9623 56.052 13.5408C56.106 12.1739 54.81 10.479 52.434 9.98688C52.488 9.82286 52.65 9.60416 53.028 9.05741C54 7.52651 54.864 5.94093 56.754 5.94093C57.078 5.88626 57.78 5.94093 58.158 6.70638C58.158 6.65171 58.158 6.65171 58.158 6.70638ZM44.28 20.5392C43.848 20.9219 43.362 21.2499 42.93 21.5233C42.444 21.7967 42.012 21.9607 41.526 22.0701C41.364 22.1247 41.256 22.1247 41.148 22.1794C40.932 22.2341 40.77 22.2341 40.554 22.2341H40.284C39.312 22.1247 38.772 21.578 38.772 20.7579C38.772 18.5709 42.39 17.9148 43.686 17.9148H43.956C44.55 17.9148 44.982 17.9694 46.17 18.1881H46.44C45.9 18.8989 45.306 19.555 44.712 20.1018C44.604 20.2658 44.442 20.4298 44.28 20.5392ZM17.01 15.181C15.336 17.2587 13.824 17.9148 13.608 17.9694V7.14378C15.498 7.03443 16.848 5.94093 16.848 4.13666C16.848 3.91796 16.794 3.64458 16.686 3.31653C16.146 4.02731 15.228 4.19133 14.688 4.19133C13.338 4.19133 11.826 3.75393 10.26 3.31653C8.64 2.82446 6.912 2.33238 5.238 2.33238C2.808 2.38706 0 3.53523 0 6.76106C0 7.90923 0.81 10.0962 2.7 11.0804H2.754C2.754 11.0804 2.322 12.1192 2.322 12.994C2.322 16.1105 4.212 20.8125 9.612 20.8125C10.908 20.8125 12.096 20.5392 13.176 19.9377C14.04 19.4457 14.796 18.8442 15.444 18.0241C16.578 16.6026 17.01 15.181 17.01 15.181ZM8.1 17.7507C8.208 17.6961 8.316 17.5867 8.316 17.5867C10.098 16.3839 10.962 15.2904 10.962 14.1969V6.87041C10.962 6.87041 11.88 7.14378 13.122 7.14378V18.1335C11.232 18.7896 9.018 18.2975 8.1 17.7507ZM8.262 15.9465C8.262 16.3839 8.1 16.8759 7.722 17.532L7.56 17.4227C5.724 16.2198 4.806 13.8688 4.698 11.3538C4.59 9.54948 5.562 7.14378 6.912 5.66756C7.074 5.72223 7.83 5.88626 8.208 6.10496V15.9465H8.262ZM6.534 5.55821C3.78 8.34663 2.862 10.807 2.862 10.807L2.754 10.7523C1.944 10.3696 1.566 9.33078 1.566 8.45598C1.458 6.32366 2.97 5.39418 4.968 5.39418C5.562 5.39418 6.264 5.50353 6.534 5.55821ZM159.408 7.63586C159.354 7.69053 156.762 9.44013 156.762 9.44013L156.87 9.65883C156.87 9.65883 157.248 9.44013 157.302 9.38546L157.464 9.49481C157.788 9.82286 157.896 10.0416 157.896 10.2056V18.8989L159.3 20.3751L162 18.8989L161.784 18.6255L161.406 18.8442L160.758 18.1335V8.83871C160.758 8.83871 159.462 7.69053 159.408 7.63586ZM157.842 4.57406L159.57 3.20718L161.082 4.68341L159.354 5.94093L157.842 4.57406ZM100.116 7.69053L97.902 9.16676L98.658 9.82286V18.5162C98.658 19.2816 98.01 19.8284 97.146 19.8284H96.768V9.00273L94.878 7.74521L92.448 9.33078L92.556 9.54948C92.556 9.54948 92.988 9.27611 93.096 9.22143C93.096 9.22143 93.96 10.0416 93.96 10.807V19.9377C92.988 20.2111 92.016 20.9766 92.016 22.7808C92.016 23.601 92.718 24.6945 94.014 24.9132C94.716 25.0225 96.714 24.7491 96.768 24.6945C97.038 24.6398 97.416 24.5851 98.388 24.5304C99.252 24.4758 99.792 24.8585 100.062 25.1319L100.278 25.3506C100.548 25.0772 100.764 24.4758 100.764 24.093C100.764 23.2182 100.386 22.6168 99.738 22.2341C99.306 21.9607 98.712 21.906 97.956 21.906C97.902 21.906 97.686 21.906 97.416 21.9607C97.092 22.0154 96.606 22.0701 96.174 22.0701C95.526 22.1247 94.932 22.2341 94.5 22.2888C94.23 22.3434 94.014 22.3434 93.96 22.3434C93.636 22.3434 93.366 22.2341 93.15 22.0701C92.934 21.906 92.88 21.6327 92.88 21.5233C92.934 20.7579 93.852 20.4298 94.176 20.3751H94.608C95.202 20.4845 96.39 20.7032 97.794 20.7032C98.226 20.7032 98.658 20.5938 99.144 20.4298C99.576 20.2658 100.008 19.9924 100.332 19.6644C100.71 19.3363 100.872 19.1176 101.088 18.7349C101.304 18.3522 101.412 17.9694 101.412 17.4774V8.72936C101.412 8.56533 100.116 7.69053 100.116 7.69053ZM190.728 13.158C190.89 13.158 191.214 13.158 191.322 13.2127C191.484 13.2674 191.538 13.3767 191.592 13.4861C191.646 13.5408 191.646 16.2745 191.646 16.2745C191.646 16.8213 191.592 17.04 191.484 17.204C192.51 16.7119 193.644 15.6731 194.022 14.9623C194.454 14.1422 194.4 12.4473 194.346 10.6977C194.292 8.67468 194.238 6.43301 194.886 4.73808C194.13 5.23016 193.698 5.61288 193.104 6.21431C192.51 6.81573 192.078 7.36248 191.97 7.69053C191.592 8.67468 191.646 10.2056 191.646 10.5336C188.568 10.8617 187.974 12.2832 188.028 13.5408C188.028 13.5954 188.082 13.8141 188.082 13.9782L188.136 14.1422C188.73 13.3767 189.594 13.158 190.728 13.158ZM188.082 4.51938C188.19 4.51938 188.73 4.62873 189.918 4.90211C190.566 5.06613 191.376 5.23016 191.484 5.23016H192.132C192.78 5.23016 194.184 4.41003 195.858 2.98848L196.128 2.76978C195.75 2.93381 195.264 3.09783 194.778 3.09783C194.076 3.09783 193.266 2.82446 192.348 2.55108C191.43 2.22303 190.458 1.94966 189.594 1.94966C187.704 1.94966 186.462 3.09783 186.462 4.79276C186.462 5.17548 186.624 5.66756 186.894 5.99561C186.84 5.83158 186.786 5.66756 186.786 5.50353C186.84 4.90211 187.272 4.51938 188.082 4.51938ZM202.176 1.12953C202.608 1.34823 203.148 1.67628 203.472 2.33238C202.554 2.98848 201.366 3.91796 200.988 4.13666C200.286 3.31653 199.368 2.22303 198.666 2.16836C198.666 2.16836 198.18 2.16836 198.072 2.22303C197.91 2.33238 197.856 2.49641 197.856 2.66043V9.00273L200.502 7.30781L202.608 9.44013V16.5479C202.608 18.5709 201.204 20.7032 198.45 22.5621C199.314 22.8355 200.88 23.0542 202.662 22.6715C201.636 24.2024 200.502 24.9678 199.206 24.9678C199.044 24.9678 198.72 24.9132 198.45 24.8038C196.938 24.2571 195.912 24.5851 195.912 24.5851C197.208 23.5463 198.126 22.5075 198.72 21.4686C199.368 20.4298 199.692 19.1176 199.692 17.9694V11.0257L197.802 9.65883V10.4243C197.802 12.2286 197.802 13.8141 197.424 14.6343C197.1 15.2904 195.912 16.3292 194.886 16.8759C194.994 16.6572 195.048 16.4385 195.048 15.9465V6.92508C195.048 6.76106 195.102 5.99561 195.102 5.83158C195.264 4.62873 195.534 3.42588 197.316 2.16836C198.666 1.18421 199.8 0.801483 200.664 0.801483C201.204 0.801483 201.744 0.910833 202.176 1.12953ZM26.676 19.0629C26.514 19.227 25.164 20.1564 24.786 20.4845C24.3 20.8125 23.868 21.2499 23.544 21.742C23.274 22.1794 23.112 22.6715 23.112 23.1636C23.112 23.3276 23.166 23.5463 23.274 23.6556C23.544 23.929 24.03 24.0384 24.3 24.0384H24.624C24.786 24.0384 24.894 24.0384 25.002 23.9837V24.0384C24.948 24.2024 24.786 24.4211 24.516 24.5304C24.3 24.6398 24.03 24.7491 23.814 24.7491C22.896 24.7491 22.572 23.929 22.572 23.3823C22.572 22.5621 23.598 21.1406 24.246 20.4845C24.246 20.4845 23.058 19.5003 23.058 18.7349V10.9164L21.978 9.71351L21.222 10.2056V18.2975C21.276 18.3522 21.978 18.9536 21.978 18.9536L19.818 20.4298L17.604 18.9536L18.36 18.2975V5.01146C18.36 4.35536 18.306 3.42588 18.09 3.15251C17.982 2.98848 17.766 2.87913 17.55 2.76978C17.766 2.16836 18.09 1.89498 18.684 1.89498C18.846 1.89498 19.278 1.94966 19.548 2.11368C19.764 1.67628 20.196 0.910833 21.06 0.910833C21.222 0.910833 21.546 1.02018 21.762 1.18421C21.114 1.89498 21.168 3.48056 21.168 4.41003V9.71351L24.138 7.74521L25.866 8.89338V17.5867C25.92 18.2428 26.352 18.6802 26.676 19.0629ZM233.874 18.4615L233.982 18.6255L231.282 20.3751L229.176 18.8989L229.878 18.2428V4.68341C229.878 4.02731 229.824 3.09783 229.608 2.82446C229.5 2.66043 229.284 2.55108 229.068 2.44173C229.284 1.84031 229.608 1.56693 230.202 1.56693C230.364 1.56693 230.742 1.62161 231.012 1.78563C231.39 1.45758 231.714 0.856158 232.632 0.856158C232.794 0.856158 233.118 0.965508 233.334 1.12953C232.956 1.56693 232.794 2.22303 232.794 2.93381C232.74 6.65171 232.794 18.4068 232.794 18.4068L233.388 18.9536L233.874 18.4615Z" fill="#B8C3C9"/>
<path d="M25.7581 8.94805L26.5141 8.45597L25.7581 8.94805ZM74.0341 9.60415L74.7901 9.11207L74.0341 9.60415ZM66.3661 18.8989L67.1221 18.4068L66.3661 18.8989ZM101.358 8.72935L102.114 8.23727L101.358 8.72935ZM137.592 9.44012L138.348 8.94805L137.592 9.44012ZM129.924 19.1176L130.68 18.6255L129.924 19.1176ZM160.596 8.89337L161.352 8.4013L160.596 8.89337ZM157.356 19.227L158.112 18.7349L157.356 19.227ZM180.252 9.4948L181.008 9.00272L180.252 9.4948ZM227.07 9.11207L227.826 8.62L227.07 9.11207Z" fill="#B8C3C9"/>
<path d="M235.116 2.55107V6.2143C235.656 6.76105 236.952 7.9639 237.546 8.51065C237.006 9.00272 235.926 9.60415 235.062 9.82285C235.008 9.82285 235.17 10.0962 235.17 10.3696V18.6255L237.6 20.4845C239.922 18.9536 241.542 18.5709 242.352 18.4068V9.54947L235.116 2.55107ZM238.194 9.11207L239.652 10.5336V18.7349L237.978 17.532V9.33077L238.194 9.11207ZM135.918 7.63585C134.892 8.34662 131.976 9.60415 130.41 9.9322C130.356 9.9322 130.518 10.2056 130.518 10.4789V18.7349L132.948 20.5938C135.27 19.0629 136.89 18.6802 137.7 18.5162V9.33077L135.918 7.63585ZM133.488 9.38545L135 11.0257V18.7349L133.326 17.532V9.4948L133.488 9.38545ZM66.9061 2.4964V6.15962C67.4461 6.70637 68.7421 7.90922 69.3361 8.45597C68.7421 8.94805 67.7161 9.54947 66.8521 9.76817C66.7981 9.76817 66.9601 10.0415 66.9601 10.3149V18.5709L69.3901 20.4298C71.7121 18.8989 73.3321 18.5162 74.1421 18.3521V9.4948L66.9061 2.4964ZM69.9301 9.0574L71.3881 10.4789V18.6802L69.7141 17.4774V9.2761L69.9301 9.0574Z" fill="#B8C3C9"/>
<path d="M227.448 18.8442L228.204 18.3522L227.448 18.8442Z" fill="#B8C3C9"/>
<path d="M143.586 18.6802L144.126 18.2975L143.586 18.6802Z" fill="#B8C3C9"/>
<path d="M227.448 18.5709C227.286 18.3522 227.178 18.0788 227.178 17.8601V9.00277C227.016 8.83874 225.72 7.63589 225.72 7.63589L223.56 9.44017L221.886 7.79992L219.726 9.54952L221.238 11.2444C221.022 11.5725 220.374 12.83 221.13 13.8142C221.292 14.0329 221.346 14.0875 221.346 14.0875L221.13 14.1422C219.78 14.5796 218.754 16.1105 218.754 17.2587C218.754 18.1882 219.186 19.7737 220.482 20.4298L224.316 18.0241V18.2975C224.37 18.9536 224.748 19.6644 225.396 20.4845L227.664 18.8443L227.448 18.5709ZM224.208 17.4227L222.372 18.5709C221.778 18.2428 221.346 17.7508 221.13 17.3134C220.86 16.8213 220.752 16.2199 220.752 15.7278C220.752 15.7278 220.752 15.1264 221.022 14.7983C221.13 14.6343 221.292 14.5249 221.346 14.4703C221.454 14.4156 221.616 14.3609 221.724 14.4703C222.426 15.017 223.182 15.0717 224.154 15.0717L224.208 17.4227ZM223.56 9.87757L224.154 10.5337V14.6343C223.128 14.689 222.318 14.4703 221.94 14.0875C220.374 12.6113 221.778 10.6977 223.56 9.87757ZM156.384 18.4615L155.898 18.7896C155.898 18.7896 155.52 18.4615 155.466 18.4069V8.83874L153.846 7.74524L150.876 9.76822L150.768 9.60419C150.39 8.51069 149.742 8.12797 149.472 7.8546L146.664 9.76822L146.772 9.98692L147.258 9.65887C147.528 9.98692 148.014 10.807 148.014 11.1351V18.4069L147.258 19.063L149.418 20.5392L151.578 19.1176L150.822 18.4615V10.4243L151.578 9.93224L152.658 11.1351V18.6256C152.658 19.5004 153.36 20.1565 153.846 20.5939L156.492 18.8443L156.384 18.4615Z" fill="#B8C3C9"/>
<path d="M155.304 8.94809L156.114 8.45602L155.304 8.94809Z" fill="#B8C3C9"/>
<path d="M171.828 18.4614L171.342 18.7895C171.342 18.7895 170.964 18.4614 170.91 18.4067V8.83862L169.29 7.74512L166.32 9.76809L166.212 9.60407C165.834 8.51057 165.186 8.12784 164.916 7.85447L162.108 9.76809L162.216 9.98679L162.702 9.65874C162.972 9.98679 163.458 10.8069 163.458 11.135V18.4067L162.702 19.0628L164.862 20.5391L167.022 19.1175L166.266 18.4614V10.4242L167.022 9.93212L168.102 11.135V18.6254C168.102 19.5002 168.804 20.1563 169.29 20.5937L171.936 18.8441L171.828 18.4614Z" fill="#B8C3C9"/>
<path d="M170.802 8.94809L171.558 8.45602L170.802 8.94809Z" fill="#B8C3C9"/>
<path d="M91.1519 18.5709L90.3419 19.063L88.7759 17.9148V14.3609L92.6099 11.7365L90.4499 7.63589L85.8599 10.6977V18.6256C86.7239 19.227 88.6139 20.3752 88.6139 20.3752L91.2059 18.6802L91.1519 18.5709ZM88.8299 9.54952L90.6119 12.666L88.8299 13.8688V9.54952Z" fill="#B8C3C9"/>
<path d="M203.634 19.0629L204.39 18.5708L203.634 19.0629Z" fill="#B8C3C9"/>
<path d="M209.52 18.6256L208.71 19.1176C208.71 19.1176 207.198 17.9695 207.144 17.9695V14.4156L210.978 11.7912L208.818 7.69055L204.228 10.7524V18.6802C205.092 19.2817 206.982 20.4298 206.982 20.4298L209.628 18.7349L209.52 18.6256ZM207.144 9.60418L208.926 12.7207L207.144 13.9235V9.60418ZM217.62 8.07328C217.62 8.07328 215.676 9.38548 215.298 9.60418C215.19 9.44015 214.92 8.456 213.894 7.69055C213.57 7.90925 211.194 9.49483 211.194 9.49483L211.302 9.65885C211.302 9.65885 211.626 9.44015 211.68 9.38548L211.842 9.49483C212.166 9.82288 212.328 10.0416 212.328 10.2056V17.9148L211.518 18.5709L213.732 20.3205C213.732 20.3205 216.108 18.6256 216.054 18.6802L215.19 17.9148V10.315L215.676 9.9869L216.756 11.4085C216.756 11.4085 216.648 11.5725 216.594 11.6818C216.432 11.9005 216.162 12.2833 216.162 12.7753C216.162 12.9394 216.378 13.3768 216.702 13.3768H216.756C216.972 13.3768 217.026 13.3221 217.242 13.2674L217.35 13.2127H217.242C217.08 13.1581 216.972 13.1034 216.864 13.0487H216.81C216.702 12.9394 216.54 12.7207 216.54 12.5566C216.54 12.2833 216.702 11.9552 217.026 11.5725C217.566 10.9164 218.862 9.9869 218.862 9.9869L217.62 8.07328Z" fill="#B8C3C9"/>
<path d="M215.946 18.6802L216.486 18.2975L215.946 18.6802Z" fill="#B8C3C9"/>
<path d="M175.716 9.49478L177.66 11.2991V17.9147L177.066 18.4068H177.012C176.31 18.1334 175.446 16.8759 175.446 16.2198V9.6588L175.716 9.49478ZM180.414 17.204V9.4401C180.414 9.4401 179.01 8.18258 178.47 7.58115C177.984 7.96388 175.176 9.2214 172.476 10.0415C172.584 10.1509 172.746 10.3696 172.746 10.3696V15.181C172.746 16.0011 172.746 16.9853 173.016 17.8601C173.34 18.7895 173.88 19.555 174.744 20.0471L174.96 20.1564L170.532 23.929C170.586 23.9837 170.586 24.4211 170.586 24.4211C170.694 24.4211 170.802 24.3664 170.964 24.3117C171.288 24.1477 171.828 23.929 172.692 23.929C173.88 23.929 175.176 24.7491 175.824 25.1318C175.932 25.1865 176.04 25.2412 176.094 25.2958C176.472 25.1865 177.876 24.093 179.118 22.9448C179.82 22.2887 180.414 21.6873 180.846 21.1406C181.332 20.5391 181.602 20.047 181.602 19.719C181.602 19.2816 181.332 18.9536 181.008 18.5708C180.738 18.1881 180.414 17.7507 180.414 17.204ZM178.362 23.2182L177.984 22.9995C177.12 22.5074 176.256 22.0154 175.284 22.0154H175.014C174.69 22.07 174.204 22.1247 173.772 22.2341L173.61 21.906C173.61 21.906 177.066 18.9536 177.39 18.6802C177.822 19.0082 178.416 19.7737 178.686 20.2111C178.956 20.6485 179.064 21.0859 179.064 21.6326C179.064 22.1794 178.956 22.5621 178.362 23.2182ZM111.024 6.597C110.646 6.21427 110.484 5.83155 110.484 5.55818C110.484 4.8474 111.078 4.08195 112.212 4.08195C112.428 4.08195 113.022 4.1913 113.778 4.35532C114.102 4.41 114.48 4.51935 114.534 4.51935C115.452 4.51935 116.91 3.5352 117.828 2.55105L117.882 2.49638H117.828C117.018 2.49638 116.424 2.223 115.83 2.0043C115.236 1.73093 114.588 1.51222 113.778 1.51222C111.996 1.51222 109.944 2.8791 109.944 4.73805C109.944 5.12077 110.322 6.26895 111.024 6.597ZM115.29 18.2428C114.588 18.2428 114.264 18.2428 113.67 18.0788C113.238 17.9694 112.86 17.9147 112.482 17.8601H111.942C109.836 17.8601 109.134 19.7737 109.134 20.9219C109.134 22.9448 110.052 25.1318 112.644 25.1318C113.4 25.1318 115.074 24.6944 115.074 23.1089C115.074 23.0542 114.912 22.1247 114.48 22.1247H114.156C114.21 22.3981 114.426 22.8355 114.426 22.9995C114.426 24.0383 113.022 24.5851 112.428 24.5851C111.024 24.5851 109.728 23.7649 109.728 22.0154C109.728 21.0859 110.214 20.0471 111.294 20.0471C112.266 20.0471 113.454 20.6485 114.372 20.6485C116.532 20.5938 116.964 19.1723 117.018 16.2198C116.91 16.6572 116.154 18.2428 115.29 18.2428ZM129.492 18.2975C129.492 18.2975 129.222 18.5161 129.06 18.5161C129.006 18.5161 128.898 18.4615 128.79 18.4068C128.412 18.1334 127.98 17.5867 127.98 16.8212V5.33948C127.98 4.6287 128.25 4.1913 128.412 3.9726V3.91793C128.142 3.69923 127.764 3.42585 127.44 3.0978C126.792 2.55105 125.874 1.84028 125.388 1.45755C125.388 1.45755 122.796 3.58987 122.634 3.7539L121.446 2.76975C120.96 2.33235 120.204 1.73092 119.988 1.5669C119.61 1.7856 114.21 6.43298 114.21 6.43298V10.3149H114.048C111.024 10.6976 110.808 13.0487 110.808 13.7594C110.808 13.8688 110.916 14.1968 110.97 14.4702V14.5249L111.024 14.4702C111.24 14.0875 111.51 13.7594 111.834 13.4861C112.212 13.2127 112.59 13.0487 113.022 12.994C113.994 12.8846 114.048 12.9393 114.102 12.994L114.156 13.0487V17.204C114.156 17.6414 114.102 17.8054 113.94 18.0241C114.966 17.4773 116.208 16.4385 116.532 15.7277C116.964 14.8529 116.91 14.8529 116.91 13.0487V12.7206H119.394V17.532L118.53 18.4615L121.5 20.4844L124.254 18.4068L123.876 18.1881C123.876 18.1881 123.768 18.2428 123.714 18.2975C123.66 18.3521 123.552 18.4068 123.444 18.4068C123.174 18.4068 122.31 17.6414 122.202 17.4773V12.7206H124.902V17.2586C124.902 17.5867 124.902 18.1334 125.226 18.8989C125.28 19.0629 126.144 20.1564 126.792 20.4844C127.062 20.3204 129.6 18.4615 129.6 18.4615L129.492 18.2975ZM119.502 10.0962H117.018V4.8474L118.044 3.9726L119.502 5.23013V10.0962ZM125.118 10.0962H122.31V4.79273L123.282 3.9726L125.064 5.66753L125.118 10.0962ZM193.806 17.0946C190.728 17.204 188.244 20.047 188.244 22.8901C188.244 24.0383 188.676 25.7332 190.296 25.7332C190.998 25.7332 191.484 25.4052 191.484 24.4757C191.484 24.3117 191.43 23.9836 191.322 23.8196C191.214 24.1477 190.674 24.8584 190.134 24.8584C188.946 24.8038 188.622 23.8743 188.622 23.0542C188.622 21.3046 189.864 19.2816 191.97 19.2816C193.104 19.2816 194.238 19.7737 195.372 21.0859C195.372 21.0859 197.802 19.2816 197.802 19.2269C196.452 17.4773 195.588 17.0399 193.806 17.0946Z" fill="#B8C3C9"/>
</g>
<defs>
<clipPath id="clip0">
<rect width="243" height="26.244" fill="white" transform="translate(0 0.145386)"/>
</clipPath>
</defs>
</svg>
