<svg width="120" height="36" viewBox="0 0 120 36" fill="none" xmlns="http://www.w3.org/2000/svg">
<path d="M57.2899 0.0795593C57.2899 0.0795593 55.9489 0.10675 55.1717 0.0940301C55.1395 0.409853 54.765 3.27176 54.4429 5.57391C54.0724 7.70417 51.1368 23.5066 50.1422 28.2371C49.8805 29.6654 49.0711 33.7006 48.9946 34.1038C48.0603 34.2118 46.957 34.3116 46.2362 34.3385C46.1395 34.3416 45.9785 34.372 45.9019 34.372V35.1913C45.9905 35.1878 46.4577 35.2225 46.7879 35.2089C47.5811 35.1843 49.8321 35.081 50.259 35.081C51.8778 35.081 52.957 35.1847 54.455 35.2135C54.4751 35.2135 54.8858 35.212 55.0671 35.1898V34.3619C54.9422 34.3619 54.7771 34.358 54.6805 34.358C54.2577 34.3709 52.6993 34.2551 51.91 34.1509C52.0026 33.6097 53.3798 25.4256 54.0402 22.1528C55.2966 16.095 56.1664 11.8017 56.1664 11.8017L56.3999 12.3348L66.3261 35.2447L68.1382 35.2537C68.1382 35.2537 69.1731 32.7729 70.4013 29.9902C70.4335 29.9243 70.5221 29.7251 70.6469 29.4404C71.9355 26.5509 78.3221 11.8863 78.3221 11.8863C78.3221 11.8863 78.3825 12.1503 78.4832 12.6225C79.0912 15.4968 81.1489 25.8553 81.5879 28.3544C81.7932 29.6401 81.9865 30.944 82.0993 31.7079C82.2644 32.7896 82.3731 33.8483 82.3731 34.1525C82.1717 34.1615 80.1503 34.3385 79.3852 34.3705C79.2764 34.367 79.0711 34.3767 79.059 34.3787V35.212C79.3328 35.212 79.5986 35.2237 79.8644 35.2178C81.4268 35.189 82.9288 35.0704 84.4912 35.0712C86.2469 35.0728 89.0939 35.2213 90.9181 35.2326C91.1234 35.2326 91.4899 35.2151 91.4899 35.2151V34.3732C91.3852 34.3724 90.9261 34.3506 90.757 34.3377C89.9395 34.2757 88.5623 34.1521 88.212 34.1295C88.212 34.1295 87.9865 32.9195 87.6885 31.5219C86.4966 25.9313 83.1019 8.93796 82.5825 4.75659C82.4053 3.31941 81.9019 0.0924704 81.9019 0.0924704L79.8603 0.0918542C79.8603 0.0918542 78.8174 2.98964 77.867 5.63179C77.2187 7.43723 76.3368 9.66614 75.6644 11.3753C72.3462 19.8199 68.6254 27.689 68.6254 27.689C68.6254 27.689 60.7167 9.41541 60.2979 8.35866C59.8751 7.30153 57.2899 0.079766 57.2899 0.079766V0.0795593ZM0.438873 0.0871749L0.456189 2.01861L0.422363 6.72211L0.948551 6.70768L1.0036 2.52436C1.0036 2.52425 3.88887 2.50019 4.26204 2.50065L9.64231 2.50292L13.1147 2.51968L13.1203 31.6122L13.1211 34.125L13.0478 34.1348C12.5855 34.1695 10.8069 34.2748 10.0845 34.3001C9.92258 34.3052 9.81909 34.3091 9.80137 34.3071L9.80459 35.1584C9.93506 35.1646 10.2866 35.1728 10.3329 35.1712C12.0419 35.1498 14.3545 35.0059 15.9943 35.0075C17.6602 35.0082 20.0046 35.165 21.4555 35.1814C21.5992 35.1822 21.7696 35.1685 21.9077 35.1685V34.3703L21.7277 34.3719C21.2654 34.3699 18.7087 34.2104 18.4442 34.1769C18.4333 33.7865 18.3858 31.9023 18.3858 31.8606L18.3983 2.51656L21.0419 2.50978L27.9395 2.51434L30.2416 2.5448C30.2569 2.70409 30.3733 4.82308 30.3713 4.88079C30.3661 5.03482 30.4575 6.61331 30.4538 7.0017L30.9995 7.00794L30.9604 2.25062L30.9854 0.110689C28.9583 0.164111 23.7922 0.231337 15.7748 0.227243C8.89895 0.223148 2.27278 0.167308 0.438954 0.0870969L0.438873 0.0871749ZM32.5513 0.0947905L32.5598 0.928022C32.832 0.942333 34.4323 1.07944 34.8213 1.09784C35.1318 1.13465 35.565 1.17232 35.8751 1.20141C35.8751 1.46817 35.8799 3.30898 35.8844 4.03548C35.9363 10.9215 35.892 26.1402 35.8711 31.525C35.8646 33.082 35.8602 34.0853 35.8602 34.0853C35.6641 34.1423 35.2228 34.1637 34.7456 34.1949C34.3377 34.2218 32.8759 34.3407 32.5497 34.3474V35.1807C32.685 35.1807 32.9331 35.2084 33.0744 35.2072C34.7291 35.2076 37.0296 35.0087 38.7245 35.0099C40.4375 35.0111 42.7248 35.2131 44.0738 35.2134L44.0697 35.2142C44.1865 35.2158 44.4644 35.1861 44.5811 35.1865V34.3536H44.4644C44.412 34.3427 42.6724 34.2717 42.2496 34.2292C42.0281 34.2156 41.0697 34.1352 41.0577 34.1044C41.0536 34.0881 41.0496 33.8389 41.0496 33.4236C41.0536 33.0294 41.0536 32.3739 41.0536 31.6634C41.0577 26.2319 41.0738 10.1003 41.0778 3.9341C41.0778 2.74239 41.0818 1.77412 41.0818 1.25472C41.4563 1.23179 42.9865 1.07686 43.5342 1.03007C43.5583 1.02777 44.2832 0.987372 44.5811 0.969902V0.101654C42.7087 0.100991 40.2309 0.242696 38.4036 0.241799C36.4924 0.240669 34.1379 0.0954846 32.5513 0.0948022V0.0947905ZM119.209 0.118409C119.209 0.118409 119.012 0.119228 118.645 0.11993C117.393 0.125155 114.188 0.147928 110.439 0.167893C108.135 0.180839 106.335 0.198738 103.963 0.197607C102.3 0.21648 99.9728 0.278559 98.5352 0.276064C96.2399 0.272437 94.3674 0.13545 93.3487 0.131356C92.8654 0.129289 92.5956 0.146914 92.4627 0.138959C92.4708 0.150775 92.4708 0.961507 92.4708 0.961507C92.5594 0.976481 92.7366 0.995588 92.9017 0.991962C93.4775 1.02947 94.5567 1.1139 95.1044 1.18389C95.2131 1.20319 95.3983 1.23279 95.9138 1.28824C95.9097 1.47272 95.9379 3.56033 95.9339 4.81458C95.9339 5.97661 95.9218 31.904 95.9218 31.904C95.9218 31.9461 95.8614 33.989 95.8614 34.154C94.9513 34.3049 93.2037 34.3977 92.6077 34.4H92.4305V35.2247C92.5151 35.2243 92.9057 35.2392 93.1272 35.2392C94.0896 35.2388 96.5701 35.0906 99.103 35.089C100.879 35.0875 102.832 35.1518 104.809 35.1791C107.245 35.2119 109.71 35.2134 111.924 35.2438C115.577 35.2938 118.537 35.298 119.499 35.2992C119.499 35.2992 119.616 28.7392 119.616 28.2104L119.088 28.2163C119.088 28.7743 118.875 30.8523 118.867 30.9432C118.798 31.7254 118.726 32.545 118.669 32.949C118.669 32.949 118.412 32.9689 118.287 32.9666C117.687 32.9557 115.77 33.0231 115.73 33.0231L107.181 33.0266L101.177 32.9291L101.137 31.3163L101.133 18.7945C102.204 18.7594 103.839 18.7044 104.833 18.7063C105.679 18.7079 107.672 18.6619 108.788 18.6642C111.498 18.6689 113.906 18.6857 114.099 18.6911C114.546 18.7036 115.375 18.7301 115.69 18.7488C115.702 18.8592 115.738 19.0315 115.742 19.0803C115.903 20.0392 115.992 20.7032 116.1 21.6446C116.116 21.7292 116.124 21.8111 116.137 21.8883H116.753C116.753 21.8883 116.769 21.5517 116.761 21.3423C116.749 20.6042 116.7 19.1318 116.7 17.4998C116.696 16.3686 116.765 14.6392 116.773 13.8075C116.777 13.5825 116.749 13.4226 116.749 13.3582L116.185 13.3688C116.181 13.5485 116.137 13.8137 116.137 13.8137C116.088 14.4337 115.907 15.2261 115.762 16.0621C115.722 16.1662 115.694 16.3117 115.694 16.3117C115.629 16.3327 113.861 16.424 113.704 16.4228C113.644 16.4224 111.071 16.4922 111.026 16.4922L101.137 16.4564L101.153 2.64844C101.153 2.64848 102.409 2.60551 102.759 2.60734C104.185 2.60758 106.504 2.59502 108.868 2.59822C112.327 2.60227 115.686 2.62314 115.694 2.62789C115.714 2.63745 116.737 2.65121 116.757 2.66825C116.781 2.68689 118.061 2.72397 118.375 2.73376C118.375 2.73376 118.4 2.83655 118.416 2.96605C118.557 4.42191 118.673 6.15092 118.726 6.76352L118.73 7.00879L119.257 7.00723C119.257 6.11075 119.209 3.36532 119.201 1.6186C119.197 1.05759 119.209 0.600731 119.209 0.340794V0.118409Z" fill="#B8C3C9"/>
</svg>
