<svg width="160" height="33" viewBox="0 0 160 33" fill="none" xmlns="http://www.w3.org/2000/svg">
<g clip-path="url(#clip0)">
<path d="M0 0H32.02C32.02 10.9047 32.02 21.8135 32.02 32.7182H0V0ZM2.3581 5.13516C3.78653 11.7865 5.06733 18.4738 6.44389 25.1372C6.69526 25.9352 6.53965 26.9885 7.31372 27.5232C8.71022 27.7466 10.1426 27.6908 11.5511 27.595C12.3172 27.619 12.5007 26.7172 12.6404 26.1387C13.602 21.3945 14.6474 16.6663 15.605 11.9222C15.6808 11.4833 15.8165 11.0564 16.0239 10.6613C17.217 15.7526 18.2025 20.8878 19.3117 25.995C19.4633 26.5377 19.4953 27.208 20.0299 27.5392C21.5541 27.7227 23.1182 27.7387 24.6384 27.5272C25.185 27.204 25.213 26.5377 25.3526 25.987C26.7611 19.0404 28.0738 12.0658 29.5621 5.13516C28.2175 5.14314 26.8768 5.13915 25.5362 5.13915C24.4668 11.184 23.609 17.2688 22.4279 23.2938C21.0993 18.1825 20.2095 12.9476 19.0524 7.78853C18.789 6.90673 18.9087 5.62195 17.9431 5.17506C16.7621 5.10324 15.5731 5.09925 14.392 5.17506C13.7217 5.23092 13.5701 6.02494 13.4384 6.55162C12.3691 11.6668 11.2479 16.7701 10.2025 21.8853C10.0948 22.3601 9.93516 22.815 9.75561 23.2658C8.68229 17.2369 7.66484 11.192 6.73915 5.13915C5.2788 5.13516 3.81845 5.14314 2.3581 5.13516Z" fill="#B8C3C9"/>
<path d="M63.7407 0H95.7606C95.7606 10.9047 95.7606 21.8135 95.7606 32.7182H63.7407C63.7407 21.8135 63.7407 10.9047 63.7407 0ZM70.9746 5.13915C70.9746 12.6204 70.9746 20.0978 70.9746 27.5791C72.4509 27.5791 73.9312 27.5791 75.4115 27.5791C75.4115 24.6544 75.4115 21.7257 75.4115 18.801C77.8175 18.809 80.2234 18.789 82.6294 18.805C83.5072 18.7212 84.5526 19.3476 84.5327 20.3132C84.6444 22.7392 84.8519 25.1571 85.0035 27.5791C86.412 27.5791 87.8165 27.5791 89.2249 27.583C88.8259 24.8379 89.3167 22.001 88.5427 19.3117C88.1436 17.9032 86.5875 17.588 85.3746 17.2369C86.2763 16.7581 87.4334 16.7142 88.0878 15.8364C89.0374 14.6314 89.1052 13.0234 89.1092 11.5551C89.0933 9.8394 89.1332 7.95212 88.0439 6.51172C87.1741 5.31471 85.5461 5.13915 84.1816 5.13915C79.7806 5.13516 75.3756 5.13915 70.9746 5.13915Z" fill="#B8C3C9"/>
<path d="M127.581 0H160V32.7182H127.581C127.581 21.8135 127.581 10.9047 127.581 0ZM134.815 5.13915C134.815 12.6204 134.815 20.0978 134.815 27.5791C138.546 27.5711 142.272 27.595 146.003 27.5671C148.301 27.5232 150.979 27.0963 152.363 25.0374C153.979 22.4519 153.736 19.2878 154.019 16.3711C153.732 13.4504 153.987 10.2743 152.363 7.6808C151.074 5.75362 148.608 5.24688 146.442 5.16708C142.568 5.10324 138.689 5.15511 134.815 5.13915Z" fill="#B8C3C9"/>
<path d="M40.1436 4.91962C45.3027 4.90765 50.4578 4.90765 55.613 4.91962C55.6329 6.25628 55.6329 7.59693 55.6169 8.93758C53.7935 8.94955 51.9701 8.94157 50.1466 8.94157C50.1546 13.8852 50.1546 18.8328 50.1466 23.7765C51.9701 23.7765 53.7935 23.7685 55.6209 23.7845C55.6289 25.1211 55.6329 26.4618 55.613 27.7984C50.4578 27.8104 45.3027 27.8104 40.1476 27.7984C40.1277 26.4578 40.1277 25.1211 40.1436 23.7805C41.9671 23.7685 43.7905 23.7765 45.6139 23.7765C45.606 18.8328 45.606 13.8852 45.6139 8.94157C43.7905 8.94157 41.9671 8.94955 40.1436 8.93758C40.1277 7.59693 40.1277 6.26027 40.1436 4.91962Z" fill="#B8C3C9"/>
<path d="M101.482 4.9237C107.803 4.90375 114.123 4.90375 120.447 4.9237C120.455 7.4055 120.447 9.88729 120.451 12.3691C119.082 12.3691 117.714 12.3691 116.345 12.3691C116.341 11.2239 116.341 10.0828 116.349 8.94166C113.875 8.94565 111.406 8.94565 108.932 8.94166C108.924 10.6574 108.928 12.3731 108.928 14.0888C110.923 14.0888 112.918 14.0888 114.913 14.0888C114.913 15.3616 114.913 16.6344 114.913 17.9072C112.918 17.9072 110.923 17.9072 108.928 17.9072C108.936 19.8663 108.908 21.8294 108.948 23.7885C111.485 23.7606 114.023 23.7806 116.561 23.7766C116.557 22.4718 116.557 21.1671 116.561 19.8624C117.953 19.8464 119.346 19.8464 120.738 19.8584C120.738 22.5037 120.758 25.1491 120.726 27.7945C114.31 27.8145 107.898 27.8145 101.482 27.7945C101.463 26.4579 101.467 25.1212 101.478 23.7845C102.496 23.7726 103.509 23.7726 104.527 23.7806C104.547 18.8329 104.547 13.8853 104.527 8.93766C103.509 8.94565 102.492 8.94565 101.474 8.9257C101.467 7.59303 101.467 6.25637 101.482 4.9237Z" fill="#B8C3C9"/>
<path d="M75.4115 8.82593C78.2604 8.86982 81.1132 8.73815 83.9541 8.88578C85.0514 9.66383 84.8319 11.2279 84.8758 12.405C84.82 13.4743 84.8 15.186 83.3756 15.2698C80.7262 15.4055 78.0649 15.2898 75.4115 15.3257C75.4115 13.1591 75.4115 10.9925 75.4115 8.82593Z" fill="#B8C3C9"/>
<path d="M139.252 8.82596C141.658 8.83793 144.064 8.81 146.47 8.83394C147.543 8.82197 148.768 9.34466 149.107 10.4459C149.861 12.6005 149.542 14.9387 149.626 17.1811C149.562 18.9726 149.75 20.8639 148.988 22.5437C148.477 23.629 147.156 23.9162 146.067 23.8963C143.793 23.8963 141.522 23.8883 139.252 23.8923C139.252 18.8689 139.252 13.8494 139.252 8.82596Z" fill="#B8C3C9"/>
</g>
<defs>
<clipPath id="clip0">
<rect width="160" height="32.7182" fill="white"/>
</clipPath>
</defs>
</svg>
