<svg viewBox="0 0 66 48" xmlns="http://www.w3.org/2000/svg"><path fill="#8A05BE" d="M63.9 33.9c0 2-2.5 4.4-4.5 4.4h-1.8V10.2c0-.3.3-.6.6-.6h5.1c.3 0 .6.3.6.6v23.7zm-8.4 8.7c0 1.2-.6 3.3-4.9 3.3-8.2 0-13.3-6.2-13.3-10.7v-25c0-.3.2-.6.5-.6H43c.3 0 .5.3.5.6v23.2a7 7 0 007 7h5v2.2zm8.2-35h-5.9c-1.3 0-2.3 1-2.3 2.2v28.5h-5c-2.6 0-4.8-2.2-4.8-4.9V9.8c0-1.2-1-2.2-2.3-2.2h-6c-1.2 0-2.2 1-2.2 2.2v25.4c0 8 9 12.8 15.4 12.8 4.3 0 7-2 7-5.5v-2.1h1.8c3.2 0 6.6-3.3 6.6-6.5v-24c0-1.3-1-2.3-2.3-2.3zm-35 30.2c0 .3-.2.6-.5.6H23a.6.6 0 01-.5-.6V14.6a7 7 0 00-7-7h-5V5.4c0-1.2.6-3.3 4.9-3.3 8.2 0 13.3 6.2 13.3 10.7v25zm-26 .6a.6.6 0 01-.6-.6V14.1c0-2 2.5-4.4 4.5-4.4h1.8v28.1c0 .3-.3.6-.6.6H2.7zm28.1-25.6c0-8-9-12.8-15.4-12.8-4.3 0-7 2-7 5.5v2.1H6.6C3.4 7.6 0 10.9 0 14.1v24c0 1.3 1 2.3 2.3 2.3h6c1.2 0 2.2-1 2.2-2.2V9.7h5c2.6 0 4.8 2.2 4.8 4.9v23.6c0 1.2 1 2.2 2.3 2.2h6c1.2 0 2.2-1 2.2-2.2V12.8z" class="Path-xrtkpd-0 daCLVV"/></svg>